<?xml version="1.0" encoding="utf-8" standalone="no"?>
<!DOCTYPE svg PUBLIC "-//W3C//DTD SVG 1.1//EN"
  "http://www.w3.org/Graphics/SVG/1.1/DTD/svg11.dtd">
<svg height="345.6pt" version="1.1" viewBox="0 0 460.8 345.6" width="460.8pt" xmlns="http://www.w3.org/2000/svg" xmlns:xlink="http://www.w3.org/1999/xlink">
 <metadata>
  <rdf:RDF xmlns:cc="http://creativecommons.org/ns#" xmlns:dc="http://purl.org/dc/elements/1.1/" xmlns:rdf="http://www.w3.org/1999/02/22-rdf-syntax-ns#">
   <cc:Work>
    <dc:type rdf:resource="http://purl.org/dc/dcmitype/StillImage"/>
    <dc:date>2022-07-31T05:40:47.723902</dc:date>
    <dc:format>image/svg+xml</dc:format>
    <dc:creator>
     <cc:Agent>
      <dc:title>Matplotlib v3.4.3, https://matplotlib.org/</dc:title>
     </cc:Agent>
    </dc:creator>
   </cc:Work>
  </rdf:RDF>
 </metadata>
 <defs>
  <style type="text/css">*{stroke-linecap:butt;stroke-linejoin:round;}</style>
 </defs>
 <g id="figure_1">
  <g id="patch_1">
   <path d="M 0 345.6 
L 460.8 345.6 
L 460.8 0 
L 0 0 
z
" style="fill:#ffffff;"/>
  </g>
  <g id="axes_1">
   <g id="patch_2">
    <path d="M 57.6 307.584 
L 414.72 307.584 
L 414.72 41.472 
L 57.6 41.472 
z
" style="fill:#ffffff;"/>
   </g>
   <g id="matplotlib.axis_1">
    <g id="xtick_1">
     <g id="line2d_1">
      <path clip-path="url(#pf719357385)" d="M 73.832727 307.584 
L 73.832727 41.472 
" style="fill:none;stroke:#b0b0b0;stroke-linecap:square;stroke-width:0.8;"/>
     </g>
     <g id="line2d_2">
      <defs>
       <path d="M 0 0 
L 0 3.5 
" id="m5697ad0826" style="stroke:#000000;stroke-width:0.8;"/>
      </defs>
      <g>
       <use style="stroke:#000000;stroke-width:0.8;" x="73.832727" xlink:href="#m5697ad0826" y="307.584"/>
      </g>
     </g>
     <g id="text_1">
      <!-- 0 -->
      <g transform="translate(70.651477 322.182437)scale(0.1 -0.1)">
       <defs>
        <path d="M 2034 4250 
Q 1547 4250 1301 3770 
Q 1056 3291 1056 2328 
Q 1056 1369 1301 889 
Q 1547 409 2034 409 
Q 2525 409 2770 889 
Q 3016 1369 3016 2328 
Q 3016 3291 2770 3770 
Q 2525 4250 2034 4250 
z
M 2034 4750 
Q 2819 4750 3233 4129 
Q 3647 3509 3647 2328 
Q 3647 1150 3233 529 
Q 2819 -91 2034 -91 
Q 1250 -91 836 529 
Q 422 1150 422 2328 
Q 422 3509 836 4129 
Q 1250 4750 2034 4750 
z
" id="DejaVuSans-30" transform="scale(0.015625)"/>
       </defs>
       <use xlink:href="#DejaVuSans-30"/>
      </g>
     </g>
    </g>
    <g id="xtick_2">
     <g id="line2d_3">
      <path clip-path="url(#pf719357385)" d="M 114.516254 307.584 
L 114.516254 41.472 
" style="fill:none;stroke:#b0b0b0;stroke-linecap:square;stroke-width:0.8;"/>
     </g>
     <g id="line2d_4">
      <g>
       <use style="stroke:#000000;stroke-width:0.8;" x="114.516254" xlink:href="#m5697ad0826" y="307.584"/>
      </g>
     </g>
     <g id="text_2">
      <!-- 50 -->
      <g transform="translate(108.153754 322.182437)scale(0.1 -0.1)">
       <defs>
        <path d="M 691 4666 
L 3169 4666 
L 3169 4134 
L 1269 4134 
L 1269 2991 
Q 1406 3038 1543 3061 
Q 1681 3084 1819 3084 
Q 2600 3084 3056 2656 
Q 3513 2228 3513 1497 
Q 3513 744 3044 326 
Q 2575 -91 1722 -91 
Q 1428 -91 1123 -41 
Q 819 9 494 109 
L 494 744 
Q 775 591 1075 516 
Q 1375 441 1709 441 
Q 2250 441 2565 725 
Q 2881 1009 2881 1497 
Q 2881 1984 2565 2268 
Q 2250 2553 1709 2553 
Q 1456 2553 1204 2497 
Q 953 2441 691 2322 
L 691 4666 
z
" id="DejaVuSans-35" transform="scale(0.015625)"/>
       </defs>
       <use xlink:href="#DejaVuSans-35"/>
       <use x="63.623047" xlink:href="#DejaVuSans-30"/>
      </g>
     </g>
    </g>
    <g id="xtick_3">
     <g id="line2d_5">
      <path clip-path="url(#pf719357385)" d="M 155.199781 307.584 
L 155.199781 41.472 
" style="fill:none;stroke:#b0b0b0;stroke-linecap:square;stroke-width:0.8;"/>
     </g>
     <g id="line2d_6">
      <g>
       <use style="stroke:#000000;stroke-width:0.8;" x="155.199781" xlink:href="#m5697ad0826" y="307.584"/>
      </g>
     </g>
     <g id="text_3">
      <!-- 100 -->
      <g transform="translate(145.656031 322.182437)scale(0.1 -0.1)">
       <defs>
        <path d="M 794 531 
L 1825 531 
L 1825 4091 
L 703 3866 
L 703 4441 
L 1819 4666 
L 2450 4666 
L 2450 531 
L 3481 531 
L 3481 0 
L 794 0 
L 794 531 
z
" id="DejaVuSans-31" transform="scale(0.015625)"/>
       </defs>
       <use xlink:href="#DejaVuSans-31"/>
       <use x="63.623047" xlink:href="#DejaVuSans-30"/>
       <use x="127.246094" xlink:href="#DejaVuSans-30"/>
      </g>
     </g>
    </g>
    <g id="xtick_4">
     <g id="line2d_7">
      <path clip-path="url(#pf719357385)" d="M 195.883308 307.584 
L 195.883308 41.472 
" style="fill:none;stroke:#b0b0b0;stroke-linecap:square;stroke-width:0.8;"/>
     </g>
     <g id="line2d_8">
      <g>
       <use style="stroke:#000000;stroke-width:0.8;" x="195.883308" xlink:href="#m5697ad0826" y="307.584"/>
      </g>
     </g>
     <g id="text_4">
      <!-- 150 -->
      <g transform="translate(186.339558 322.182437)scale(0.1 -0.1)">
       <use xlink:href="#DejaVuSans-31"/>
       <use x="63.623047" xlink:href="#DejaVuSans-35"/>
       <use x="127.246094" xlink:href="#DejaVuSans-30"/>
      </g>
     </g>
    </g>
    <g id="xtick_5">
     <g id="line2d_9">
      <path clip-path="url(#pf719357385)" d="M 236.566835 307.584 
L 236.566835 41.472 
" style="fill:none;stroke:#b0b0b0;stroke-linecap:square;stroke-width:0.8;"/>
     </g>
     <g id="line2d_10">
      <g>
       <use style="stroke:#000000;stroke-width:0.8;" x="236.566835" xlink:href="#m5697ad0826" y="307.584"/>
      </g>
     </g>
     <g id="text_5">
      <!-- 200 -->
      <g transform="translate(227.023085 322.182437)scale(0.1 -0.1)">
       <defs>
        <path d="M 1228 531 
L 3431 531 
L 3431 0 
L 469 0 
L 469 531 
Q 828 903 1448 1529 
Q 2069 2156 2228 2338 
Q 2531 2678 2651 2914 
Q 2772 3150 2772 3378 
Q 2772 3750 2511 3984 
Q 2250 4219 1831 4219 
Q 1534 4219 1204 4116 
Q 875 4013 500 3803 
L 500 4441 
Q 881 4594 1212 4672 
Q 1544 4750 1819 4750 
Q 2544 4750 2975 4387 
Q 3406 4025 3406 3419 
Q 3406 3131 3298 2873 
Q 3191 2616 2906 2266 
Q 2828 2175 2409 1742 
Q 1991 1309 1228 531 
z
" id="DejaVuSans-32" transform="scale(0.015625)"/>
       </defs>
       <use xlink:href="#DejaVuSans-32"/>
       <use x="63.623047" xlink:href="#DejaVuSans-30"/>
       <use x="127.246094" xlink:href="#DejaVuSans-30"/>
      </g>
     </g>
    </g>
    <g id="xtick_6">
     <g id="line2d_11">
      <path clip-path="url(#pf719357385)" d="M 277.250362 307.584 
L 277.250362 41.472 
" style="fill:none;stroke:#b0b0b0;stroke-linecap:square;stroke-width:0.8;"/>
     </g>
     <g id="line2d_12">
      <g>
       <use style="stroke:#000000;stroke-width:0.8;" x="277.250362" xlink:href="#m5697ad0826" y="307.584"/>
      </g>
     </g>
     <g id="text_6">
      <!-- 250 -->
      <g transform="translate(267.706612 322.182437)scale(0.1 -0.1)">
       <use xlink:href="#DejaVuSans-32"/>
       <use x="63.623047" xlink:href="#DejaVuSans-35"/>
       <use x="127.246094" xlink:href="#DejaVuSans-30"/>
      </g>
     </g>
    </g>
    <g id="xtick_7">
     <g id="line2d_13">
      <path clip-path="url(#pf719357385)" d="M 317.933889 307.584 
L 317.933889 41.472 
" style="fill:none;stroke:#b0b0b0;stroke-linecap:square;stroke-width:0.8;"/>
     </g>
     <g id="line2d_14">
      <g>
       <use style="stroke:#000000;stroke-width:0.8;" x="317.933889" xlink:href="#m5697ad0826" y="307.584"/>
      </g>
     </g>
     <g id="text_7">
      <!-- 300 -->
      <g transform="translate(308.390139 322.182437)scale(0.1 -0.1)">
       <defs>
        <path d="M 2597 2516 
Q 3050 2419 3304 2112 
Q 3559 1806 3559 1356 
Q 3559 666 3084 287 
Q 2609 -91 1734 -91 
Q 1441 -91 1130 -33 
Q 819 25 488 141 
L 488 750 
Q 750 597 1062 519 
Q 1375 441 1716 441 
Q 2309 441 2620 675 
Q 2931 909 2931 1356 
Q 2931 1769 2642 2001 
Q 2353 2234 1838 2234 
L 1294 2234 
L 1294 2753 
L 1863 2753 
Q 2328 2753 2575 2939 
Q 2822 3125 2822 3475 
Q 2822 3834 2567 4026 
Q 2313 4219 1838 4219 
Q 1578 4219 1281 4162 
Q 984 4106 628 3988 
L 628 4550 
Q 988 4650 1302 4700 
Q 1616 4750 1894 4750 
Q 2613 4750 3031 4423 
Q 3450 4097 3450 3541 
Q 3450 3153 3228 2886 
Q 3006 2619 2597 2516 
z
" id="DejaVuSans-33" transform="scale(0.015625)"/>
       </defs>
       <use xlink:href="#DejaVuSans-33"/>
       <use x="63.623047" xlink:href="#DejaVuSans-30"/>
       <use x="127.246094" xlink:href="#DejaVuSans-30"/>
      </g>
     </g>
    </g>
    <g id="xtick_8">
     <g id="line2d_15">
      <path clip-path="url(#pf719357385)" d="M 358.617416 307.584 
L 358.617416 41.472 
" style="fill:none;stroke:#b0b0b0;stroke-linecap:square;stroke-width:0.8;"/>
     </g>
     <g id="line2d_16">
      <g>
       <use style="stroke:#000000;stroke-width:0.8;" x="358.617416" xlink:href="#m5697ad0826" y="307.584"/>
      </g>
     </g>
     <g id="text_8">
      <!-- 350 -->
      <g transform="translate(349.073666 322.182437)scale(0.1 -0.1)">
       <use xlink:href="#DejaVuSans-33"/>
       <use x="63.623047" xlink:href="#DejaVuSans-35"/>
       <use x="127.246094" xlink:href="#DejaVuSans-30"/>
      </g>
     </g>
    </g>
    <g id="xtick_9">
     <g id="line2d_17">
      <path clip-path="url(#pf719357385)" d="M 399.300943 307.584 
L 399.300943 41.472 
" style="fill:none;stroke:#b0b0b0;stroke-linecap:square;stroke-width:0.8;"/>
     </g>
     <g id="line2d_18">
      <g>
       <use style="stroke:#000000;stroke-width:0.8;" x="399.300943" xlink:href="#m5697ad0826" y="307.584"/>
      </g>
     </g>
     <g id="text_9">
      <!-- 400 -->
      <g transform="translate(389.757193 322.182437)scale(0.1 -0.1)">
       <defs>
        <path d="M 2419 4116 
L 825 1625 
L 2419 1625 
L 2419 4116 
z
M 2253 4666 
L 3047 4666 
L 3047 1625 
L 3713 1625 
L 3713 1100 
L 3047 1100 
L 3047 0 
L 2419 0 
L 2419 1100 
L 313 1100 
L 313 1709 
L 2253 4666 
z
" id="DejaVuSans-34" transform="scale(0.015625)"/>
       </defs>
       <use xlink:href="#DejaVuSans-34"/>
       <use x="63.623047" xlink:href="#DejaVuSans-30"/>
       <use x="127.246094" xlink:href="#DejaVuSans-30"/>
      </g>
     </g>
    </g>
    <g id="text_10">
     <!-- Generations -->
     <g transform="translate(205.662344 335.860562)scale(0.1 -0.1)">
      <defs>
       <path d="M 3809 666 
L 3809 1919 
L 2778 1919 
L 2778 2438 
L 4434 2438 
L 4434 434 
Q 4069 175 3628 42 
Q 3188 -91 2688 -91 
Q 1594 -91 976 548 
Q 359 1188 359 2328 
Q 359 3472 976 4111 
Q 1594 4750 2688 4750 
Q 3144 4750 3555 4637 
Q 3966 4525 4313 4306 
L 4313 3634 
Q 3963 3931 3569 4081 
Q 3175 4231 2741 4231 
Q 1884 4231 1454 3753 
Q 1025 3275 1025 2328 
Q 1025 1384 1454 906 
Q 1884 428 2741 428 
Q 3075 428 3337 486 
Q 3600 544 3809 666 
z
" id="DejaVuSans-47" transform="scale(0.015625)"/>
       <path d="M 3597 1894 
L 3597 1613 
L 953 1613 
Q 991 1019 1311 708 
Q 1631 397 2203 397 
Q 2534 397 2845 478 
Q 3156 559 3463 722 
L 3463 178 
Q 3153 47 2828 -22 
Q 2503 -91 2169 -91 
Q 1331 -91 842 396 
Q 353 884 353 1716 
Q 353 2575 817 3079 
Q 1281 3584 2069 3584 
Q 2775 3584 3186 3129 
Q 3597 2675 3597 1894 
z
M 3022 2063 
Q 3016 2534 2758 2815 
Q 2500 3097 2075 3097 
Q 1594 3097 1305 2825 
Q 1016 2553 972 2059 
L 3022 2063 
z
" id="DejaVuSans-65" transform="scale(0.015625)"/>
       <path d="M 3513 2113 
L 3513 0 
L 2938 0 
L 2938 2094 
Q 2938 2591 2744 2837 
Q 2550 3084 2163 3084 
Q 1697 3084 1428 2787 
Q 1159 2491 1159 1978 
L 1159 0 
L 581 0 
L 581 3500 
L 1159 3500 
L 1159 2956 
Q 1366 3272 1645 3428 
Q 1925 3584 2291 3584 
Q 2894 3584 3203 3211 
Q 3513 2838 3513 2113 
z
" id="DejaVuSans-6e" transform="scale(0.015625)"/>
       <path d="M 2631 2963 
Q 2534 3019 2420 3045 
Q 2306 3072 2169 3072 
Q 1681 3072 1420 2755 
Q 1159 2438 1159 1844 
L 1159 0 
L 581 0 
L 581 3500 
L 1159 3500 
L 1159 2956 
Q 1341 3275 1631 3429 
Q 1922 3584 2338 3584 
Q 2397 3584 2469 3576 
Q 2541 3569 2628 3553 
L 2631 2963 
z
" id="DejaVuSans-72" transform="scale(0.015625)"/>
       <path d="M 2194 1759 
Q 1497 1759 1228 1600 
Q 959 1441 959 1056 
Q 959 750 1161 570 
Q 1363 391 1709 391 
Q 2188 391 2477 730 
Q 2766 1069 2766 1631 
L 2766 1759 
L 2194 1759 
z
M 3341 1997 
L 3341 0 
L 2766 0 
L 2766 531 
Q 2569 213 2275 61 
Q 1981 -91 1556 -91 
Q 1019 -91 701 211 
Q 384 513 384 1019 
Q 384 1609 779 1909 
Q 1175 2209 1959 2209 
L 2766 2209 
L 2766 2266 
Q 2766 2663 2505 2880 
Q 2244 3097 1772 3097 
Q 1472 3097 1187 3025 
Q 903 2953 641 2809 
L 641 3341 
Q 956 3463 1253 3523 
Q 1550 3584 1831 3584 
Q 2591 3584 2966 3190 
Q 3341 2797 3341 1997 
z
" id="DejaVuSans-61" transform="scale(0.015625)"/>
       <path d="M 1172 4494 
L 1172 3500 
L 2356 3500 
L 2356 3053 
L 1172 3053 
L 1172 1153 
Q 1172 725 1289 603 
Q 1406 481 1766 481 
L 2356 481 
L 2356 0 
L 1766 0 
Q 1100 0 847 248 
Q 594 497 594 1153 
L 594 3053 
L 172 3053 
L 172 3500 
L 594 3500 
L 594 4494 
L 1172 4494 
z
" id="DejaVuSans-74" transform="scale(0.015625)"/>
       <path d="M 603 3500 
L 1178 3500 
L 1178 0 
L 603 0 
L 603 3500 
z
M 603 4863 
L 1178 4863 
L 1178 4134 
L 603 4134 
L 603 4863 
z
" id="DejaVuSans-69" transform="scale(0.015625)"/>
       <path d="M 1959 3097 
Q 1497 3097 1228 2736 
Q 959 2375 959 1747 
Q 959 1119 1226 758 
Q 1494 397 1959 397 
Q 2419 397 2687 759 
Q 2956 1122 2956 1747 
Q 2956 2369 2687 2733 
Q 2419 3097 1959 3097 
z
M 1959 3584 
Q 2709 3584 3137 3096 
Q 3566 2609 3566 1747 
Q 3566 888 3137 398 
Q 2709 -91 1959 -91 
Q 1206 -91 779 398 
Q 353 888 353 1747 
Q 353 2609 779 3096 
Q 1206 3584 1959 3584 
z
" id="DejaVuSans-6f" transform="scale(0.015625)"/>
       <path d="M 2834 3397 
L 2834 2853 
Q 2591 2978 2328 3040 
Q 2066 3103 1784 3103 
Q 1356 3103 1142 2972 
Q 928 2841 928 2578 
Q 928 2378 1081 2264 
Q 1234 2150 1697 2047 
L 1894 2003 
Q 2506 1872 2764 1633 
Q 3022 1394 3022 966 
Q 3022 478 2636 193 
Q 2250 -91 1575 -91 
Q 1294 -91 989 -36 
Q 684 19 347 128 
L 347 722 
Q 666 556 975 473 
Q 1284 391 1588 391 
Q 1994 391 2212 530 
Q 2431 669 2431 922 
Q 2431 1156 2273 1281 
Q 2116 1406 1581 1522 
L 1381 1569 
Q 847 1681 609 1914 
Q 372 2147 372 2553 
Q 372 3047 722 3315 
Q 1072 3584 1716 3584 
Q 2034 3584 2315 3537 
Q 2597 3491 2834 3397 
z
" id="DejaVuSans-73" transform="scale(0.015625)"/>
      </defs>
      <use xlink:href="#DejaVuSans-47"/>
      <use x="77.490234" xlink:href="#DejaVuSans-65"/>
      <use x="139.013672" xlink:href="#DejaVuSans-6e"/>
      <use x="202.392578" xlink:href="#DejaVuSans-65"/>
      <use x="263.916016" xlink:href="#DejaVuSans-72"/>
      <use x="305.029297" xlink:href="#DejaVuSans-61"/>
      <use x="366.308594" xlink:href="#DejaVuSans-74"/>
      <use x="405.517578" xlink:href="#DejaVuSans-69"/>
      <use x="433.300781" xlink:href="#DejaVuSans-6f"/>
      <use x="494.482422" xlink:href="#DejaVuSans-6e"/>
      <use x="557.861328" xlink:href="#DejaVuSans-73"/>
     </g>
    </g>
   </g>
   <g id="matplotlib.axis_2">
    <g id="ytick_1">
     <g id="line2d_19">
      <path clip-path="url(#pf719357385)" d="M 57.6 295.802362 
L 414.72 295.802362 
" style="fill:none;stroke:#b0b0b0;stroke-linecap:square;stroke-width:0.8;"/>
     </g>
     <g id="line2d_20">
      <defs>
       <path d="M 0 0 
L -3.5 0 
" id="m0194de0ebd" style="stroke:#000000;stroke-width:0.8;"/>
      </defs>
      <g>
       <use style="stroke:#000000;stroke-width:0.8;" x="57.6" xlink:href="#m0194de0ebd" y="295.802362"/>
      </g>
     </g>
     <g id="text_11">
      <!-- −25 -->
      <g transform="translate(29.495313 299.601581)scale(0.1 -0.1)">
       <defs>
        <path d="M 678 2272 
L 4684 2272 
L 4684 1741 
L 678 1741 
L 678 2272 
z
" id="DejaVuSans-2212" transform="scale(0.015625)"/>
       </defs>
       <use xlink:href="#DejaVuSans-2212"/>
       <use x="83.789062" xlink:href="#DejaVuSans-32"/>
       <use x="147.412109" xlink:href="#DejaVuSans-35"/>
      </g>
     </g>
    </g>
    <g id="ytick_2">
     <g id="line2d_21">
      <path clip-path="url(#pf719357385)" d="M 57.6 266.229917 
L 414.72 266.229917 
" style="fill:none;stroke:#b0b0b0;stroke-linecap:square;stroke-width:0.8;"/>
     </g>
     <g id="line2d_22">
      <g>
       <use style="stroke:#000000;stroke-width:0.8;" x="57.6" xlink:href="#m0194de0ebd" y="266.229917"/>
      </g>
     </g>
     <g id="text_12">
      <!-- 0 -->
      <g transform="translate(44.2375 270.029136)scale(0.1 -0.1)">
       <use xlink:href="#DejaVuSans-30"/>
      </g>
     </g>
    </g>
    <g id="ytick_3">
     <g id="line2d_23">
      <path clip-path="url(#pf719357385)" d="M 57.6 236.657471 
L 414.72 236.657471 
" style="fill:none;stroke:#b0b0b0;stroke-linecap:square;stroke-width:0.8;"/>
     </g>
     <g id="line2d_24">
      <g>
       <use style="stroke:#000000;stroke-width:0.8;" x="57.6" xlink:href="#m0194de0ebd" y="236.657471"/>
      </g>
     </g>
     <g id="text_13">
      <!-- 25 -->
      <g transform="translate(37.875 240.45669)scale(0.1 -0.1)">
       <use xlink:href="#DejaVuSans-32"/>
       <use x="63.623047" xlink:href="#DejaVuSans-35"/>
      </g>
     </g>
    </g>
    <g id="ytick_4">
     <g id="line2d_25">
      <path clip-path="url(#pf719357385)" d="M 57.6 207.085026 
L 414.72 207.085026 
" style="fill:none;stroke:#b0b0b0;stroke-linecap:square;stroke-width:0.8;"/>
     </g>
     <g id="line2d_26">
      <g>
       <use style="stroke:#000000;stroke-width:0.8;" x="57.6" xlink:href="#m0194de0ebd" y="207.085026"/>
      </g>
     </g>
     <g id="text_14">
      <!-- 50 -->
      <g transform="translate(37.875 210.884245)scale(0.1 -0.1)">
       <use xlink:href="#DejaVuSans-35"/>
       <use x="63.623047" xlink:href="#DejaVuSans-30"/>
      </g>
     </g>
    </g>
    <g id="ytick_5">
     <g id="line2d_27">
      <path clip-path="url(#pf719357385)" d="M 57.6 177.512581 
L 414.72 177.512581 
" style="fill:none;stroke:#b0b0b0;stroke-linecap:square;stroke-width:0.8;"/>
     </g>
     <g id="line2d_28">
      <g>
       <use style="stroke:#000000;stroke-width:0.8;" x="57.6" xlink:href="#m0194de0ebd" y="177.512581"/>
      </g>
     </g>
     <g id="text_15">
      <!-- 75 -->
      <g transform="translate(37.875 181.311799)scale(0.1 -0.1)">
       <defs>
        <path d="M 525 4666 
L 3525 4666 
L 3525 4397 
L 1831 0 
L 1172 0 
L 2766 4134 
L 525 4134 
L 525 4666 
z
" id="DejaVuSans-37" transform="scale(0.015625)"/>
       </defs>
       <use xlink:href="#DejaVuSans-37"/>
       <use x="63.623047" xlink:href="#DejaVuSans-35"/>
      </g>
     </g>
    </g>
    <g id="ytick_6">
     <g id="line2d_29">
      <path clip-path="url(#pf719357385)" d="M 57.6 147.940135 
L 414.72 147.940135 
" style="fill:none;stroke:#b0b0b0;stroke-linecap:square;stroke-width:0.8;"/>
     </g>
     <g id="line2d_30">
      <g>
       <use style="stroke:#000000;stroke-width:0.8;" x="57.6" xlink:href="#m0194de0ebd" y="147.940135"/>
      </g>
     </g>
     <g id="text_16">
      <!-- 100 -->
      <g transform="translate(31.5125 151.739354)scale(0.1 -0.1)">
       <use xlink:href="#DejaVuSans-31"/>
       <use x="63.623047" xlink:href="#DejaVuSans-30"/>
       <use x="127.246094" xlink:href="#DejaVuSans-30"/>
      </g>
     </g>
    </g>
    <g id="ytick_7">
     <g id="line2d_31">
      <path clip-path="url(#pf719357385)" d="M 57.6 118.36769 
L 414.72 118.36769 
" style="fill:none;stroke:#b0b0b0;stroke-linecap:square;stroke-width:0.8;"/>
     </g>
     <g id="line2d_32">
      <g>
       <use style="stroke:#000000;stroke-width:0.8;" x="57.6" xlink:href="#m0194de0ebd" y="118.36769"/>
      </g>
     </g>
     <g id="text_17">
      <!-- 125 -->
      <g transform="translate(31.5125 122.166909)scale(0.1 -0.1)">
       <use xlink:href="#DejaVuSans-31"/>
       <use x="63.623047" xlink:href="#DejaVuSans-32"/>
       <use x="127.246094" xlink:href="#DejaVuSans-35"/>
      </g>
     </g>
    </g>
    <g id="ytick_8">
     <g id="line2d_33">
      <path clip-path="url(#pf719357385)" d="M 57.6 88.795245 
L 414.72 88.795245 
" style="fill:none;stroke:#b0b0b0;stroke-linecap:square;stroke-width:0.8;"/>
     </g>
     <g id="line2d_34">
      <g>
       <use style="stroke:#000000;stroke-width:0.8;" x="57.6" xlink:href="#m0194de0ebd" y="88.795245"/>
      </g>
     </g>
     <g id="text_18">
      <!-- 150 -->
      <g transform="translate(31.5125 92.594463)scale(0.1 -0.1)">
       <use xlink:href="#DejaVuSans-31"/>
       <use x="63.623047" xlink:href="#DejaVuSans-35"/>
       <use x="127.246094" xlink:href="#DejaVuSans-30"/>
      </g>
     </g>
    </g>
    <g id="ytick_9">
     <g id="line2d_35">
      <path clip-path="url(#pf719357385)" d="M 57.6 59.222799 
L 414.72 59.222799 
" style="fill:none;stroke:#b0b0b0;stroke-linecap:square;stroke-width:0.8;"/>
     </g>
     <g id="line2d_36">
      <g>
       <use style="stroke:#000000;stroke-width:0.8;" x="57.6" xlink:href="#m0194de0ebd" y="59.222799"/>
      </g>
     </g>
     <g id="text_19">
      <!-- 175 -->
      <g transform="translate(31.5125 63.022018)scale(0.1 -0.1)">
       <use xlink:href="#DejaVuSans-31"/>
       <use x="63.623047" xlink:href="#DejaVuSans-37"/>
       <use x="127.246094" xlink:href="#DejaVuSans-35"/>
      </g>
     </g>
    </g>
    <g id="text_20">
     <!-- Fitness -->
     <g transform="translate(23.415625 191.845187)rotate(-90)scale(0.1 -0.1)">
      <defs>
       <path d="M 628 4666 
L 3309 4666 
L 3309 4134 
L 1259 4134 
L 1259 2759 
L 3109 2759 
L 3109 2228 
L 1259 2228 
L 1259 0 
L 628 0 
L 628 4666 
z
" id="DejaVuSans-46" transform="scale(0.015625)"/>
      </defs>
      <use xlink:href="#DejaVuSans-46"/>
      <use x="50.269531" xlink:href="#DejaVuSans-69"/>
      <use x="78.052734" xlink:href="#DejaVuSans-74"/>
      <use x="117.261719" xlink:href="#DejaVuSans-6e"/>
      <use x="180.640625" xlink:href="#DejaVuSans-65"/>
      <use x="242.164062" xlink:href="#DejaVuSans-73"/>
      <use x="294.263672" xlink:href="#DejaVuSans-73"/>
     </g>
    </g>
   </g>
   <g id="line2d_37">
    <path clip-path="url(#pf719357385)" d="M 73.832727 266.141377 
L 74.646398 261.055551 
L 75.460068 258.544977 
L 76.273739 259.083286 
L 77.087409 257.77929 
L 77.90108 253.65521 
L 78.714751 247.604307 
L 79.528421 235.18509 
L 80.342092 232.506769 
L 81.155762 230.803601 
L 81.969433 231.765716 
L 82.783103 227.087709 
L 83.596774 233.659982 
L 84.410444 226.454748 
L 85.224115 223.824917 
L 86.037785 234.603421 
L 86.851456 231.60827 
L 87.665126 230.093153 
L 88.478797 238.681579 
L 89.292468 230.586332 
L 90.106138 228.55648 
L 90.919809 214.056434 
L 91.733479 227.185301 
L 92.54715 232.941228 
L 93.36082 219.211559 
L 94.174491 230.413915 
L 94.988161 230.990815 
L 95.801832 237.213939 
L 96.615502 232.183186 
L 97.429173 230.697183 
L 98.242843 238.598429 
L 99.056514 230.975024 
L 99.870185 231.913191 
L 100.683855 226.555321 
L 101.497526 223.172588 
L 102.311196 223.15232 
L 103.124867 206.815959 
L 103.938537 210.149217 
L 105.565878 230.748927 
L 106.379549 220.416896 
L 107.193219 222.417805 
L 108.00689 208.678946 
L 108.82056 201.763022 
L 109.634231 193.188705 
L 110.447902 221.70119 
L 111.261572 207.248676 
L 112.075243 217.409171 
L 112.888913 219.569543 
L 113.702584 222.906732 
L 114.516254 203.700638 
L 115.329925 228.146807 
L 116.143595 197.637308 
L 116.957266 214.694226 
L 117.770936 213.290752 
L 118.584607 217.921762 
L 119.398278 219.888403 
L 120.211948 189.178442 
L 121.839289 232.542485 
L 122.65296 206.231929 
L 123.46663 214.812801 
L 124.280301 210.678855 
L 125.093971 217.263959 
L 125.907642 205.389271 
L 126.721312 231.404718 
L 127.534983 224.879165 
L 128.348653 221.275372 
L 129.162324 204.83858 
L 129.975995 198.604871 
L 130.789665 225.226118 
L 131.603336 224.891197 
L 132.417006 200.9132 
L 133.230677 209.470175 
L 134.044347 214.601883 
L 134.858018 220.973214 
L 135.671688 217.631344 
L 136.485359 227.019725 
L 137.299029 234.622768 
L 138.1127 232.981763 
L 138.92637 194.068511 
L 139.740041 214.108195 
L 140.553712 215.416852 
L 141.367382 202.838182 
L 142.181053 224.224462 
L 142.994723 237.203254 
L 143.808394 226.858393 
L 144.622064 230.445829 
L 145.435735 206.409836 
L 146.249405 206.685309 
L 147.063076 217.07835 
L 147.876746 217.740718 
L 148.690417 220.796104 
L 149.504087 214.621217 
L 150.317758 203.167393 
L 151.131429 219.464634 
L 151.945099 204.46444 
L 152.75877 210.781223 
L 153.57244 215.702026 
L 154.386111 213.867189 
L 155.199781 209.011278 
L 156.013452 210.219334 
L 156.827122 206.767909 
L 157.640793 209.679151 
L 158.454463 207.383477 
L 159.268134 201.82958 
L 160.081805 207.01274 
L 160.895475 208.213919 
L 161.709146 217.865136 
L 162.522816 211.242549 
L 163.336487 200.575065 
L 164.150157 208.34991 
L 164.963828 221.775204 
L 165.777498 217.727577 
L 166.591169 217.331801 
L 167.404839 220.361759 
L 168.21851 195.665003 
L 169.03218 207.929333 
L 169.845851 208.097312 
L 170.659522 209.580421 
L 171.473192 208.443132 
L 172.286863 222.365839 
L 173.100533 216.313961 
L 173.914204 216.320013 
L 174.727874 191.985272 
L 175.541545 191.751944 
L 176.355215 211.051674 
L 177.168886 202.39052 
L 177.982556 210.933749 
L 178.796227 217.187999 
L 179.609897 231.454415 
L 180.423568 222.062104 
L 181.237239 215.856271 
L 182.050909 207.632762 
L 182.86458 204.998548 
L 184.491921 231.032817 
L 185.305591 218.126283 
L 186.119262 214.999394 
L 186.932932 215.068924 
L 187.746603 215.301067 
L 188.560273 191.058123 
L 189.373944 221.224094 
L 190.187614 221.527994 
L 191.001285 218.387979 
L 191.814956 213.782586 
L 192.628626 215.798378 
L 193.442297 224.962177 
L 194.255967 219.981603 
L 195.069638 202.387945 
L 195.883308 217.551957 
L 196.696979 204.620172 
L 197.510649 216.830852 
L 198.32432 218.758255 
L 199.13799 206.441298 
L 199.951661 220.35827 
L 200.765332 222.315947 
L 201.579002 200.598606 
L 202.392673 201.323581 
L 203.206343 208.099407 
L 204.020014 202.622153 
L 204.833684 216.072839 
L 205.647355 210.75105 
L 206.461025 209.446498 
L 207.274696 201.073043 
L 208.088366 201.978246 
L 208.902037 219.814391 
L 209.715707 208.571516 
L 210.529378 200.913432 
L 211.343049 209.060248 
L 212.156719 202.981983 
L 212.97039 218.598177 
L 213.78406 211.121376 
L 215.411401 212.070088 
L 216.225072 205.131036 
L 217.038742 220.198138 
L 217.852413 220.046588 
L 219.479754 193.001791 
L 220.293424 220.186508 
L 221.107095 205.283613 
L 221.920766 218.049664 
L 222.734436 209.692988 
L 223.548107 191.170735 
L 224.361777 234.140539 
L 225.989118 222.846809 
L 226.802789 206.123198 
L 227.616459 219.794597 
L 228.43013 220.462382 
L 229.2438 228.65715 
L 230.057471 201.919856 
L 230.871141 201.518055 
L 231.684812 209.606373 
L 232.498483 213.725955 
L 233.312153 219.961932 
L 234.125824 208.876792 
L 234.939494 209.899353 
L 235.753165 210.730051 
L 236.566835 227.327995 
L 237.380506 209.533232 
L 238.194176 205.258486 
L 239.007847 204.819354 
L 239.821517 217.31652 
L 240.635188 222.227909 
L 241.448859 208.968086 
L 242.262529 222.535297 
L 243.0762 200.706668 
L 244.703541 216.942618 
L 245.517211 213.491978 
L 246.330882 204.44118 
L 247.144552 220.523347 
L 247.958223 202.53124 
L 248.771893 211.833856 
L 249.585564 216.562777 
L 250.399234 218.225272 
L 251.212905 222.450823 
L 252.026576 212.002365 
L 252.840246 206.199841 
L 253.653917 216.407091 
L 254.467587 208.93552 
L 255.281258 234.312691 
L 256.094928 183.524255 
L 256.908599 211.614072 
L 257.722269 217.055968 
L 258.53594 226.200303 
L 259.34961 208.201709 
L 260.163281 212.879922 
L 260.976951 210.513348 
L 261.790622 220.576644 
L 262.604293 220.944154 
L 264.231634 210.662365 
L 265.045304 221.148844 
L 265.858975 204.091127 
L 266.672645 236.464525 
L 267.486316 208.943227 
L 268.299986 202.796228 
L 269.113657 217.152509 
L 269.927327 203.206036 
L 270.740998 210.153007 
L 271.554668 212.667011 
L 272.368339 212.475109 
L 273.18201 205.897778 
L 273.99568 200.828641 
L 274.809351 224.368244 
L 275.623021 224.617401 
L 276.436692 218.290772 
L 277.250362 208.772664 
L 278.877703 226.226389 
L 279.691374 207.165432 
L 280.505044 203.117395 
L 281.318715 218.074141 
L 282.132386 209.06946 
L 282.946056 224.742569 
L 283.759727 197.820131 
L 284.573397 220.525221 
L 285.387068 213.676367 
L 286.200738 220.015394 
L 287.014409 213.101851 
L 287.828079 214.869481 
L 288.64175 209.755878 
L 289.45542 222.081785 
L 290.269091 221.952452 
L 291.896432 199.187749 
L 292.710103 226.63165 
L 293.523773 214.152788 
L 294.337444 199.197347 
L 295.151114 214.402684 
L 295.964785 213.863951 
L 296.778455 210.049976 
L 297.592126 216.874128 
L 298.405796 203.139528 
L 299.219467 219.616245 
L 300.033137 217.975671 
L 300.846808 225.256291 
L 301.660478 206.794988 
L 302.474149 218.031474 
L 303.28782 222.003745 
L 304.10149 213.272199 
L 304.915161 209.690137 
L 305.728831 203.312396 
L 306.542502 212.233619 
L 307.356172 219.568513 
L 308.169843 225.19888 
L 308.983513 217.194733 
L 309.797184 204.05343 
L 310.610854 217.944644 
L 311.424525 223.131922 
L 312.238195 218.451667 
L 313.051866 225.904073 
L 313.865537 220.12076 
L 314.679207 202.514588 
L 315.492878 214.281536 
L 316.306548 203.107887 
L 317.120219 228.881035 
L 317.933889 205.834744 
L 318.74756 195.985872 
L 319.56123 233.314714 
L 320.374901 212.508373 
L 321.188571 211.045897 
L 322.002242 219.738762 
L 322.815913 209.818121 
L 323.629583 218.260207 
L 324.443254 196.074136 
L 325.256924 216.872928 
L 326.070595 220.091479 
L 326.884265 232.465466 
L 327.697936 203.448011 
L 328.511606 216.502169 
L 329.325277 223.293035 
L 330.138947 218.309824 
L 330.952618 220.912669 
L 331.766288 217.658683 
L 332.579959 206.995229 
L 333.39363 211.206832 
L 335.020971 207.076783 
L 335.834641 211.588708 
L 336.648312 218.557329 
L 337.461982 215.535356 
L 338.275653 218.817882 
L 339.089323 191.854354 
L 339.902994 228.760249 
L 340.716664 211.627246 
L 341.530335 203.039943 
L 343.157676 213.043434 
L 343.971347 207.871755 
L 344.785017 214.487267 
L 345.598688 218.297382 
L 346.412358 204.637306 
L 347.226029 216.951561 
L 348.039699 222.738214 
L 348.85337 216.118396 
L 349.66704 205.68259 
L 350.480711 220.649607 
L 351.294381 215.064531 
L 352.108052 208.354378 
L 352.921722 199.344963 
L 353.735393 228.653436 
L 354.549064 232.537101 
L 355.362734 217.712323 
L 356.176405 220.40779 
L 356.990075 206.35872 
L 357.803746 179.975371 
L 358.617416 227.098486 
L 359.431087 222.572885 
L 360.244757 208.577086 
L 361.058428 215.070818 
L 361.872098 203.790154 
L 362.685769 215.614732 
L 364.31311 198.877655 
L 365.126781 219.042861 
L 365.940451 203.274504 
L 366.754122 205.073089 
L 367.567792 197.715672 
L 368.381463 212.473872 
L 369.195133 210.080711 
L 370.008804 217.767626 
L 370.822474 210.459348 
L 371.636145 231.53394 
L 372.449815 203.80646 
L 373.263486 217.228159 
L 374.077157 208.335329 
L 374.890827 222.611674 
L 375.704498 221.271413 
L 376.518168 200.653673 
L 377.331839 226.257454 
L 378.145509 223.533926 
L 378.95918 195.124488 
L 379.77285 206.700942 
L 380.586521 224.531011 
L 381.400191 225.597322 
L 382.213862 217.550427 
L 383.027532 208.067847 
L 383.841203 217.454199 
L 384.654874 233.696123 
L 387.095885 206.225315 
L 387.909556 181.70184 
L 388.723226 213.688524 
L 389.536897 217.669087 
L 390.350567 224.725294 
L 391.164238 217.707427 
L 391.977908 223.024875 
L 392.791579 218.044245 
L 393.605249 216.113188 
L 394.41892 215.925871 
L 395.232591 224.130368 
L 396.046261 224.524814 
L 396.859932 228.513922 
L 397.673602 226.730032 
L 398.487273 200.550764 
L 398.487273 200.550764 
" style="fill:none;stroke:#0000ff;stroke-linecap:square;stroke-width:1.5;"/>
   </g>
   <g id="line2d_38">
    <path clip-path="url(#pf719357385)" d="M 73.832727 269.617388 
L 74.646398 265.023027 
L 75.460068 262.1339 
L 76.273739 263.223742 
L 77.087409 265.321486 
L 77.90108 267.932863 
L 78.714751 266.352505 
L 79.528421 263.280687 
L 80.342092 258.412203 
L 81.155762 263.299958 
L 81.969433 264.241231 
L 82.783103 262.293826 
L 83.596774 269.121504 
L 84.410444 266.608749 
L 85.224115 266.319904 
L 86.037785 273.649264 
L 86.851456 272.138041 
L 87.665126 274.403734 
L 88.478797 275.5437 
L 89.292468 273.956771 
L 90.106138 275.764058 
L 90.919809 269.422177 
L 91.733479 273.926686 
L 92.54715 271.262348 
L 93.36082 269.758769 
L 94.174491 276.468544 
L 94.988161 273.638958 
L 95.801832 280.801422 
L 96.615502 283.086263 
L 97.429173 274.312325 
L 98.242843 281.020353 
L 99.056514 271.816422 
L 99.870185 273.317623 
L 100.683855 275.592072 
L 101.497526 272.802228 
L 102.311196 276.428361 
L 103.124867 270.985706 
L 103.938537 275.868083 
L 104.752208 276.540101 
L 105.565878 288.242692 
L 106.379549 281.173943 
L 107.193219 281.915179 
L 108.00689 277.948622 
L 108.82056 272.140606 
L 109.634231 261.837409 
L 110.447902 283.959699 
L 111.261572 274.858896 
L 112.075243 279.595088 
L 112.888913 282.400558 
L 113.702584 280.062771 
L 114.516254 270.707352 
L 115.329925 284.691318 
L 116.143595 269.661631 
L 116.957266 279.481457 
L 117.770936 277.108395 
L 118.584607 280.647442 
L 119.398278 275.124721 
L 120.211948 265.375761 
L 121.025619 275.875014 
L 121.839289 284.914979 
L 122.65296 271.637217 
L 123.46663 277.664828 
L 124.280301 268.253148 
L 125.093971 279.398263 
L 125.907642 274.302909 
L 126.721312 279.639222 
L 127.534983 284.057643 
L 128.348653 282.084767 
L 129.162324 274.788476 
L 129.975995 274.194225 
L 130.789665 279.398334 
L 131.603336 283.543996 
L 132.417006 271.004348 
L 133.230677 275.229808 
L 134.044347 274.822029 
L 134.858018 285.180773 
L 135.671688 277.142668 
L 136.485359 277.817759 
L 137.299029 289.499287 
L 138.1127 285.816206 
L 138.92637 264.550612 
L 139.740041 277.839696 
L 140.553712 283.352646 
L 141.367382 273.278556 
L 142.181053 278.880642 
L 142.994723 288.779477 
L 143.808394 286.51426 
L 144.622064 285.811402 
L 145.435735 274.10603 
L 146.249405 274.632219 
L 147.063076 280.492779 
L 147.876746 278.512453 
L 148.690417 281.64095 
L 149.504087 283.461806 
L 150.317758 278.484977 
L 151.131429 285.55306 
L 151.945099 273.937357 
L 152.75877 280.511905 
L 153.57244 279.676857 
L 154.386111 272.403173 
L 155.199781 276.419299 
L 156.013452 281.652961 
L 157.640793 275.942122 
L 158.454463 275.464338 
L 159.268134 270.933021 
L 160.895475 280.914193 
L 161.709146 282.402217 
L 162.522816 276.41752 
L 163.336487 268.973278 
L 164.150157 273.753112 
L 164.963828 283.756283 
L 165.777498 284.791036 
L 166.591169 273.885678 
L 167.404839 280.117738 
L 168.21851 267.085152 
L 169.03218 274.797756 
L 169.845851 270.217733 
L 170.659522 272.412652 
L 171.473192 268.504982 
L 172.286863 285.915521 
L 173.100533 281.641638 
L 173.914204 273.658342 
L 174.727874 262.790921 
L 175.541545 264.61982 
L 176.355215 276.251562 
L 177.168886 273.412235 
L 177.982556 280.003593 
L 178.796227 281.410334 
L 179.609897 282.468922 
L 180.423568 282.433578 
L 181.237239 282.631015 
L 182.050909 276.978544 
L 182.86458 274.977577 
L 183.67825 277.181899 
L 184.491921 282.231465 
L 185.305591 279.865419 
L 186.119262 276.32967 
L 186.932932 279.306766 
L 187.746603 278.905816 
L 188.560273 265.917187 
L 189.373944 283.059566 
L 190.187614 278.915552 
L 191.001285 278.792064 
L 191.814956 274.692061 
L 192.628626 275.506479 
L 193.442297 280.664163 
L 194.255967 279.664617 
L 195.069638 266.892208 
L 195.883308 284.14101 
L 196.696979 270.461989 
L 197.510649 278.060548 
L 198.32432 276.007855 
L 199.13799 271.030767 
L 199.951661 281.244023 
L 200.765332 277.8858 
L 201.579002 269.033396 
L 202.392673 273.208523 
L 203.206343 276.653484 
L 204.020014 270.288422 
L 204.833684 279.128118 
L 205.647355 279.549744 
L 206.461025 276.7432 
L 207.274696 267.599584 
L 208.088366 271.465066 
L 208.902037 284.526099 
L 209.715707 274.435364 
L 210.529378 269.528983 
L 211.343049 276.567093 
L 212.156719 268.82786 
L 212.97039 280.629877 
L 213.78406 280.498786 
L 214.597731 283.571837 
L 215.411401 279.825561 
L 216.225072 272.742713 
L 217.038742 282.553906 
L 217.852413 280.3302 
L 218.666083 269.369468 
L 219.479754 262.810799 
L 220.293424 276.111388 
L 221.107095 273.911942 
L 221.920766 278.336246 
L 222.734436 280.581045 
L 223.548107 260.879891 
L 224.361777 283.509468 
L 225.175448 277.675282 
L 225.989118 281.712602 
L 226.802789 275.100803 
L 227.616459 282.595073 
L 228.43013 281.668295 
L 229.2438 279.062168 
L 230.057471 273.620975 
L 231.684812 274.082734 
L 232.498483 279.264681 
L 233.312153 282.355355 
L 234.125824 277.778865 
L 234.939494 270.656163 
L 236.566835 285.737885 
L 237.380506 280.460133 
L 238.194176 271.705293 
L 239.007847 270.839183 
L 239.821517 281.575598 
L 240.635188 282.594216 
L 241.448859 277.200348 
L 242.262529 285.253135 
L 243.0762 268.659583 
L 243.88987 270.412505 
L 244.703541 284.384208 
L 245.517211 277.753831 
L 246.330882 273.948563 
L 247.144552 284.443949 
L 247.958223 272.092369 
L 248.771893 276.67127 
L 249.585564 280.019984 
L 250.399234 276.668635 
L 251.212905 283.912535 
L 252.026576 272.636706 
L 252.840246 276.171427 
L 253.653917 275.843702 
L 254.467587 273.300121 
L 255.281258 283.576322 
L 256.094928 251.919629 
L 256.908599 280.69866 
L 257.722269 280.386758 
L 258.53594 291.247661 
L 259.34961 274.727883 
L 260.163281 273.256928 
L 260.976951 279.366972 
L 261.790622 278.472242 
L 262.604293 282.617904 
L 263.417963 283.507319 
L 264.231634 280.519877 
L 265.045304 278.073248 
L 265.858975 270.066348 
L 266.672645 280.83054 
L 267.486316 272.609194 
L 268.299986 268.53591 
L 269.113657 277.279689 
L 269.927327 275.439786 
L 270.740998 279.835458 
L 271.554668 281.002172 
L 272.368339 277.98966 
L 273.18201 274.269091 
L 273.99568 273.837689 
L 274.809351 275.105175 
L 275.623021 284.511954 
L 276.436692 282.987521 
L 277.250362 278.974426 
L 278.064033 281.253366 
L 278.877703 287.700536 
L 279.691374 276.350606 
L 280.505044 275.384798 
L 281.318715 279.37863 
L 282.132386 280.987722 
L 282.946056 280.095466 
L 283.759727 266.688063 
L 284.573397 285.399182 
L 285.387068 281.740062 
L 286.200738 275.206346 
L 287.014409 276.437732 
L 287.828079 284.148243 
L 288.64175 276.228965 
L 289.45542 279.717243 
L 290.269091 281.257555 
L 291.082761 275.374761 
L 291.896432 263.490147 
L 292.710103 285.838525 
L 293.523773 281.923711 
L 294.337444 277.0455 
L 295.151114 281.851283 
L 295.964785 277.417597 
L 296.778455 282.403316 
L 297.592126 283.76728 
L 298.405796 270.287886 
L 299.219467 280.87524 
L 300.033137 274.481581 
L 300.846808 280.787064 
L 301.660478 274.471443 
L 302.474149 281.322222 
L 303.28782 281.868074 
L 304.10149 278.144152 
L 304.915161 275.019973 
L 305.728831 266.782974 
L 306.542502 276.899752 
L 307.356172 280.237359 
L 308.169843 288.954214 
L 308.983513 278.836192 
L 309.797184 270.575607 
L 310.610854 283.09793 
L 311.424525 281.907761 
L 312.238195 279.091113 
L 313.051866 285.128692 
L 313.865537 278.088368 
L 314.679207 275.748887 
L 315.492878 282.338747 
L 316.306548 281.854999 
L 317.120219 285.761824 
L 317.933889 275.000045 
L 318.74756 270.097464 
L 319.56123 286.017174 
L 320.374901 276.841546 
L 321.188571 280.399318 
L 322.002242 283.025371 
L 322.815913 280.834227 
L 323.629583 275.540862 
L 324.443254 268.261989 
L 325.256924 284.692765 
L 326.070595 284.215948 
L 326.884265 285.475723 
L 327.697936 275.838828 
L 328.511606 282.707584 
L 329.325277 280.119744 
L 330.138947 279.725283 
L 330.952618 289.119672 
L 331.766288 280.211131 
L 332.579959 288.203809 
L 333.39363 288.186047 
L 334.2073 283.071446 
L 335.020971 272.525661 
L 335.834641 282.192095 
L 336.648312 283.594545 
L 337.461982 277.805272 
L 338.275653 281.14839 
L 339.089323 276.717457 
L 339.902994 281.466902 
L 340.716664 277.571637 
L 341.530335 277.685472 
L 342.344005 280.64973 
L 343.157676 287.395705 
L 343.971347 279.692263 
L 344.785017 284.36061 
L 345.598688 275.037156 
L 346.412358 273.168957 
L 347.226029 279.247304 
L 348.039699 281.04055 
L 348.85337 282.106026 
L 349.66704 279.569008 
L 350.480711 288.141386 
L 351.294381 287.297162 
L 352.108052 283.060501 
L 352.921722 271.830659 
L 353.735393 280.817297 
L 354.549064 293.048093 
L 355.362734 285.117964 
L 356.176405 289.178771 
L 356.990075 277.745648 
L 357.803746 259.697787 
L 358.617416 282.076092 
L 359.431087 283.021832 
L 360.244757 280.111546 
L 361.058428 284.734025 
L 361.872098 278.490679 
L 362.685769 277.026612 
L 363.49944 277.701193 
L 364.31311 280.137381 
L 365.126781 283.727291 
L 365.940451 269.451285 
L 366.754122 278.062946 
L 367.567792 264.174382 
L 368.381463 284.85365 
L 369.195133 283.631455 
L 370.008804 287.547538 
L 370.822474 288.126244 
L 371.636145 290.866398 
L 372.449815 273.044592 
L 373.263486 280.614869 
L 374.077157 281.964645 
L 374.890827 283.581195 
L 375.704498 276.92562 
L 376.518168 271.694703 
L 377.331839 283.550097 
L 378.145509 285.851861 
L 378.95918 273.517889 
L 379.77285 275.85821 
L 380.586521 286.84401 
L 381.400191 292.359037 
L 382.213862 289.686329 
L 383.027532 280.419432 
L 383.841203 286.368098 
L 384.654874 295.488 
L 385.468544 291.087711 
L 386.282215 285.540344 
L 387.909556 260.524086 
L 388.723226 274.344844 
L 389.536897 278.811962 
L 390.350567 288.660914 
L 391.164238 283.747705 
L 391.977908 292.112014 
L 392.791579 284.011952 
L 393.605249 287.121943 
L 394.41892 285.087066 
L 395.232591 289.250898 
L 396.046261 289.972872 
L 396.859932 286.020862 
L 397.673602 284.520455 
L 398.487273 269.292277 
L 398.487273 269.292277 
" style="fill:none;stroke:#008000;stroke-dasharray:9.6,2.4,1.5,2.4;stroke-dashoffset:0;stroke-width:1.5;"/>
   </g>
   <g id="line2d_39">
    <path clip-path="url(#pf719357385)" d="M 73.832727 262.665365 
L 74.646398 257.088076 
L 75.460068 254.956055 
L 76.273739 254.94283 
L 77.087409 250.237094 
L 78.714751 228.856109 
L 79.528421 207.089493 
L 80.342092 206.601334 
L 81.155762 198.307243 
L 81.969433 199.2902 
L 82.783103 191.881592 
L 83.596774 198.19846 
L 84.410444 186.300747 
L 85.224115 181.32993 
L 86.037785 195.557579 
L 86.851456 191.078498 
L 87.665126 185.782573 
L 88.478797 201.819459 
L 89.292468 187.215893 
L 90.106138 181.348901 
L 90.919809 158.690691 
L 91.733479 180.443917 
L 92.54715 194.620108 
L 93.36082 168.664349 
L 94.174491 184.359287 
L 94.988161 188.342672 
L 95.801832 193.626456 
L 96.615502 181.28011 
L 97.429173 187.08204 
L 98.242843 196.176504 
L 99.056514 190.133626 
L 99.870185 190.508758 
L 100.683855 177.518571 
L 102.311196 169.87628 
L 103.124867 142.646211 
L 103.938537 144.430351 
L 104.752208 164.257093 
L 105.565878 173.255162 
L 106.379549 159.659848 
L 107.193219 162.920431 
L 108.00689 139.409271 
L 108.82056 131.385439 
L 109.634231 124.540001 
L 110.447902 159.44268 
L 111.261572 139.638455 
L 112.075243 155.223254 
L 112.888913 156.738529 
L 113.702584 165.750693 
L 114.516254 136.693924 
L 115.329925 171.602296 
L 116.143595 125.612986 
L 116.957266 149.906994 
L 117.770936 149.473109 
L 118.584607 155.196081 
L 119.398278 164.652085 
L 120.211948 112.981123 
L 121.839289 180.169991 
L 122.65296 140.826641 
L 123.46663 151.960773 
L 124.280301 153.104563 
L 125.093971 155.129656 
L 125.907642 136.475632 
L 126.721312 183.170215 
L 127.534983 165.700686 
L 128.348653 160.465978 
L 129.162324 134.888684 
L 129.975995 123.015517 
L 130.789665 171.053901 
L 131.603336 166.238398 
L 132.417006 130.822053 
L 133.230677 143.710542 
L 134.044347 154.381737 
L 134.858018 156.765655 
L 135.671688 158.12002 
L 136.485359 176.221691 
L 137.299029 179.746249 
L 138.1127 180.14732 
L 138.92637 123.586409 
L 139.740041 150.376694 
L 140.553712 147.481058 
L 141.367382 132.397808 
L 142.181053 169.568283 
L 142.994723 185.62703 
L 143.808394 167.202527 
L 144.622064 175.080256 
L 145.435735 138.713642 
L 146.249405 138.738399 
L 147.063076 153.663921 
L 148.690417 159.951258 
L 149.504087 145.780628 
L 150.317758 127.849809 
L 151.131429 153.376209 
L 151.945099 134.991522 
L 152.75877 141.050542 
L 153.57244 151.727195 
L 154.386111 155.331205 
L 155.199781 141.603257 
L 156.013452 138.785708 
L 156.827122 134.883196 
L 157.640793 143.41618 
L 158.454463 139.302617 
L 159.268134 132.726139 
L 160.081805 137.767287 
L 160.895475 135.513646 
L 161.709146 153.328055 
L 162.522816 146.067578 
L 163.336487 132.176853 
L 164.150157 142.946707 
L 164.963828 159.794126 
L 165.777498 150.664119 
L 166.591169 160.777924 
L 167.404839 160.60578 
L 168.21851 124.244854 
L 169.03218 141.06091 
L 169.845851 145.976891 
L 170.659522 146.74819 
L 171.473192 148.381282 
L 172.286863 158.816156 
L 173.100533 150.986285 
L 173.914204 158.981684 
L 174.727874 121.179623 
L 175.541545 118.884069 
L 176.355215 145.851785 
L 177.168886 131.368804 
L 178.796227 152.965663 
L 179.609897 180.439907 
L 180.423568 161.690629 
L 181.237239 149.081528 
L 182.050909 138.286981 
L 182.86458 135.019518 
L 184.491921 179.834169 
L 185.305591 156.387147 
L 186.932932 150.831082 
L 187.746603 151.696317 
L 188.560273 116.199059 
L 189.373944 159.388622 
L 190.187614 164.140436 
L 191.001285 157.983895 
L 191.814956 152.873111 
L 192.628626 156.090277 
L 193.442297 169.26019 
L 194.255967 160.298588 
L 195.069638 137.883682 
L 195.883308 150.962905 
L 196.696979 138.778355 
L 197.510649 155.601155 
L 198.32432 161.508656 
L 199.13799 141.851829 
L 199.951661 159.472517 
L 200.765332 166.746094 
L 201.579002 132.163815 
L 202.392673 129.438638 
L 203.206343 139.54533 
L 204.020014 134.955884 
L 204.833684 153.01756 
L 205.647355 141.952356 
L 206.461025 142.149795 
L 207.274696 134.546502 
L 208.088366 132.491425 
L 208.902037 155.102683 
L 209.715707 142.707667 
L 210.529378 132.297881 
L 211.343049 141.553403 
L 212.156719 137.136105 
L 212.97039 156.566476 
L 213.78406 141.743967 
L 214.597731 139.661963 
L 215.411401 144.314616 
L 216.225072 137.519359 
L 217.038742 157.842369 
L 217.852413 159.762976 
L 218.666083 143.214722 
L 219.479754 123.192783 
L 220.293424 164.261628 
L 221.107095 136.655285 
L 221.920766 157.763082 
L 223.548107 121.461579 
L 224.361777 184.77161 
L 225.175448 179.171691 
L 225.989118 163.981016 
L 226.802789 137.145593 
L 227.616459 156.994121 
L 228.43013 159.25647 
L 229.2438 178.252132 
L 230.057471 130.218736 
L 230.871141 129.154853 
L 231.684812 145.130012 
L 232.498483 148.187228 
L 233.312153 157.56851 
L 234.125824 139.97472 
L 234.939494 149.142542 
L 235.753165 143.660213 
L 236.566835 168.918105 
L 237.380506 138.606332 
L 238.194176 138.811678 
L 239.007847 138.799525 
L 239.821517 153.057443 
L 240.635188 161.861602 
L 241.448859 140.735824 
L 242.262529 159.81746 
L 243.0762 132.753752 
L 243.88987 147.97372 
L 244.703541 149.501027 
L 245.517211 149.230125 
L 246.330882 134.933797 
L 247.144552 156.602744 
L 247.958223 132.970111 
L 248.771893 146.996443 
L 250.399234 159.78191 
L 251.212905 160.989111 
L 252.026576 151.368025 
L 252.840246 136.228254 
L 253.653917 156.970481 
L 254.467587 144.570919 
L 255.281258 185.049061 
L 256.094928 115.128882 
L 256.908599 142.529483 
L 257.722269 153.725178 
L 258.53594 161.152945 
L 259.34961 141.675535 
L 260.163281 152.502915 
L 260.976951 141.659724 
L 261.790622 162.681046 
L 262.604293 159.270405 
L 263.417963 147.699811 
L 264.231634 140.804853 
L 265.045304 164.224439 
L 265.858975 138.115905 
L 266.672645 192.09851 
L 267.486316 145.277259 
L 268.299986 137.056545 
L 269.113657 157.025328 
L 269.927327 130.972287 
L 270.740998 140.470557 
L 271.554668 144.331849 
L 272.368339 146.960558 
L 273.99568 127.819594 
L 274.809351 173.631312 
L 275.623021 164.722849 
L 276.436692 153.594022 
L 277.250362 138.570901 
L 278.064033 153.752953 
L 278.877703 164.752243 
L 279.691374 137.980258 
L 280.505044 130.849991 
L 281.318715 156.769651 
L 282.132386 137.151198 
L 282.946056 169.389671 
L 283.759727 128.9522 
L 284.573397 155.65126 
L 285.387068 145.612672 
L 286.200738 164.824442 
L 287.014409 149.76597 
L 287.828079 145.590719 
L 288.64175 143.28279 
L 289.45542 164.446327 
L 290.269091 162.647349 
L 291.082761 144.525233 
L 291.896432 134.88535 
L 292.710103 167.424775 
L 293.523773 146.381865 
L 294.337444 121.349195 
L 295.151114 146.954086 
L 295.964785 150.310305 
L 296.778455 137.696636 
L 297.592126 149.980977 
L 298.405796 135.99117 
L 299.219467 158.35725 
L 300.033137 161.469761 
L 300.846808 169.725519 
L 301.660478 139.118533 
L 302.474149 154.740727 
L 303.28782 162.139416 
L 304.10149 148.400246 
L 305.728831 139.841817 
L 306.542502 147.567487 
L 307.356172 158.899667 
L 308.169843 161.443546 
L 308.983513 155.553274 
L 309.797184 137.531252 
L 310.610854 152.791359 
L 311.424525 164.356084 
L 312.238195 157.812221 
L 313.051866 166.679454 
L 313.865537 162.153152 
L 314.679207 129.28029 
L 315.492878 146.224326 
L 316.306548 124.360774 
L 317.120219 172.000246 
L 317.933889 136.669443 
L 318.74756 121.87428 
L 319.56123 180.612254 
L 320.374901 148.175199 
L 321.188571 141.692476 
L 322.002242 156.452152 
L 322.815913 138.802016 
L 323.629583 160.979551 
L 324.443254 123.886283 
L 325.256924 149.05309 
L 326.070595 155.967009 
L 326.884265 179.45521 
L 327.697936 131.057193 
L 328.511606 150.296755 
L 329.325277 166.466327 
L 330.138947 156.894366 
L 330.952618 152.705666 
L 331.766288 155.106236 
L 332.579959 125.786648 
L 333.39363 134.227617 
L 334.2073 135.192193 
L 335.020971 141.627906 
L 335.834641 140.985321 
L 336.648312 153.520114 
L 337.461982 153.265441 
L 338.275653 156.487374 
L 339.089323 106.991251 
L 339.902994 176.053596 
L 340.716664 145.682855 
L 341.530335 128.394415 
L 342.344005 135.622934 
L 343.157676 138.691162 
L 343.971347 136.051247 
L 344.785017 144.613923 
L 345.598688 161.557608 
L 346.412358 136.105655 
L 347.226029 154.655818 
L 348.039699 164.435878 
L 348.85337 150.130766 
L 349.66704 131.796173 
L 350.480711 153.157828 
L 352.108052 133.648255 
L 352.921722 126.859268 
L 353.735393 176.489576 
L 354.549064 172.026109 
L 355.362734 150.306682 
L 356.176405 151.636808 
L 356.990075 134.971791 
L 357.803746 100.252955 
L 358.617416 172.120879 
L 359.431087 162.123938 
L 360.244757 137.042625 
L 361.058428 145.407611 
L 361.872098 129.089629 
L 362.685769 154.202853 
L 363.49944 137.522355 
L 364.31311 117.617929 
L 365.126781 154.358431 
L 365.940451 137.097723 
L 366.754122 132.083231 
L 367.567792 131.256962 
L 368.381463 140.094095 
L 369.195133 136.529966 
L 370.008804 147.987714 
L 370.822474 132.792452 
L 371.636145 172.201481 
L 372.449815 134.568328 
L 373.263486 153.841448 
L 374.077157 134.706013 
L 374.890827 161.642153 
L 375.704498 165.617205 
L 376.518168 129.612643 
L 377.331839 168.964811 
L 378.145509 161.215992 
L 378.95918 116.731088 
L 379.77285 137.543674 
L 380.586521 162.218012 
L 381.400191 158.835607 
L 382.213862 145.414526 
L 383.027532 135.716263 
L 383.841203 148.5403 
L 384.654874 171.904245 
L 385.468544 157.549774 
L 386.282215 145.760635 
L 387.095885 140.134711 
L 387.909556 102.879594 
L 388.723226 153.032203 
L 389.536897 156.526212 
L 390.350567 160.789673 
L 391.164238 151.667149 
L 391.977908 153.937737 
L 392.791579 152.076539 
L 393.605249 145.104433 
L 394.41892 146.764675 
L 395.232591 159.009839 
L 396.046261 159.076756 
L 396.859932 171.006982 
L 397.673602 168.93961 
L 398.487273 131.809252 
L 398.487273 131.809252 
" style="fill:none;stroke:#008000;stroke-dasharray:9.6,2.4,1.5,2.4;stroke-dashoffset:0;stroke-width:1.5;"/>
   </g>
   <g id="line2d_40">
    <path clip-path="url(#pf719357385)" d="M 73.832727 257.060418 
L 74.646398 255.967613 
L 75.460068 249.271912 
L 76.273739 249.271912 
L 77.087409 237.481258 
L 77.90108 188.177587 
L 78.714751 188.177587 
L 80.342092 185.91674 
L 81.155762 185.91674 
L 81.969433 185.194296 
L 82.783103 163.056304 
L 85.224115 163.056304 
L 86.037785 162.352159 
L 86.851456 160.526325 
L 87.665126 133.862292 
L 97.429173 133.862292 
L 98.242843 128.685672 
L 100.683855 128.685672 
L 101.497526 92.299295 
L 102.311196 92.299295 
L 103.124867 90.280448 
L 313.865537 90.280448 
L 314.679207 59.959218 
L 365.940451 59.959218 
L 366.754122 55.208435 
L 368.381463 55.208435 
L 369.195133 54.290744 
L 383.841203 54.290744 
L 384.654874 53.568 
L 398.487273 53.568 
L 398.487273 53.568 
" style="fill:none;stroke:#ff0000;stroke-linecap:square;stroke-width:1.5;"/>
   </g>
   <g id="patch_3">
    <path d="M 57.6 307.584 
L 57.6 41.472 
" style="fill:none;stroke:#000000;stroke-linecap:square;stroke-linejoin:miter;stroke-width:0.8;"/>
   </g>
   <g id="patch_4">
    <path d="M 414.72 307.584 
L 414.72 41.472 
" style="fill:none;stroke:#000000;stroke-linecap:square;stroke-linejoin:miter;stroke-width:0.8;"/>
   </g>
   <g id="patch_5">
    <path d="M 57.6 307.584 
L 414.72 307.584 
" style="fill:none;stroke:#000000;stroke-linecap:square;stroke-linejoin:miter;stroke-width:0.8;"/>
   </g>
   <g id="patch_6">
    <path d="M 57.6 41.472 
L 414.72 41.472 
" style="fill:none;stroke:#000000;stroke-linecap:square;stroke-linejoin:miter;stroke-width:0.8;"/>
   </g>
   <g id="text_21">
    <!-- Population's average and best fitness -->
    <g transform="translate(123.529687 35.472)scale(0.12 -0.12)">
     <defs>
      <path d="M 1259 4147 
L 1259 2394 
L 2053 2394 
Q 2494 2394 2734 2622 
Q 2975 2850 2975 3272 
Q 2975 3691 2734 3919 
Q 2494 4147 2053 4147 
L 1259 4147 
z
M 628 4666 
L 2053 4666 
Q 2838 4666 3239 4311 
Q 3641 3956 3641 3272 
Q 3641 2581 3239 2228 
Q 2838 1875 2053 1875 
L 1259 1875 
L 1259 0 
L 628 0 
L 628 4666 
z
" id="DejaVuSans-50" transform="scale(0.015625)"/>
      <path d="M 1159 525 
L 1159 -1331 
L 581 -1331 
L 581 3500 
L 1159 3500 
L 1159 2969 
Q 1341 3281 1617 3432 
Q 1894 3584 2278 3584 
Q 2916 3584 3314 3078 
Q 3713 2572 3713 1747 
Q 3713 922 3314 415 
Q 2916 -91 2278 -91 
Q 1894 -91 1617 61 
Q 1341 213 1159 525 
z
M 3116 1747 
Q 3116 2381 2855 2742 
Q 2594 3103 2138 3103 
Q 1681 3103 1420 2742 
Q 1159 2381 1159 1747 
Q 1159 1113 1420 752 
Q 1681 391 2138 391 
Q 2594 391 2855 752 
Q 3116 1113 3116 1747 
z
" id="DejaVuSans-70" transform="scale(0.015625)"/>
      <path d="M 544 1381 
L 544 3500 
L 1119 3500 
L 1119 1403 
Q 1119 906 1312 657 
Q 1506 409 1894 409 
Q 2359 409 2629 706 
Q 2900 1003 2900 1516 
L 2900 3500 
L 3475 3500 
L 3475 0 
L 2900 0 
L 2900 538 
Q 2691 219 2414 64 
Q 2138 -91 1772 -91 
Q 1169 -91 856 284 
Q 544 659 544 1381 
z
M 1991 3584 
L 1991 3584 
z
" id="DejaVuSans-75" transform="scale(0.015625)"/>
      <path d="M 603 4863 
L 1178 4863 
L 1178 0 
L 603 0 
L 603 4863 
z
" id="DejaVuSans-6c" transform="scale(0.015625)"/>
      <path d="M 1147 4666 
L 1147 2931 
L 616 2931 
L 616 4666 
L 1147 4666 
z
" id="DejaVuSans-27" transform="scale(0.015625)"/>
      <path id="DejaVuSans-20" transform="scale(0.015625)"/>
      <path d="M 191 3500 
L 800 3500 
L 1894 563 
L 2988 3500 
L 3597 3500 
L 2284 0 
L 1503 0 
L 191 3500 
z
" id="DejaVuSans-76" transform="scale(0.015625)"/>
      <path d="M 2906 1791 
Q 2906 2416 2648 2759 
Q 2391 3103 1925 3103 
Q 1463 3103 1205 2759 
Q 947 2416 947 1791 
Q 947 1169 1205 825 
Q 1463 481 1925 481 
Q 2391 481 2648 825 
Q 2906 1169 2906 1791 
z
M 3481 434 
Q 3481 -459 3084 -895 
Q 2688 -1331 1869 -1331 
Q 1566 -1331 1297 -1286 
Q 1028 -1241 775 -1147 
L 775 -588 
Q 1028 -725 1275 -790 
Q 1522 -856 1778 -856 
Q 2344 -856 2625 -561 
Q 2906 -266 2906 331 
L 2906 616 
Q 2728 306 2450 153 
Q 2172 0 1784 0 
Q 1141 0 747 490 
Q 353 981 353 1791 
Q 353 2603 747 3093 
Q 1141 3584 1784 3584 
Q 2172 3584 2450 3431 
Q 2728 3278 2906 2969 
L 2906 3500 
L 3481 3500 
L 3481 434 
z
" id="DejaVuSans-67" transform="scale(0.015625)"/>
      <path d="M 2906 2969 
L 2906 4863 
L 3481 4863 
L 3481 0 
L 2906 0 
L 2906 525 
Q 2725 213 2448 61 
Q 2172 -91 1784 -91 
Q 1150 -91 751 415 
Q 353 922 353 1747 
Q 353 2572 751 3078 
Q 1150 3584 1784 3584 
Q 2172 3584 2448 3432 
Q 2725 3281 2906 2969 
z
M 947 1747 
Q 947 1113 1208 752 
Q 1469 391 1925 391 
Q 2381 391 2643 752 
Q 2906 1113 2906 1747 
Q 2906 2381 2643 2742 
Q 2381 3103 1925 3103 
Q 1469 3103 1208 2742 
Q 947 2381 947 1747 
z
" id="DejaVuSans-64" transform="scale(0.015625)"/>
      <path d="M 3116 1747 
Q 3116 2381 2855 2742 
Q 2594 3103 2138 3103 
Q 1681 3103 1420 2742 
Q 1159 2381 1159 1747 
Q 1159 1113 1420 752 
Q 1681 391 2138 391 
Q 2594 391 2855 752 
Q 3116 1113 3116 1747 
z
M 1159 2969 
Q 1341 3281 1617 3432 
Q 1894 3584 2278 3584 
Q 2916 3584 3314 3078 
Q 3713 2572 3713 1747 
Q 3713 922 3314 415 
Q 2916 -91 2278 -91 
Q 1894 -91 1617 61 
Q 1341 213 1159 525 
L 1159 0 
L 581 0 
L 581 4863 
L 1159 4863 
L 1159 2969 
z
" id="DejaVuSans-62" transform="scale(0.015625)"/>
      <path d="M 2375 4863 
L 2375 4384 
L 1825 4384 
Q 1516 4384 1395 4259 
Q 1275 4134 1275 3809 
L 1275 3500 
L 2222 3500 
L 2222 3053 
L 1275 3053 
L 1275 0 
L 697 0 
L 697 3053 
L 147 3053 
L 147 3500 
L 697 3500 
L 697 3744 
Q 697 4328 969 4595 
Q 1241 4863 1831 4863 
L 2375 4863 
z
" id="DejaVuSans-66" transform="scale(0.015625)"/>
     </defs>
     <use xlink:href="#DejaVuSans-50"/>
     <use x="56.677734" xlink:href="#DejaVuSans-6f"/>
     <use x="117.859375" xlink:href="#DejaVuSans-70"/>
     <use x="181.335938" xlink:href="#DejaVuSans-75"/>
     <use x="244.714844" xlink:href="#DejaVuSans-6c"/>
     <use x="272.498047" xlink:href="#DejaVuSans-61"/>
     <use x="333.777344" xlink:href="#DejaVuSans-74"/>
     <use x="372.986328" xlink:href="#DejaVuSans-69"/>
     <use x="400.769531" xlink:href="#DejaVuSans-6f"/>
     <use x="461.951172" xlink:href="#DejaVuSans-6e"/>
     <use x="525.330078" xlink:href="#DejaVuSans-27"/>
     <use x="552.820312" xlink:href="#DejaVuSans-73"/>
     <use x="604.919922" xlink:href="#DejaVuSans-20"/>
     <use x="636.707031" xlink:href="#DejaVuSans-61"/>
     <use x="697.986328" xlink:href="#DejaVuSans-76"/>
     <use x="757.166016" xlink:href="#DejaVuSans-65"/>
     <use x="818.689453" xlink:href="#DejaVuSans-72"/>
     <use x="859.802734" xlink:href="#DejaVuSans-61"/>
     <use x="921.082031" xlink:href="#DejaVuSans-67"/>
     <use x="984.558594" xlink:href="#DejaVuSans-65"/>
     <use x="1046.082031" xlink:href="#DejaVuSans-20"/>
     <use x="1077.869141" xlink:href="#DejaVuSans-61"/>
     <use x="1139.148438" xlink:href="#DejaVuSans-6e"/>
     <use x="1202.527344" xlink:href="#DejaVuSans-64"/>
     <use x="1266.003906" xlink:href="#DejaVuSans-20"/>
     <use x="1297.791016" xlink:href="#DejaVuSans-62"/>
     <use x="1361.267578" xlink:href="#DejaVuSans-65"/>
     <use x="1422.791016" xlink:href="#DejaVuSans-73"/>
     <use x="1474.890625" xlink:href="#DejaVuSans-74"/>
     <use x="1514.099609" xlink:href="#DejaVuSans-20"/>
     <use x="1545.886719" xlink:href="#DejaVuSans-66"/>
     <use x="1581.091797" xlink:href="#DejaVuSans-69"/>
     <use x="1608.875" xlink:href="#DejaVuSans-74"/>
     <use x="1648.083984" xlink:href="#DejaVuSans-6e"/>
     <use x="1711.462891" xlink:href="#DejaVuSans-65"/>
     <use x="1772.986328" xlink:href="#DejaVuSans-73"/>
     <use x="1825.085938" xlink:href="#DejaVuSans-73"/>
    </g>
   </g>
   <g id="legend_1">
    <g id="patch_7">
     <path d="M 64.6 108.1845 
L 137.540625 108.1845 
Q 139.540625 108.1845 139.540625 106.1845 
L 139.540625 48.472 
Q 139.540625 46.472 137.540625 46.472 
L 64.6 46.472 
Q 62.6 46.472 62.6 48.472 
L 62.6 106.1845 
Q 62.6 108.1845 64.6 108.1845 
z
" style="fill:#ffffff;opacity:0.8;stroke:#cccccc;stroke-linejoin:miter;"/>
    </g>
    <g id="line2d_41">
     <path d="M 66.6 54.570438 
L 86.6 54.570438 
" style="fill:none;stroke:#0000ff;stroke-linecap:square;stroke-width:1.5;"/>
    </g>
    <g id="line2d_42"/>
    <g id="text_22">
     <!-- average -->
     <g transform="translate(94.6 58.070438)scale(0.1 -0.1)">
      <use xlink:href="#DejaVuSans-61"/>
      <use x="61.279297" xlink:href="#DejaVuSans-76"/>
      <use x="120.458984" xlink:href="#DejaVuSans-65"/>
      <use x="181.982422" xlink:href="#DejaVuSans-72"/>
      <use x="223.095703" xlink:href="#DejaVuSans-61"/>
      <use x="284.375" xlink:href="#DejaVuSans-67"/>
      <use x="347.851562" xlink:href="#DejaVuSans-65"/>
     </g>
    </g>
    <g id="line2d_43">
     <path d="M 66.6 69.248563 
L 86.6 69.248563 
" style="fill:none;stroke:#008000;stroke-dasharray:9.6,2.4,1.5,2.4;stroke-dashoffset:0;stroke-width:1.5;"/>
    </g>
    <g id="line2d_44"/>
    <g id="text_23">
     <!-- -1 sd -->
     <g transform="translate(94.6 72.748563)scale(0.1 -0.1)">
      <defs>
       <path d="M 313 2009 
L 1997 2009 
L 1997 1497 
L 313 1497 
L 313 2009 
z
" id="DejaVuSans-2d" transform="scale(0.015625)"/>
      </defs>
      <use xlink:href="#DejaVuSans-2d"/>
      <use x="36.083984" xlink:href="#DejaVuSans-31"/>
      <use x="99.707031" xlink:href="#DejaVuSans-20"/>
      <use x="131.494141" xlink:href="#DejaVuSans-73"/>
      <use x="183.59375" xlink:href="#DejaVuSans-64"/>
     </g>
    </g>
    <g id="line2d_45">
     <path d="M 66.6 83.926688 
L 86.6 83.926688 
" style="fill:none;stroke:#008000;stroke-dasharray:9.6,2.4,1.5,2.4;stroke-dashoffset:0;stroke-width:1.5;"/>
    </g>
    <g id="line2d_46"/>
    <g id="text_24">
     <!-- +1 sd -->
     <g transform="translate(94.6 87.426688)scale(0.1 -0.1)">
      <defs>
       <path d="M 2944 4013 
L 2944 2272 
L 4684 2272 
L 4684 1741 
L 2944 1741 
L 2944 0 
L 2419 0 
L 2419 1741 
L 678 1741 
L 678 2272 
L 2419 2272 
L 2419 4013 
L 2944 4013 
z
" id="DejaVuSans-2b" transform="scale(0.015625)"/>
      </defs>
      <use xlink:href="#DejaVuSans-2b"/>
      <use x="83.789062" xlink:href="#DejaVuSans-31"/>
      <use x="147.412109" xlink:href="#DejaVuSans-20"/>
      <use x="179.199219" xlink:href="#DejaVuSans-73"/>
      <use x="231.298828" xlink:href="#DejaVuSans-64"/>
     </g>
    </g>
    <g id="line2d_47">
     <path d="M 66.6 98.604813 
L 86.6 98.604813 
" style="fill:none;stroke:#ff0000;stroke-linecap:square;stroke-width:1.5;"/>
    </g>
    <g id="line2d_48"/>
    <g id="text_25">
     <!-- best -->
     <g transform="translate(94.6 102.104813)scale(0.1 -0.1)">
      <use xlink:href="#DejaVuSans-62"/>
      <use x="63.476562" xlink:href="#DejaVuSans-65"/>
      <use x="125" xlink:href="#DejaVuSans-73"/>
      <use x="177.099609" xlink:href="#DejaVuSans-74"/>
     </g>
    </g>
   </g>
  </g>
 </g>
 <defs>
  <clipPath id="pf719357385">
   <rect height="266.112" width="357.12" x="57.6" y="41.472"/>
  </clipPath>
 </defs>
</svg>
