<?xml version="1.0" encoding="utf-8" standalone="no"?>
<!DOCTYPE svg PUBLIC "-//W3C//DTD SVG 1.1//EN"
  "http://www.w3.org/Graphics/SVG/1.1/DTD/svg11.dtd">
<svg height="345.6pt" version="1.1" viewBox="0 0 460.8 345.6" width="460.8pt" xmlns="http://www.w3.org/2000/svg" xmlns:xlink="http://www.w3.org/1999/xlink">
 <metadata>
  <rdf:RDF xmlns:cc="http://creativecommons.org/ns#" xmlns:dc="http://purl.org/dc/elements/1.1/" xmlns:rdf="http://www.w3.org/1999/02/22-rdf-syntax-ns#">
   <cc:Work>
    <dc:type rdf:resource="http://purl.org/dc/dcmitype/StillImage"/>
    <dc:date>2022-07-06T14:17:29.072837</dc:date>
    <dc:format>image/svg+xml</dc:format>
    <dc:creator>
     <cc:Agent>
      <dc:title>Matplotlib v3.4.3, https://matplotlib.org/</dc:title>
     </cc:Agent>
    </dc:creator>
   </cc:Work>
  </rdf:RDF>
 </metadata>
 <defs>
  <style type="text/css">*{stroke-linecap:butt;stroke-linejoin:round;}</style>
 </defs>
 <g id="figure_1">
  <g id="patch_1">
   <path d="M 0 345.6 
L 460.8 345.6 
L 460.8 0 
L 0 0 
z
" style="fill:#ffffff;"/>
  </g>
  <g id="axes_1">
   <g id="patch_2">
    <path d="M 57.6 307.584 
L 414.72 307.584 
L 414.72 41.472 
L 57.6 41.472 
z
" style="fill:#ffffff;"/>
   </g>
   <g id="matplotlib.axis_1">
    <g id="xtick_1">
     <g id="line2d_1">
      <path clip-path="url(#p1874f5e17f)" d="M 73.832727 307.584 
L 73.832727 41.472 
" style="fill:none;stroke:#b0b0b0;stroke-linecap:square;stroke-width:0.8;"/>
     </g>
     <g id="line2d_2">
      <defs>
       <path d="M 0 0 
L 0 3.5 
" id="m26a044182b" style="stroke:#000000;stroke-width:0.8;"/>
      </defs>
      <g>
       <use style="stroke:#000000;stroke-width:0.8;" x="73.832727" xlink:href="#m26a044182b" y="307.584"/>
      </g>
     </g>
     <g id="text_1">
      <!-- 0 -->
      <g transform="translate(70.651477 322.182437)scale(0.1 -0.1)">
       <defs>
        <path d="M 2034 4250 
Q 1547 4250 1301 3770 
Q 1056 3291 1056 2328 
Q 1056 1369 1301 889 
Q 1547 409 2034 409 
Q 2525 409 2770 889 
Q 3016 1369 3016 2328 
Q 3016 3291 2770 3770 
Q 2525 4250 2034 4250 
z
M 2034 4750 
Q 2819 4750 3233 4129 
Q 3647 3509 3647 2328 
Q 3647 1150 3233 529 
Q 2819 -91 2034 -91 
Q 1250 -91 836 529 
Q 422 1150 422 2328 
Q 422 3509 836 4129 
Q 1250 4750 2034 4750 
z
" id="DejaVuSans-30" transform="scale(0.015625)"/>
       </defs>
       <use xlink:href="#DejaVuSans-30"/>
      </g>
     </g>
    </g>
    <g id="xtick_2">
     <g id="line2d_3">
      <path clip-path="url(#p1874f5e17f)" d="M 114.618474 307.584 
L 114.618474 41.472 
" style="fill:none;stroke:#b0b0b0;stroke-linecap:square;stroke-width:0.8;"/>
     </g>
     <g id="line2d_4">
      <g>
       <use style="stroke:#000000;stroke-width:0.8;" x="114.618474" xlink:href="#m26a044182b" y="307.584"/>
      </g>
     </g>
     <g id="text_2">
      <!-- 25 -->
      <g transform="translate(108.255974 322.182437)scale(0.1 -0.1)">
       <defs>
        <path d="M 1228 531 
L 3431 531 
L 3431 0 
L 469 0 
L 469 531 
Q 828 903 1448 1529 
Q 2069 2156 2228 2338 
Q 2531 2678 2651 2914 
Q 2772 3150 2772 3378 
Q 2772 3750 2511 3984 
Q 2250 4219 1831 4219 
Q 1534 4219 1204 4116 
Q 875 4013 500 3803 
L 500 4441 
Q 881 4594 1212 4672 
Q 1544 4750 1819 4750 
Q 2544 4750 2975 4387 
Q 3406 4025 3406 3419 
Q 3406 3131 3298 2873 
Q 3191 2616 2906 2266 
Q 2828 2175 2409 1742 
Q 1991 1309 1228 531 
z
" id="DejaVuSans-32" transform="scale(0.015625)"/>
        <path d="M 691 4666 
L 3169 4666 
L 3169 4134 
L 1269 4134 
L 1269 2991 
Q 1406 3038 1543 3061 
Q 1681 3084 1819 3084 
Q 2600 3084 3056 2656 
Q 3513 2228 3513 1497 
Q 3513 744 3044 326 
Q 2575 -91 1722 -91 
Q 1428 -91 1123 -41 
Q 819 9 494 109 
L 494 744 
Q 775 591 1075 516 
Q 1375 441 1709 441 
Q 2250 441 2565 725 
Q 2881 1009 2881 1497 
Q 2881 1984 2565 2268 
Q 2250 2553 1709 2553 
Q 1456 2553 1204 2497 
Q 953 2441 691 2322 
L 691 4666 
z
" id="DejaVuSans-35" transform="scale(0.015625)"/>
       </defs>
       <use xlink:href="#DejaVuSans-32"/>
       <use x="63.623047" xlink:href="#DejaVuSans-35"/>
      </g>
     </g>
    </g>
    <g id="xtick_3">
     <g id="line2d_5">
      <path clip-path="url(#p1874f5e17f)" d="M 155.404221 307.584 
L 155.404221 41.472 
" style="fill:none;stroke:#b0b0b0;stroke-linecap:square;stroke-width:0.8;"/>
     </g>
     <g id="line2d_6">
      <g>
       <use style="stroke:#000000;stroke-width:0.8;" x="155.404221" xlink:href="#m26a044182b" y="307.584"/>
      </g>
     </g>
     <g id="text_3">
      <!-- 50 -->
      <g transform="translate(149.041721 322.182437)scale(0.1 -0.1)">
       <use xlink:href="#DejaVuSans-35"/>
       <use x="63.623047" xlink:href="#DejaVuSans-30"/>
      </g>
     </g>
    </g>
    <g id="xtick_4">
     <g id="line2d_7">
      <path clip-path="url(#p1874f5e17f)" d="M 196.189968 307.584 
L 196.189968 41.472 
" style="fill:none;stroke:#b0b0b0;stroke-linecap:square;stroke-width:0.8;"/>
     </g>
     <g id="line2d_8">
      <g>
       <use style="stroke:#000000;stroke-width:0.8;" x="196.189968" xlink:href="#m26a044182b" y="307.584"/>
      </g>
     </g>
     <g id="text_4">
      <!-- 75 -->
      <g transform="translate(189.827468 322.182437)scale(0.1 -0.1)">
       <defs>
        <path d="M 525 4666 
L 3525 4666 
L 3525 4397 
L 1831 0 
L 1172 0 
L 2766 4134 
L 525 4134 
L 525 4666 
z
" id="DejaVuSans-37" transform="scale(0.015625)"/>
       </defs>
       <use xlink:href="#DejaVuSans-37"/>
       <use x="63.623047" xlink:href="#DejaVuSans-35"/>
      </g>
     </g>
    </g>
    <g id="xtick_5">
     <g id="line2d_9">
      <path clip-path="url(#p1874f5e17f)" d="M 236.975715 307.584 
L 236.975715 41.472 
" style="fill:none;stroke:#b0b0b0;stroke-linecap:square;stroke-width:0.8;"/>
     </g>
     <g id="line2d_10">
      <g>
       <use style="stroke:#000000;stroke-width:0.8;" x="236.975715" xlink:href="#m26a044182b" y="307.584"/>
      </g>
     </g>
     <g id="text_5">
      <!-- 100 -->
      <g transform="translate(227.431965 322.182437)scale(0.1 -0.1)">
       <defs>
        <path d="M 794 531 
L 1825 531 
L 1825 4091 
L 703 3866 
L 703 4441 
L 1819 4666 
L 2450 4666 
L 2450 531 
L 3481 531 
L 3481 0 
L 794 0 
L 794 531 
z
" id="DejaVuSans-31" transform="scale(0.015625)"/>
       </defs>
       <use xlink:href="#DejaVuSans-31"/>
       <use x="63.623047" xlink:href="#DejaVuSans-30"/>
       <use x="127.246094" xlink:href="#DejaVuSans-30"/>
      </g>
     </g>
    </g>
    <g id="xtick_6">
     <g id="line2d_11">
      <path clip-path="url(#p1874f5e17f)" d="M 277.761462 307.584 
L 277.761462 41.472 
" style="fill:none;stroke:#b0b0b0;stroke-linecap:square;stroke-width:0.8;"/>
     </g>
     <g id="line2d_12">
      <g>
       <use style="stroke:#000000;stroke-width:0.8;" x="277.761462" xlink:href="#m26a044182b" y="307.584"/>
      </g>
     </g>
     <g id="text_6">
      <!-- 125 -->
      <g transform="translate(268.217712 322.182437)scale(0.1 -0.1)">
       <use xlink:href="#DejaVuSans-31"/>
       <use x="63.623047" xlink:href="#DejaVuSans-32"/>
       <use x="127.246094" xlink:href="#DejaVuSans-35"/>
      </g>
     </g>
    </g>
    <g id="xtick_7">
     <g id="line2d_13">
      <path clip-path="url(#p1874f5e17f)" d="M 318.547209 307.584 
L 318.547209 41.472 
" style="fill:none;stroke:#b0b0b0;stroke-linecap:square;stroke-width:0.8;"/>
     </g>
     <g id="line2d_14">
      <g>
       <use style="stroke:#000000;stroke-width:0.8;" x="318.547209" xlink:href="#m26a044182b" y="307.584"/>
      </g>
     </g>
     <g id="text_7">
      <!-- 150 -->
      <g transform="translate(309.003459 322.182437)scale(0.1 -0.1)">
       <use xlink:href="#DejaVuSans-31"/>
       <use x="63.623047" xlink:href="#DejaVuSans-35"/>
       <use x="127.246094" xlink:href="#DejaVuSans-30"/>
      </g>
     </g>
    </g>
    <g id="xtick_8">
     <g id="line2d_15">
      <path clip-path="url(#p1874f5e17f)" d="M 359.332956 307.584 
L 359.332956 41.472 
" style="fill:none;stroke:#b0b0b0;stroke-linecap:square;stroke-width:0.8;"/>
     </g>
     <g id="line2d_16">
      <g>
       <use style="stroke:#000000;stroke-width:0.8;" x="359.332956" xlink:href="#m26a044182b" y="307.584"/>
      </g>
     </g>
     <g id="text_8">
      <!-- 175 -->
      <g transform="translate(349.789206 322.182437)scale(0.1 -0.1)">
       <use xlink:href="#DejaVuSans-31"/>
       <use x="63.623047" xlink:href="#DejaVuSans-37"/>
       <use x="127.246094" xlink:href="#DejaVuSans-35"/>
      </g>
     </g>
    </g>
    <g id="xtick_9">
     <g id="line2d_17">
      <path clip-path="url(#p1874f5e17f)" d="M 400.118703 307.584 
L 400.118703 41.472 
" style="fill:none;stroke:#b0b0b0;stroke-linecap:square;stroke-width:0.8;"/>
     </g>
     <g id="line2d_18">
      <g>
       <use style="stroke:#000000;stroke-width:0.8;" x="400.118703" xlink:href="#m26a044182b" y="307.584"/>
      </g>
     </g>
     <g id="text_9">
      <!-- 200 -->
      <g transform="translate(390.574953 322.182437)scale(0.1 -0.1)">
       <use xlink:href="#DejaVuSans-32"/>
       <use x="63.623047" xlink:href="#DejaVuSans-30"/>
       <use x="127.246094" xlink:href="#DejaVuSans-30"/>
      </g>
     </g>
    </g>
    <g id="text_10">
     <!-- Generations -->
     <g transform="translate(205.662344 335.860562)scale(0.1 -0.1)">
      <defs>
       <path d="M 3809 666 
L 3809 1919 
L 2778 1919 
L 2778 2438 
L 4434 2438 
L 4434 434 
Q 4069 175 3628 42 
Q 3188 -91 2688 -91 
Q 1594 -91 976 548 
Q 359 1188 359 2328 
Q 359 3472 976 4111 
Q 1594 4750 2688 4750 
Q 3144 4750 3555 4637 
Q 3966 4525 4313 4306 
L 4313 3634 
Q 3963 3931 3569 4081 
Q 3175 4231 2741 4231 
Q 1884 4231 1454 3753 
Q 1025 3275 1025 2328 
Q 1025 1384 1454 906 
Q 1884 428 2741 428 
Q 3075 428 3337 486 
Q 3600 544 3809 666 
z
" id="DejaVuSans-47" transform="scale(0.015625)"/>
       <path d="M 3597 1894 
L 3597 1613 
L 953 1613 
Q 991 1019 1311 708 
Q 1631 397 2203 397 
Q 2534 397 2845 478 
Q 3156 559 3463 722 
L 3463 178 
Q 3153 47 2828 -22 
Q 2503 -91 2169 -91 
Q 1331 -91 842 396 
Q 353 884 353 1716 
Q 353 2575 817 3079 
Q 1281 3584 2069 3584 
Q 2775 3584 3186 3129 
Q 3597 2675 3597 1894 
z
M 3022 2063 
Q 3016 2534 2758 2815 
Q 2500 3097 2075 3097 
Q 1594 3097 1305 2825 
Q 1016 2553 972 2059 
L 3022 2063 
z
" id="DejaVuSans-65" transform="scale(0.015625)"/>
       <path d="M 3513 2113 
L 3513 0 
L 2938 0 
L 2938 2094 
Q 2938 2591 2744 2837 
Q 2550 3084 2163 3084 
Q 1697 3084 1428 2787 
Q 1159 2491 1159 1978 
L 1159 0 
L 581 0 
L 581 3500 
L 1159 3500 
L 1159 2956 
Q 1366 3272 1645 3428 
Q 1925 3584 2291 3584 
Q 2894 3584 3203 3211 
Q 3513 2838 3513 2113 
z
" id="DejaVuSans-6e" transform="scale(0.015625)"/>
       <path d="M 2631 2963 
Q 2534 3019 2420 3045 
Q 2306 3072 2169 3072 
Q 1681 3072 1420 2755 
Q 1159 2438 1159 1844 
L 1159 0 
L 581 0 
L 581 3500 
L 1159 3500 
L 1159 2956 
Q 1341 3275 1631 3429 
Q 1922 3584 2338 3584 
Q 2397 3584 2469 3576 
Q 2541 3569 2628 3553 
L 2631 2963 
z
" id="DejaVuSans-72" transform="scale(0.015625)"/>
       <path d="M 2194 1759 
Q 1497 1759 1228 1600 
Q 959 1441 959 1056 
Q 959 750 1161 570 
Q 1363 391 1709 391 
Q 2188 391 2477 730 
Q 2766 1069 2766 1631 
L 2766 1759 
L 2194 1759 
z
M 3341 1997 
L 3341 0 
L 2766 0 
L 2766 531 
Q 2569 213 2275 61 
Q 1981 -91 1556 -91 
Q 1019 -91 701 211 
Q 384 513 384 1019 
Q 384 1609 779 1909 
Q 1175 2209 1959 2209 
L 2766 2209 
L 2766 2266 
Q 2766 2663 2505 2880 
Q 2244 3097 1772 3097 
Q 1472 3097 1187 3025 
Q 903 2953 641 2809 
L 641 3341 
Q 956 3463 1253 3523 
Q 1550 3584 1831 3584 
Q 2591 3584 2966 3190 
Q 3341 2797 3341 1997 
z
" id="DejaVuSans-61" transform="scale(0.015625)"/>
       <path d="M 1172 4494 
L 1172 3500 
L 2356 3500 
L 2356 3053 
L 1172 3053 
L 1172 1153 
Q 1172 725 1289 603 
Q 1406 481 1766 481 
L 2356 481 
L 2356 0 
L 1766 0 
Q 1100 0 847 248 
Q 594 497 594 1153 
L 594 3053 
L 172 3053 
L 172 3500 
L 594 3500 
L 594 4494 
L 1172 4494 
z
" id="DejaVuSans-74" transform="scale(0.015625)"/>
       <path d="M 603 3500 
L 1178 3500 
L 1178 0 
L 603 0 
L 603 3500 
z
M 603 4863 
L 1178 4863 
L 1178 4134 
L 603 4134 
L 603 4863 
z
" id="DejaVuSans-69" transform="scale(0.015625)"/>
       <path d="M 1959 3097 
Q 1497 3097 1228 2736 
Q 959 2375 959 1747 
Q 959 1119 1226 758 
Q 1494 397 1959 397 
Q 2419 397 2687 759 
Q 2956 1122 2956 1747 
Q 2956 2369 2687 2733 
Q 2419 3097 1959 3097 
z
M 1959 3584 
Q 2709 3584 3137 3096 
Q 3566 2609 3566 1747 
Q 3566 888 3137 398 
Q 2709 -91 1959 -91 
Q 1206 -91 779 398 
Q 353 888 353 1747 
Q 353 2609 779 3096 
Q 1206 3584 1959 3584 
z
" id="DejaVuSans-6f" transform="scale(0.015625)"/>
       <path d="M 2834 3397 
L 2834 2853 
Q 2591 2978 2328 3040 
Q 2066 3103 1784 3103 
Q 1356 3103 1142 2972 
Q 928 2841 928 2578 
Q 928 2378 1081 2264 
Q 1234 2150 1697 2047 
L 1894 2003 
Q 2506 1872 2764 1633 
Q 3022 1394 3022 966 
Q 3022 478 2636 193 
Q 2250 -91 1575 -91 
Q 1294 -91 989 -36 
Q 684 19 347 128 
L 347 722 
Q 666 556 975 473 
Q 1284 391 1588 391 
Q 1994 391 2212 530 
Q 2431 669 2431 922 
Q 2431 1156 2273 1281 
Q 2116 1406 1581 1522 
L 1381 1569 
Q 847 1681 609 1914 
Q 372 2147 372 2553 
Q 372 3047 722 3315 
Q 1072 3584 1716 3584 
Q 2034 3584 2315 3537 
Q 2597 3491 2834 3397 
z
" id="DejaVuSans-73" transform="scale(0.015625)"/>
      </defs>
      <use xlink:href="#DejaVuSans-47"/>
      <use x="77.490234" xlink:href="#DejaVuSans-65"/>
      <use x="139.013672" xlink:href="#DejaVuSans-6e"/>
      <use x="202.392578" xlink:href="#DejaVuSans-65"/>
      <use x="263.916016" xlink:href="#DejaVuSans-72"/>
      <use x="305.029297" xlink:href="#DejaVuSans-61"/>
      <use x="366.308594" xlink:href="#DejaVuSans-74"/>
      <use x="405.517578" xlink:href="#DejaVuSans-69"/>
      <use x="433.300781" xlink:href="#DejaVuSans-6f"/>
      <use x="494.482422" xlink:href="#DejaVuSans-6e"/>
      <use x="557.861328" xlink:href="#DejaVuSans-73"/>
     </g>
    </g>
   </g>
   <g id="matplotlib.axis_2">
    <g id="ytick_1">
     <g id="line2d_19">
      <path clip-path="url(#p1874f5e17f)" d="M 57.6 272.000906 
L 414.72 272.000906 
" style="fill:none;stroke:#b0b0b0;stroke-linecap:square;stroke-width:0.8;"/>
     </g>
     <g id="line2d_20">
      <defs>
       <path d="M 0 0 
L -3.5 0 
" id="m75075c8e2f" style="stroke:#000000;stroke-width:0.8;"/>
      </defs>
      <g>
       <use style="stroke:#000000;stroke-width:0.8;" x="57.6" xlink:href="#m75075c8e2f" y="272.000906"/>
      </g>
     </g>
     <g id="text_11">
      <!-- 0 -->
      <g transform="translate(44.2375 275.800125)scale(0.1 -0.1)">
       <use xlink:href="#DejaVuSans-30"/>
      </g>
     </g>
    </g>
    <g id="ytick_2">
     <g id="line2d_21">
      <path clip-path="url(#p1874f5e17f)" d="M 57.6 235.512715 
L 414.72 235.512715 
" style="fill:none;stroke:#b0b0b0;stroke-linecap:square;stroke-width:0.8;"/>
     </g>
     <g id="line2d_22">
      <g>
       <use style="stroke:#000000;stroke-width:0.8;" x="57.6" xlink:href="#m75075c8e2f" y="235.512715"/>
      </g>
     </g>
     <g id="text_12">
      <!-- 50000 -->
      <g transform="translate(18.7875 239.311934)scale(0.1 -0.1)">
       <use xlink:href="#DejaVuSans-35"/>
       <use x="63.623047" xlink:href="#DejaVuSans-30"/>
       <use x="127.246094" xlink:href="#DejaVuSans-30"/>
       <use x="190.869141" xlink:href="#DejaVuSans-30"/>
       <use x="254.492188" xlink:href="#DejaVuSans-30"/>
      </g>
     </g>
    </g>
    <g id="ytick_3">
     <g id="line2d_23">
      <path clip-path="url(#p1874f5e17f)" d="M 57.6 199.024524 
L 414.72 199.024524 
" style="fill:none;stroke:#b0b0b0;stroke-linecap:square;stroke-width:0.8;"/>
     </g>
     <g id="line2d_24">
      <g>
       <use style="stroke:#000000;stroke-width:0.8;" x="57.6" xlink:href="#m75075c8e2f" y="199.024524"/>
      </g>
     </g>
     <g id="text_13">
      <!-- 100000 -->
      <g transform="translate(12.425 202.823743)scale(0.1 -0.1)">
       <use xlink:href="#DejaVuSans-31"/>
       <use x="63.623047" xlink:href="#DejaVuSans-30"/>
       <use x="127.246094" xlink:href="#DejaVuSans-30"/>
       <use x="190.869141" xlink:href="#DejaVuSans-30"/>
       <use x="254.492188" xlink:href="#DejaVuSans-30"/>
       <use x="318.115234" xlink:href="#DejaVuSans-30"/>
      </g>
     </g>
    </g>
    <g id="ytick_4">
     <g id="line2d_25">
      <path clip-path="url(#p1874f5e17f)" d="M 57.6 162.536333 
L 414.72 162.536333 
" style="fill:none;stroke:#b0b0b0;stroke-linecap:square;stroke-width:0.8;"/>
     </g>
     <g id="line2d_26">
      <g>
       <use style="stroke:#000000;stroke-width:0.8;" x="57.6" xlink:href="#m75075c8e2f" y="162.536333"/>
      </g>
     </g>
     <g id="text_14">
      <!-- 150000 -->
      <g transform="translate(12.425 166.335552)scale(0.1 -0.1)">
       <use xlink:href="#DejaVuSans-31"/>
       <use x="63.623047" xlink:href="#DejaVuSans-35"/>
       <use x="127.246094" xlink:href="#DejaVuSans-30"/>
       <use x="190.869141" xlink:href="#DejaVuSans-30"/>
       <use x="254.492188" xlink:href="#DejaVuSans-30"/>
       <use x="318.115234" xlink:href="#DejaVuSans-30"/>
      </g>
     </g>
    </g>
    <g id="ytick_5">
     <g id="line2d_27">
      <path clip-path="url(#p1874f5e17f)" d="M 57.6 126.048142 
L 414.72 126.048142 
" style="fill:none;stroke:#b0b0b0;stroke-linecap:square;stroke-width:0.8;"/>
     </g>
     <g id="line2d_28">
      <g>
       <use style="stroke:#000000;stroke-width:0.8;" x="57.6" xlink:href="#m75075c8e2f" y="126.048142"/>
      </g>
     </g>
     <g id="text_15">
      <!-- 200000 -->
      <g transform="translate(12.425 129.847361)scale(0.1 -0.1)">
       <use xlink:href="#DejaVuSans-32"/>
       <use x="63.623047" xlink:href="#DejaVuSans-30"/>
       <use x="127.246094" xlink:href="#DejaVuSans-30"/>
       <use x="190.869141" xlink:href="#DejaVuSans-30"/>
       <use x="254.492188" xlink:href="#DejaVuSans-30"/>
       <use x="318.115234" xlink:href="#DejaVuSans-30"/>
      </g>
     </g>
    </g>
    <g id="ytick_6">
     <g id="line2d_29">
      <path clip-path="url(#p1874f5e17f)" d="M 57.6 89.559951 
L 414.72 89.559951 
" style="fill:none;stroke:#b0b0b0;stroke-linecap:square;stroke-width:0.8;"/>
     </g>
     <g id="line2d_30">
      <g>
       <use style="stroke:#000000;stroke-width:0.8;" x="57.6" xlink:href="#m75075c8e2f" y="89.559951"/>
      </g>
     </g>
     <g id="text_16">
      <!-- 250000 -->
      <g transform="translate(12.425 93.35917)scale(0.1 -0.1)">
       <use xlink:href="#DejaVuSans-32"/>
       <use x="63.623047" xlink:href="#DejaVuSans-35"/>
       <use x="127.246094" xlink:href="#DejaVuSans-30"/>
       <use x="190.869141" xlink:href="#DejaVuSans-30"/>
       <use x="254.492188" xlink:href="#DejaVuSans-30"/>
       <use x="318.115234" xlink:href="#DejaVuSans-30"/>
      </g>
     </g>
    </g>
    <g id="ytick_7">
     <g id="line2d_31">
      <path clip-path="url(#p1874f5e17f)" d="M 57.6 53.071761 
L 414.72 53.071761 
" style="fill:none;stroke:#b0b0b0;stroke-linecap:square;stroke-width:0.8;"/>
     </g>
     <g id="line2d_32">
      <g>
       <use style="stroke:#000000;stroke-width:0.8;" x="57.6" xlink:href="#m75075c8e2f" y="53.071761"/>
      </g>
     </g>
     <g id="text_17">
      <!-- 300000 -->
      <g transform="translate(12.425 56.870979)scale(0.1 -0.1)">
       <defs>
        <path d="M 2597 2516 
Q 3050 2419 3304 2112 
Q 3559 1806 3559 1356 
Q 3559 666 3084 287 
Q 2609 -91 1734 -91 
Q 1441 -91 1130 -33 
Q 819 25 488 141 
L 488 750 
Q 750 597 1062 519 
Q 1375 441 1716 441 
Q 2309 441 2620 675 
Q 2931 909 2931 1356 
Q 2931 1769 2642 2001 
Q 2353 2234 1838 2234 
L 1294 2234 
L 1294 2753 
L 1863 2753 
Q 2328 2753 2575 2939 
Q 2822 3125 2822 3475 
Q 2822 3834 2567 4026 
Q 2313 4219 1838 4219 
Q 1578 4219 1281 4162 
Q 984 4106 628 3988 
L 628 4550 
Q 988 4650 1302 4700 
Q 1616 4750 1894 4750 
Q 2613 4750 3031 4423 
Q 3450 4097 3450 3541 
Q 3450 3153 3228 2886 
Q 3006 2619 2597 2516 
z
" id="DejaVuSans-33" transform="scale(0.015625)"/>
       </defs>
       <use xlink:href="#DejaVuSans-33"/>
       <use x="63.623047" xlink:href="#DejaVuSans-30"/>
       <use x="127.246094" xlink:href="#DejaVuSans-30"/>
       <use x="190.869141" xlink:href="#DejaVuSans-30"/>
       <use x="254.492188" xlink:href="#DejaVuSans-30"/>
       <use x="318.115234" xlink:href="#DejaVuSans-30"/>
      </g>
     </g>
    </g>
    <g id="text_18">
     <!-- Fitness -->
     <g transform="translate(6.345312 191.845187)rotate(-90)scale(0.1 -0.1)">
      <defs>
       <path d="M 628 4666 
L 3309 4666 
L 3309 4134 
L 1259 4134 
L 1259 2759 
L 3109 2759 
L 3109 2228 
L 1259 2228 
L 1259 0 
L 628 0 
L 628 4666 
z
" id="DejaVuSans-46" transform="scale(0.015625)"/>
      </defs>
      <use xlink:href="#DejaVuSans-46"/>
      <use x="50.269531" xlink:href="#DejaVuSans-69"/>
      <use x="78.052734" xlink:href="#DejaVuSans-74"/>
      <use x="117.261719" xlink:href="#DejaVuSans-6e"/>
      <use x="180.640625" xlink:href="#DejaVuSans-65"/>
      <use x="242.164062" xlink:href="#DejaVuSans-73"/>
      <use x="294.263672" xlink:href="#DejaVuSans-73"/>
     </g>
    </g>
   </g>
   <g id="line2d_33">
    <path clip-path="url(#p1874f5e17f)" d="M 73.832727 267.87426 
L 75.464157 268.035836 
L 78.727017 266.935014 
L 80.358447 266.30119 
L 83.621307 265.695146 
L 85.252736 265.590643 
L 88.515596 265.205622 
L 90.147026 265.022757 
L 91.778456 264.984435 
L 93.409886 264.531375 
L 98.304175 264.657307 
L 99.935605 264.593239 
L 101.567035 263.832638 
L 106.461325 264.252817 
L 108.092755 263.564986 
L 109.724185 264.280933 
L 111.355614 263.537278 
L 112.987044 262.963465 
L 114.618474 262.904615 
L 116.249904 262.376252 
L 117.881334 262.371054 
L 119.512764 261.825418 
L 121.144194 262.218931 
L 122.775624 262.169867 
L 126.038483 261.423539 
L 127.669913 262.527705 
L 129.301343 261.993351 
L 130.932773 262.632636 
L 132.564203 261.874895 
L 134.195633 262.988654 
L 135.827063 261.585766 
L 137.458492 261.630253 
L 139.089922 261.510014 
L 140.721352 260.539985 
L 142.352782 260.864765 
L 143.984212 260.706814 
L 145.615642 258.265539 
L 147.247072 257.565024 
L 148.878502 258.496637 
L 150.509931 260.466493 
L 152.141361 258.174547 
L 153.772791 256.96787 
L 155.404221 258.52348 
L 157.035651 256.901321 
L 158.667081 258.064827 
L 161.929941 258.14465 
L 163.56137 258.937151 
L 165.1928 261.220987 
L 166.82423 259.446509 
L 168.45566 258.762598 
L 170.08709 258.968886 
L 171.71852 257.039187 
L 173.34995 253.024043 
L 174.98138 257.5034 
L 176.61281 258.320686 
L 178.244239 254.952536 
L 179.875669 252.732617 
L 181.507099 256.096319 
L 183.138529 254.889945 
L 184.769959 254.481237 
L 186.401389 252.144177 
L 188.032819 253.703765 
L 189.664249 249.799182 
L 191.295678 247.172907 
L 192.927108 248.054102 
L 194.558538 245.458845 
L 196.189968 247.436877 
L 197.821398 244.874975 
L 199.452828 240.825831 
L 201.084258 247.239719 
L 202.715688 253.164956 
L 204.347117 252.488192 
L 205.978547 248.666205 
L 207.609977 243.677847 
L 209.241407 250.646515 
L 210.872837 250.599373 
L 212.504267 245.800555 
L 214.135697 242.111905 
L 215.767127 246.950905 
L 217.398556 240.800126 
L 219.029986 250.933235 
L 220.661416 247.43242 
L 222.292846 246.733605 
L 223.924276 243.362131 
L 225.555706 228.027743 
L 227.187136 239.72394 
L 228.818566 236.734716 
L 230.449995 243.777644 
L 232.081425 249.490391 
L 233.712855 245.346842 
L 235.344285 239.514122 
L 236.975715 244.348042 
L 238.607145 248.658494 
L 240.238575 243.873007 
L 241.870005 242.567789 
L 243.501434 247.213561 
L 245.132864 243.261864 
L 248.395724 250.756881 
L 250.027154 244.121042 
L 251.658584 244.471248 
L 253.290014 237.758525 
L 254.921444 250.788197 
L 256.552873 249.399281 
L 258.184303 245.52865 
L 259.815733 239.398862 
L 261.447163 247.565121 
L 263.078593 243.238614 
L 264.710023 239.458733 
L 266.341453 243.020895 
L 267.972883 235.790374 
L 269.604312 242.160406 
L 271.235742 246.980377 
L 272.867172 244.088701 
L 274.498602 234.709737 
L 276.130032 244.522033 
L 277.761462 243.900261 
L 279.392892 237.025044 
L 281.024322 247.819038 
L 282.655751 245.506615 
L 284.287181 238.626126 
L 285.918611 252.227653 
L 287.550041 251.776021 
L 289.181471 243.866513 
L 290.812901 239.492279 
L 292.444331 248.598766 
L 294.075761 242.791036 
L 295.70719 244.250332 
L 297.33862 248.987662 
L 298.97005 244.09387 
L 300.60148 242.102753 
L 302.23291 237.242741 
L 303.86434 237.796311 
L 305.49577 246.166515 
L 307.1272 252.218676 
L 308.75863 243.708447 
L 310.390059 241.656571 
L 312.021489 245.454566 
L 313.652919 237.513048 
L 315.284349 238.395595 
L 316.915779 240.250577 
L 318.547209 248.427211 
L 320.178639 247.30093 
L 321.810069 242.748703 
L 323.441498 241.627738 
L 325.072928 240.863663 
L 326.704358 233.511304 
L 328.335788 239.199112 
L 329.967218 241.042627 
L 331.598648 241.116398 
L 333.230078 244.762269 
L 334.861508 243.87525 
L 336.492937 247.412391 
L 338.124367 245.141849 
L 339.755797 231.651143 
L 341.387227 237.590235 
L 343.018657 242.428085 
L 344.650087 238.825835 
L 346.281517 218.992219 
L 347.912947 229.393634 
L 349.544376 233.612133 
L 351.175806 243.984745 
L 352.807236 238.418652 
L 354.438666 236.77135 
L 356.070096 242.500028 
L 357.701526 242.524125 
L 359.332956 241.598701 
L 360.964386 231.191877 
L 362.595815 246.63199 
L 364.227245 240.784362 
L 365.858675 246.371882 
L 367.490105 246.00915 
L 369.121535 233.533879 
L 370.752965 238.188128 
L 372.384395 232.249232 
L 374.015825 229.388556 
L 375.647254 234.177487 
L 377.278684 249.315666 
L 378.910114 245.634734 
L 380.541544 242.328955 
L 382.172974 236.644945 
L 383.804404 253.459783 
L 385.435834 241.32879 
L 387.067264 247.34269 
L 388.698693 237.564965 
L 390.330123 247.997133 
L 391.961553 253.272919 
L 393.592983 241.257437 
L 395.224413 236.221847 
L 396.855843 242.013971 
L 398.487273 244.725679 
L 398.487273 244.725679 
" style="fill:none;stroke:#0000ff;stroke-linecap:square;stroke-width:1.5;"/>
   </g>
   <g id="line2d_34">
    <path clip-path="url(#p1874f5e17f)" d="M 73.832727 271.186033 
L 75.464157 271.403454 
L 77.095587 271.447699 
L 78.727017 270.988025 
L 80.358447 270.338499 
L 81.989877 270.646784 
L 86.884166 269.811717 
L 88.515596 270.091139 
L 90.147026 269.508754 
L 91.778456 269.932041 
L 93.409886 269.265431 
L 95.041316 269.192014 
L 96.672746 269.513641 
L 98.304175 269.2743 
L 99.935605 270.183076 
L 104.829895 269.178502 
L 106.461325 269.379182 
L 108.092755 268.539951 
L 109.724185 269.725773 
L 111.355614 268.552344 
L 112.987044 268.169393 
L 114.618474 269.18082 
L 117.881334 269.565194 
L 119.512764 268.502451 
L 121.144194 269.232967 
L 122.775624 269.815959 
L 124.407053 269.42786 
L 126.038483 270.322909 
L 127.669913 270.087179 
L 129.301343 270.684489 
L 130.932773 270.858339 
L 132.564203 269.617329 
L 134.195633 271.043183 
L 135.827063 269.642216 
L 137.458492 270.996879 
L 139.089922 269.125727 
L 142.352782 269.964825 
L 143.984212 269.561157 
L 145.615642 267.286577 
L 147.247072 268.754841 
L 148.878502 267.532211 
L 150.509931 270.195261 
L 152.141361 269.161017 
L 153.772791 267.471307 
L 155.404221 268.45858 
L 157.035651 266.851187 
L 158.667081 267.328939 
L 160.298511 266.693934 
L 161.929941 267.822788 
L 163.56137 268.652241 
L 165.1928 270.992612 
L 166.82423 268.483225 
L 168.45566 268.609399 
L 170.08709 269.514186 
L 171.71852 266.598379 
L 173.34995 274.629023 
L 174.98138 278.965941 
L 176.61281 279.886792 
L 178.244239 276.372086 
L 179.875669 286.356395 
L 181.507099 284.502355 
L 183.138529 283.203513 
L 184.769959 283.664521 
L 186.401389 282.312106 
L 188.032819 284.786016 
L 189.664249 281.463922 
L 191.295678 282.677913 
L 192.927108 293.145111 
L 194.558538 294.305452 
L 196.189968 286.877835 
L 197.821398 293.426135 
L 199.452828 291.139152 
L 201.084258 284.151886 
L 202.715688 289.179074 
L 204.347117 290.249233 
L 205.978547 288.282634 
L 207.609977 294.831558 
L 209.241407 287.607463 
L 210.872837 287.812917 
L 212.504267 289.899745 
L 214.135697 286.795373 
L 215.767127 286.512945 
L 217.398556 287.219955 
L 219.029986 288.247906 
L 220.661416 287.123122 
L 222.292846 283.525506 
L 223.924276 284.667282 
L 225.555706 280.88153 
L 227.187136 289.304495 
L 228.818566 280.459257 
L 230.449995 287.649484 
L 232.081425 286.659954 
L 233.712855 289.398888 
L 235.344285 284.284592 
L 236.975715 284.075943 
L 238.607145 287.511552 
L 240.238575 291.73115 
L 241.870005 283.966995 
L 243.501434 287.125664 
L 245.132864 284.696435 
L 246.764294 295.488 
L 248.395724 287.846187 
L 250.027154 287.596448 
L 251.658584 288.166585 
L 253.290014 286.088986 
L 254.921444 287.710202 
L 256.552873 285.172862 
L 258.184303 284.141606 
L 259.815733 278.824865 
L 261.447163 284.168304 
L 263.078593 292.942033 
L 264.710023 281.983749 
L 266.341453 283.554567 
L 267.972883 277.038058 
L 269.604312 285.082723 
L 271.235742 290.53031 
L 272.867172 282.947002 
L 274.498602 286.542339 
L 276.130032 293.005351 
L 277.761462 293.243527 
L 279.392892 286.775226 
L 281.024322 287.830284 
L 282.655751 283.845077 
L 284.287181 291.828017 
L 285.918611 289.196142 
L 287.550041 287.729684 
L 289.181471 280.253779 
L 290.812901 289.923471 
L 292.444331 286.643388 
L 294.075761 289.206749 
L 295.70719 285.021062 
L 297.33862 293.558001 
L 298.97005 284.872484 
L 300.60148 287.756509 
L 302.23291 287.596888 
L 303.86434 285.711447 
L 305.49577 286.303283 
L 307.1272 290.809115 
L 308.75863 286.478077 
L 310.390059 287.815261 
L 312.021489 286.591581 
L 313.652919 285.641337 
L 315.284349 286.564119 
L 316.915779 280.825415 
L 318.547209 285.894642 
L 320.178639 291.469253 
L 321.810069 285.764223 
L 323.441498 283.698493 
L 325.072928 281.061418 
L 326.704358 281.669867 
L 328.335788 286.919973 
L 329.967218 287.866489 
L 331.598648 290.474615 
L 333.230078 286.804215 
L 334.861508 287.58417 
L 336.492937 287.395943 
L 338.124367 284.71257 
L 339.755797 292.748561 
L 341.387227 286.841991 
L 343.018657 281.807605 
L 344.650087 286.364956 
L 346.281517 289.653364 
L 347.912947 283.771702 
L 349.544376 290.221354 
L 351.175806 282.666683 
L 352.807236 283.670796 
L 354.438666 289.253009 
L 356.070096 282.939759 
L 357.701526 289.19054 
L 359.332956 281.458259 
L 360.964386 290.247993 
L 362.595815 293.988797 
L 364.227245 287.168233 
L 365.858675 284.384803 
L 367.490105 285.836728 
L 369.121535 287.970857 
L 370.752965 281.139094 
L 372.384395 281.837147 
L 374.015825 288.368177 
L 375.647254 291.782121 
L 378.910114 284.036576 
L 380.541544 290.138853 
L 383.804404 288.533017 
L 385.435834 290.11721 
L 387.067264 293.356057 
L 388.698693 290.838695 
L 390.330123 285.32787 
L 391.961553 290.284712 
L 393.592983 290.907742 
L 395.224413 288.332103 
L 396.855843 286.923749 
L 398.487273 285.07704 
L 398.487273 285.07704 
" style="fill:none;stroke:#008000;stroke-dasharray:9.6,2.4,1.5,2.4;stroke-dashoffset:0;stroke-width:1.5;"/>
   </g>
   <g id="line2d_35">
    <path clip-path="url(#p1874f5e17f)" d="M 73.832727 264.562487 
L 75.464157 264.668219 
L 77.095587 263.601868 
L 81.989877 261.329917 
L 83.621307 261.055506 
L 85.252736 261.144992 
L 86.884166 260.872169 
L 88.515596 260.320105 
L 90.147026 260.536761 
L 91.778456 260.03683 
L 93.409886 259.79732 
L 95.041316 259.96981 
L 96.672746 259.859576 
L 98.304175 260.040314 
L 101.567035 257.836602 
L 104.829895 259.163512 
L 106.461325 259.126453 
L 108.092755 258.59002 
L 109.724185 258.836093 
L 111.355614 258.522212 
L 112.987044 257.757536 
L 116.249904 255.371219 
L 117.881334 255.176915 
L 121.144194 255.204894 
L 122.775624 254.523776 
L 124.407053 254.12957 
L 126.038483 252.52417 
L 127.669913 254.968231 
L 129.301343 253.302213 
L 130.932773 254.406933 
L 132.564203 254.132462 
L 134.195633 254.934125 
L 137.458492 252.263626 
L 139.089922 253.894301 
L 140.721352 251.590724 
L 143.984212 251.852471 
L 145.615642 249.244501 
L 147.247072 246.375207 
L 148.878502 249.461063 
L 150.509931 250.737726 
L 152.141361 247.188077 
L 153.772791 246.464433 
L 155.404221 248.588379 
L 157.035651 246.951455 
L 158.667081 248.800714 
L 160.298511 249.515469 
L 161.929941 248.466511 
L 163.56137 249.222061 
L 165.1928 251.449362 
L 166.82423 250.409793 
L 168.45566 248.915797 
L 170.08709 248.423587 
L 171.71852 247.479995 
L 173.34995 231.419062 
L 174.98138 236.04086 
L 176.61281 236.75458 
L 178.244239 233.532986 
L 179.875669 219.108839 
L 181.507099 227.690284 
L 183.138529 226.576377 
L 184.769959 225.297952 
L 186.401389 221.976247 
L 188.032819 222.621513 
L 189.664249 218.134443 
L 191.295678 211.6679 
L 192.927108 202.963093 
L 194.558538 196.612237 
L 196.189968 207.995919 
L 197.821398 196.323816 
L 199.452828 190.512511 
L 201.084258 210.327552 
L 202.715688 217.150837 
L 204.347117 214.727152 
L 205.978547 209.049776 
L 207.609977 192.524137 
L 209.241407 213.685567 
L 210.872837 213.38583 
L 212.504267 201.701366 
L 214.135697 197.428437 
L 215.767127 207.388866 
L 217.398556 194.380298 
L 219.029986 213.618564 
L 220.661416 207.741718 
L 222.292846 209.941705 
L 223.924276 202.056979 
L 225.555706 175.173956 
L 227.187136 190.143385 
L 228.818566 193.010175 
L 230.449995 199.905804 
L 232.081425 212.320827 
L 233.712855 201.294797 
L 235.344285 194.743651 
L 236.975715 204.62014 
L 238.607145 209.805436 
L 240.238575 196.014864 
L 241.870005 201.168583 
L 243.501434 207.301457 
L 245.132864 201.827294 
L 246.764294 198.532693 
L 248.395724 213.667575 
L 250.027154 200.645636 
L 251.658584 200.77591 
L 253.290014 189.428065 
L 254.921444 213.866193 
L 256.552873 213.625699 
L 259.815733 199.972859 
L 261.447163 210.961937 
L 263.078593 193.535196 
L 264.710023 196.933717 
L 266.341453 202.487224 
L 267.972883 194.54269 
L 269.604312 199.238089 
L 271.235742 203.430444 
L 272.867172 205.230399 
L 274.498602 182.877134 
L 276.130032 196.038715 
L 277.761462 194.556994 
L 279.392892 187.274862 
L 281.024322 207.807792 
L 282.655751 207.168154 
L 284.287181 185.424235 
L 285.918611 215.259163 
L 287.550041 215.822358 
L 289.181471 207.479247 
L 290.812901 189.061087 
L 292.444331 210.554145 
L 294.075761 196.375323 
L 295.70719 203.479601 
L 297.33862 204.417323 
L 298.97005 203.315256 
L 300.60148 196.448998 
L 302.23291 186.888593 
L 303.86434 189.881175 
L 305.49577 206.029748 
L 307.1272 213.628238 
L 308.75863 200.938816 
L 310.390059 195.497881 
L 312.021489 204.317551 
L 313.652919 189.38476 
L 315.284349 190.227071 
L 316.915779 199.67574 
L 318.547209 210.95978 
L 320.178639 203.132606 
L 321.810069 199.733184 
L 323.441498 199.556983 
L 325.072928 200.665907 
L 326.704358 185.35274 
L 328.335788 191.47825 
L 329.967218 194.218765 
L 331.598648 191.75818 
L 333.230078 202.720322 
L 334.861508 200.166329 
L 336.492937 207.428839 
L 338.124367 205.571127 
L 339.755797 170.553725 
L 341.387227 188.338479 
L 343.018657 203.048565 
L 344.650087 191.286714 
L 346.281517 148.331074 
L 347.912947 175.015566 
L 349.544376 177.002911 
L 351.175806 205.302806 
L 352.807236 193.166508 
L 354.438666 184.289691 
L 356.070096 202.060296 
L 357.701526 195.85771 
L 359.332956 201.739143 
L 360.964386 172.135762 
L 362.595815 199.275182 
L 364.227245 194.400491 
L 365.858675 208.358961 
L 367.490105 206.181572 
L 369.121535 179.096902 
L 370.752965 195.237162 
L 374.015825 170.408935 
L 375.647254 176.572852 
L 377.278684 210.586905 
L 378.910114 207.232892 
L 380.541544 194.519057 
L 382.172974 183.904592 
L 383.804404 218.386548 
L 385.435834 192.540369 
L 387.067264 201.329322 
L 388.698693 184.291236 
L 390.330123 210.666396 
L 391.961553 216.261126 
L 393.592983 191.607133 
L 395.224413 184.111591 
L 396.855843 197.104192 
L 398.487273 204.374318 
L 398.487273 204.374318 
" style="fill:none;stroke:#008000;stroke-dasharray:9.6,2.4,1.5,2.4;stroke-dashoffset:0;stroke-width:1.5;"/>
   </g>
   <g id="line2d_36">
    <path clip-path="url(#p1874f5e17f)" d="M 73.832727 263.726981 
L 75.464157 263.726981 
L 77.095587 245.844346 
L 80.358447 245.844346 
L 81.989877 238.058451 
L 112.987044 238.045725 
L 114.618474 234.793214 
L 145.615642 234.793214 
L 147.247072 234.109242 
L 148.878502 234.109242 
L 150.509931 231.519584 
L 155.404221 231.519584 
L 157.035651 227.843992 
L 171.71852 227.843992 
L 173.34995 138.345484 
L 178.244239 138.345484 
L 179.875669 103.562295 
L 183.138529 103.562295 
L 184.769959 97.635883 
L 186.401389 101.576425 
L 188.032819 103.562295 
L 189.664249 99.600909 
L 191.295678 103.562295 
L 192.927108 64.076599 
L 194.558538 56.082036 
L 196.189968 55.790131 
L 197.821398 54.622509 
L 199.452828 58.125375 
L 202.715688 55.790131 
L 204.347117 56.766828 
L 205.978547 56.665847 
L 207.609977 56.373942 
L 209.241407 56.766828 
L 210.872837 69.106679 
L 212.504267 59.213818 
L 214.135697 56.665847 
L 215.767127 55.498225 
L 217.398556 55.20632 
L 219.029986 54.622509 
L 220.661416 55.498225 
L 222.292846 64.139541 
L 223.924276 56.373942 
L 225.555706 56.665847 
L 227.187136 56.373942 
L 228.818566 55.20632 
L 230.449995 57.541564 
L 232.081425 55.498225 
L 233.712855 55.498225 
L 235.344285 54.914414 
L 236.975715 58.125375 
L 238.607145 55.790131 
L 240.238575 56.766828 
L 241.870005 56.373942 
L 243.501434 54.914414 
L 245.132864 57.83347 
L 246.764294 56.665847 
L 248.395724 55.790131 
L 250.027154 59.213818 
L 251.658584 56.373942 
L 254.921444 55.20632 
L 256.552873 56.766828 
L 258.184303 54.914414 
L 259.815733 55.498225 
L 261.447163 55.20632 
L 263.078593 56.957753 
L 264.710023 56.082036 
L 266.341453 55.498225 
L 267.972883 57.541564 
L 269.604312 56.665847 
L 271.235742 56.082036 
L 272.867172 56.082036 
L 274.498602 55.498225 
L 276.130032 55.498225 
L 277.761462 54.622509 
L 279.392892 54.330603 
L 281.024322 54.330603 
L 282.655751 55.790131 
L 284.287181 57.541564 
L 285.918611 56.957753 
L 287.550041 57.541564 
L 289.181471 59.213818 
L 290.812901 56.373942 
L 292.444331 56.082036 
L 294.075761 57.83347 
L 295.70719 56.082036 
L 297.33862 57.249658 
L 298.97005 55.498225 
L 300.60148 54.622509 
L 302.23291 57.249658 
L 303.86434 56.082036 
L 305.49577 56.082036 
L 307.1272 56.957753 
L 308.75863 54.914414 
L 310.390059 54.330603 
L 312.021489 56.373942 
L 313.652919 66.618001 
L 315.284349 58.417281 
L 316.915779 54.622509 
L 318.547209 54.622509 
L 320.178639 66.618001 
L 321.810069 56.766828 
L 323.441498 56.957753 
L 325.072928 55.790131 
L 326.704358 54.330603 
L 328.335788 59.213818 
L 329.967218 55.20632 
L 331.598648 54.622509 
L 333.230078 54.622509 
L 334.861508 56.665847 
L 336.492937 54.330603 
L 338.124367 54.330603 
L 339.755797 58.125375 
L 341.387227 59.213818 
L 343.018657 54.330603 
L 344.650087 56.766828 
L 346.281517 56.665847 
L 347.912947 54.622509 
L 349.544376 56.665847 
L 351.175806 66.618001 
L 352.807236 54.622509 
L 354.438666 55.498225 
L 356.070096 55.20632 
L 357.701526 56.957753 
L 359.332956 64.139541 
L 360.964386 56.665847 
L 362.595815 55.20632 
L 364.227245 56.373942 
L 365.858675 55.498225 
L 367.490105 56.665847 
L 369.121535 54.330603 
L 370.752965 54.914414 
L 372.384395 55.20632 
L 374.015825 55.229307 
L 375.647254 54.735622 
L 377.278684 55.319433 
L 378.910114 56.19515 
L 380.541544 53.568 
L 382.172974 57.654677 
L 383.804404 55.611339 
L 385.435834 55.725501 
L 387.067264 55.611339 
L 388.698693 54.735622 
L 390.330123 55.027528 
L 391.961553 55.725501 
L 393.592983 54.151811 
L 395.224413 55.319433 
L 396.855843 55.611339 
L 398.487273 55.611339 
L 398.487273 55.611339 
" style="fill:none;stroke:#ff0000;stroke-linecap:square;stroke-width:1.5;"/>
   </g>
   <g id="patch_3">
    <path d="M 57.6 307.584 
L 57.6 41.472 
" style="fill:none;stroke:#000000;stroke-linecap:square;stroke-linejoin:miter;stroke-width:0.8;"/>
   </g>
   <g id="patch_4">
    <path d="M 414.72 307.584 
L 414.72 41.472 
" style="fill:none;stroke:#000000;stroke-linecap:square;stroke-linejoin:miter;stroke-width:0.8;"/>
   </g>
   <g id="patch_5">
    <path d="M 57.6 307.584 
L 414.72 307.584 
" style="fill:none;stroke:#000000;stroke-linecap:square;stroke-linejoin:miter;stroke-width:0.8;"/>
   </g>
   <g id="patch_6">
    <path d="M 57.6 41.472 
L 414.72 41.472 
" style="fill:none;stroke:#000000;stroke-linecap:square;stroke-linejoin:miter;stroke-width:0.8;"/>
   </g>
   <g id="text_19">
    <!-- Population's average and best fitness -->
    <g transform="translate(123.529687 35.472)scale(0.12 -0.12)">
     <defs>
      <path d="M 1259 4147 
L 1259 2394 
L 2053 2394 
Q 2494 2394 2734 2622 
Q 2975 2850 2975 3272 
Q 2975 3691 2734 3919 
Q 2494 4147 2053 4147 
L 1259 4147 
z
M 628 4666 
L 2053 4666 
Q 2838 4666 3239 4311 
Q 3641 3956 3641 3272 
Q 3641 2581 3239 2228 
Q 2838 1875 2053 1875 
L 1259 1875 
L 1259 0 
L 628 0 
L 628 4666 
z
" id="DejaVuSans-50" transform="scale(0.015625)"/>
      <path d="M 1159 525 
L 1159 -1331 
L 581 -1331 
L 581 3500 
L 1159 3500 
L 1159 2969 
Q 1341 3281 1617 3432 
Q 1894 3584 2278 3584 
Q 2916 3584 3314 3078 
Q 3713 2572 3713 1747 
Q 3713 922 3314 415 
Q 2916 -91 2278 -91 
Q 1894 -91 1617 61 
Q 1341 213 1159 525 
z
M 3116 1747 
Q 3116 2381 2855 2742 
Q 2594 3103 2138 3103 
Q 1681 3103 1420 2742 
Q 1159 2381 1159 1747 
Q 1159 1113 1420 752 
Q 1681 391 2138 391 
Q 2594 391 2855 752 
Q 3116 1113 3116 1747 
z
" id="DejaVuSans-70" transform="scale(0.015625)"/>
      <path d="M 544 1381 
L 544 3500 
L 1119 3500 
L 1119 1403 
Q 1119 906 1312 657 
Q 1506 409 1894 409 
Q 2359 409 2629 706 
Q 2900 1003 2900 1516 
L 2900 3500 
L 3475 3500 
L 3475 0 
L 2900 0 
L 2900 538 
Q 2691 219 2414 64 
Q 2138 -91 1772 -91 
Q 1169 -91 856 284 
Q 544 659 544 1381 
z
M 1991 3584 
L 1991 3584 
z
" id="DejaVuSans-75" transform="scale(0.015625)"/>
      <path d="M 603 4863 
L 1178 4863 
L 1178 0 
L 603 0 
L 603 4863 
z
" id="DejaVuSans-6c" transform="scale(0.015625)"/>
      <path d="M 1147 4666 
L 1147 2931 
L 616 2931 
L 616 4666 
L 1147 4666 
z
" id="DejaVuSans-27" transform="scale(0.015625)"/>
      <path id="DejaVuSans-20" transform="scale(0.015625)"/>
      <path d="M 191 3500 
L 800 3500 
L 1894 563 
L 2988 3500 
L 3597 3500 
L 2284 0 
L 1503 0 
L 191 3500 
z
" id="DejaVuSans-76" transform="scale(0.015625)"/>
      <path d="M 2906 1791 
Q 2906 2416 2648 2759 
Q 2391 3103 1925 3103 
Q 1463 3103 1205 2759 
Q 947 2416 947 1791 
Q 947 1169 1205 825 
Q 1463 481 1925 481 
Q 2391 481 2648 825 
Q 2906 1169 2906 1791 
z
M 3481 434 
Q 3481 -459 3084 -895 
Q 2688 -1331 1869 -1331 
Q 1566 -1331 1297 -1286 
Q 1028 -1241 775 -1147 
L 775 -588 
Q 1028 -725 1275 -790 
Q 1522 -856 1778 -856 
Q 2344 -856 2625 -561 
Q 2906 -266 2906 331 
L 2906 616 
Q 2728 306 2450 153 
Q 2172 0 1784 0 
Q 1141 0 747 490 
Q 353 981 353 1791 
Q 353 2603 747 3093 
Q 1141 3584 1784 3584 
Q 2172 3584 2450 3431 
Q 2728 3278 2906 2969 
L 2906 3500 
L 3481 3500 
L 3481 434 
z
" id="DejaVuSans-67" transform="scale(0.015625)"/>
      <path d="M 2906 2969 
L 2906 4863 
L 3481 4863 
L 3481 0 
L 2906 0 
L 2906 525 
Q 2725 213 2448 61 
Q 2172 -91 1784 -91 
Q 1150 -91 751 415 
Q 353 922 353 1747 
Q 353 2572 751 3078 
Q 1150 3584 1784 3584 
Q 2172 3584 2448 3432 
Q 2725 3281 2906 2969 
z
M 947 1747 
Q 947 1113 1208 752 
Q 1469 391 1925 391 
Q 2381 391 2643 752 
Q 2906 1113 2906 1747 
Q 2906 2381 2643 2742 
Q 2381 3103 1925 3103 
Q 1469 3103 1208 2742 
Q 947 2381 947 1747 
z
" id="DejaVuSans-64" transform="scale(0.015625)"/>
      <path d="M 3116 1747 
Q 3116 2381 2855 2742 
Q 2594 3103 2138 3103 
Q 1681 3103 1420 2742 
Q 1159 2381 1159 1747 
Q 1159 1113 1420 752 
Q 1681 391 2138 391 
Q 2594 391 2855 752 
Q 3116 1113 3116 1747 
z
M 1159 2969 
Q 1341 3281 1617 3432 
Q 1894 3584 2278 3584 
Q 2916 3584 3314 3078 
Q 3713 2572 3713 1747 
Q 3713 922 3314 415 
Q 2916 -91 2278 -91 
Q 1894 -91 1617 61 
Q 1341 213 1159 525 
L 1159 0 
L 581 0 
L 581 4863 
L 1159 4863 
L 1159 2969 
z
" id="DejaVuSans-62" transform="scale(0.015625)"/>
      <path d="M 2375 4863 
L 2375 4384 
L 1825 4384 
Q 1516 4384 1395 4259 
Q 1275 4134 1275 3809 
L 1275 3500 
L 2222 3500 
L 2222 3053 
L 1275 3053 
L 1275 0 
L 697 0 
L 697 3053 
L 147 3053 
L 147 3500 
L 697 3500 
L 697 3744 
Q 697 4328 969 4595 
Q 1241 4863 1831 4863 
L 2375 4863 
z
" id="DejaVuSans-66" transform="scale(0.015625)"/>
     </defs>
     <use xlink:href="#DejaVuSans-50"/>
     <use x="56.677734" xlink:href="#DejaVuSans-6f"/>
     <use x="117.859375" xlink:href="#DejaVuSans-70"/>
     <use x="181.335938" xlink:href="#DejaVuSans-75"/>
     <use x="244.714844" xlink:href="#DejaVuSans-6c"/>
     <use x="272.498047" xlink:href="#DejaVuSans-61"/>
     <use x="333.777344" xlink:href="#DejaVuSans-74"/>
     <use x="372.986328" xlink:href="#DejaVuSans-69"/>
     <use x="400.769531" xlink:href="#DejaVuSans-6f"/>
     <use x="461.951172" xlink:href="#DejaVuSans-6e"/>
     <use x="525.330078" xlink:href="#DejaVuSans-27"/>
     <use x="552.820312" xlink:href="#DejaVuSans-73"/>
     <use x="604.919922" xlink:href="#DejaVuSans-20"/>
     <use x="636.707031" xlink:href="#DejaVuSans-61"/>
     <use x="697.986328" xlink:href="#DejaVuSans-76"/>
     <use x="757.166016" xlink:href="#DejaVuSans-65"/>
     <use x="818.689453" xlink:href="#DejaVuSans-72"/>
     <use x="859.802734" xlink:href="#DejaVuSans-61"/>
     <use x="921.082031" xlink:href="#DejaVuSans-67"/>
     <use x="984.558594" xlink:href="#DejaVuSans-65"/>
     <use x="1046.082031" xlink:href="#DejaVuSans-20"/>
     <use x="1077.869141" xlink:href="#DejaVuSans-61"/>
     <use x="1139.148438" xlink:href="#DejaVuSans-6e"/>
     <use x="1202.527344" xlink:href="#DejaVuSans-64"/>
     <use x="1266.003906" xlink:href="#DejaVuSans-20"/>
     <use x="1297.791016" xlink:href="#DejaVuSans-62"/>
     <use x="1361.267578" xlink:href="#DejaVuSans-65"/>
     <use x="1422.791016" xlink:href="#DejaVuSans-73"/>
     <use x="1474.890625" xlink:href="#DejaVuSans-74"/>
     <use x="1514.099609" xlink:href="#DejaVuSans-20"/>
     <use x="1545.886719" xlink:href="#DejaVuSans-66"/>
     <use x="1581.091797" xlink:href="#DejaVuSans-69"/>
     <use x="1608.875" xlink:href="#DejaVuSans-74"/>
     <use x="1648.083984" xlink:href="#DejaVuSans-6e"/>
     <use x="1711.462891" xlink:href="#DejaVuSans-65"/>
     <use x="1772.986328" xlink:href="#DejaVuSans-73"/>
     <use x="1825.085938" xlink:href="#DejaVuSans-73"/>
    </g>
   </g>
   <g id="legend_1">
    <g id="patch_7">
     <path d="M 64.6 108.1845 
L 137.540625 108.1845 
Q 139.540625 108.1845 139.540625 106.1845 
L 139.540625 48.472 
Q 139.540625 46.472 137.540625 46.472 
L 64.6 46.472 
Q 62.6 46.472 62.6 48.472 
L 62.6 106.1845 
Q 62.6 108.1845 64.6 108.1845 
z
" style="fill:#ffffff;opacity:0.8;stroke:#cccccc;stroke-linejoin:miter;"/>
    </g>
    <g id="line2d_37">
     <path d="M 66.6 54.570438 
L 86.6 54.570438 
" style="fill:none;stroke:#0000ff;stroke-linecap:square;stroke-width:1.5;"/>
    </g>
    <g id="line2d_38"/>
    <g id="text_20">
     <!-- average -->
     <g transform="translate(94.6 58.070438)scale(0.1 -0.1)">
      <use xlink:href="#DejaVuSans-61"/>
      <use x="61.279297" xlink:href="#DejaVuSans-76"/>
      <use x="120.458984" xlink:href="#DejaVuSans-65"/>
      <use x="181.982422" xlink:href="#DejaVuSans-72"/>
      <use x="223.095703" xlink:href="#DejaVuSans-61"/>
      <use x="284.375" xlink:href="#DejaVuSans-67"/>
      <use x="347.851562" xlink:href="#DejaVuSans-65"/>
     </g>
    </g>
    <g id="line2d_39">
     <path d="M 66.6 69.248563 
L 86.6 69.248563 
" style="fill:none;stroke:#008000;stroke-dasharray:9.6,2.4,1.5,2.4;stroke-dashoffset:0;stroke-width:1.5;"/>
    </g>
    <g id="line2d_40"/>
    <g id="text_21">
     <!-- -1 sd -->
     <g transform="translate(94.6 72.748563)scale(0.1 -0.1)">
      <defs>
       <path d="M 313 2009 
L 1997 2009 
L 1997 1497 
L 313 1497 
L 313 2009 
z
" id="DejaVuSans-2d" transform="scale(0.015625)"/>
      </defs>
      <use xlink:href="#DejaVuSans-2d"/>
      <use x="36.083984" xlink:href="#DejaVuSans-31"/>
      <use x="99.707031" xlink:href="#DejaVuSans-20"/>
      <use x="131.494141" xlink:href="#DejaVuSans-73"/>
      <use x="183.59375" xlink:href="#DejaVuSans-64"/>
     </g>
    </g>
    <g id="line2d_41">
     <path d="M 66.6 83.926688 
L 86.6 83.926688 
" style="fill:none;stroke:#008000;stroke-dasharray:9.6,2.4,1.5,2.4;stroke-dashoffset:0;stroke-width:1.5;"/>
    </g>
    <g id="line2d_42"/>
    <g id="text_22">
     <!-- +1 sd -->
     <g transform="translate(94.6 87.426688)scale(0.1 -0.1)">
      <defs>
       <path d="M 2944 4013 
L 2944 2272 
L 4684 2272 
L 4684 1741 
L 2944 1741 
L 2944 0 
L 2419 0 
L 2419 1741 
L 678 1741 
L 678 2272 
L 2419 2272 
L 2419 4013 
L 2944 4013 
z
" id="DejaVuSans-2b" transform="scale(0.015625)"/>
      </defs>
      <use xlink:href="#DejaVuSans-2b"/>
      <use x="83.789062" xlink:href="#DejaVuSans-31"/>
      <use x="147.412109" xlink:href="#DejaVuSans-20"/>
      <use x="179.199219" xlink:href="#DejaVuSans-73"/>
      <use x="231.298828" xlink:href="#DejaVuSans-64"/>
     </g>
    </g>
    <g id="line2d_43">
     <path d="M 66.6 98.604813 
L 86.6 98.604813 
" style="fill:none;stroke:#ff0000;stroke-linecap:square;stroke-width:1.5;"/>
    </g>
    <g id="line2d_44"/>
    <g id="text_23">
     <!-- best -->
     <g transform="translate(94.6 102.104813)scale(0.1 -0.1)">
      <use xlink:href="#DejaVuSans-62"/>
      <use x="63.476562" xlink:href="#DejaVuSans-65"/>
      <use x="125" xlink:href="#DejaVuSans-73"/>
      <use x="177.099609" xlink:href="#DejaVuSans-74"/>
     </g>
    </g>
   </g>
  </g>
 </g>
 <defs>
  <clipPath id="p1874f5e17f">
   <rect height="266.112" width="357.12" x="57.6" y="41.472"/>
  </clipPath>
 </defs>
</svg>
