<?xml version="1.0" encoding="UTF-8" standalone="no"?>
<!DOCTYPE svg PUBLIC "-//W3C//DTD SVG 1.1//EN"
 "http://www.w3.org/Graphics/SVG/1.1/DTD/svg11.dtd">
<!-- Generated by graphviz version 4.0.0 (20220529.0937)
 -->
<!-- Pages: 1 -->
<svg width="632pt" height="294pt"
 viewBox="0.00 0.00 632.43 293.81" xmlns="http://www.w3.org/2000/svg" xmlns:xlink="http://www.w3.org/1999/xlink">
<g id="graph0" class="graph" transform="scale(1 1) rotate(0) translate(4 289.81)">
<polygon fill="white" stroke="transparent" points="-4,4 -4,-289.81 628.43,-289.81 628.43,4 -4,4"/>
<!-- &#45;1 -->
<g id="node1" class="node">
<title>&#45;1</title>
<polygon fill="lightgray" stroke="black" points="507.21,-285.81 483.21,-285.81 483.21,-267.81 507.21,-267.81 507.21,-285.81"/>
<text text-anchor="middle" x="495.21" y="-274.61" font-family="Times New Roman,serif" font-size="9.00">&#45;1</text>
</g>
<!-- 112 -->
<g id="node15" class="node">
<title>112</title>
<ellipse fill="white" stroke="black" cx="343.21" cy="-132.17" rx="21.43" ry="21.43"/>
<text text-anchor="middle" x="343.21" y="-129.97" font-family="Times New Roman,serif" font-size="9.00">112</text>
</g>
<!-- &#45;1&#45;&gt;112 -->
<g id="edge1" class="edge">
<title>&#45;1&#45;&gt;112</title>
<path fill="none" stroke="green" stroke-width="0.21" stroke-dasharray="1,5" d="M501.08,-267.56C512.01,-251.11 532.84,-213.69 515.21,-189.38 483.04,-145.02 414.87,-135.01 374.69,-133.14"/>
<polygon fill="green" stroke="green" stroke-width="0.21" points="374.74,-129.64 364.63,-132.81 374.51,-136.64 374.74,-129.64"/>
</g>
<!-- 113 -->
<g id="node16" class="node">
<title>113</title>
<ellipse fill="white" stroke="black" cx="223.21" cy="-132.17" rx="21.43" ry="21.43"/>
<text text-anchor="middle" x="223.21" y="-129.97" font-family="Times New Roman,serif" font-size="9.00">113</text>
</g>
<!-- &#45;1&#45;&gt;113 -->
<g id="edge2" class="edge">
<title>&#45;1&#45;&gt;113</title>
<path fill="none" stroke="red" stroke-width="0.1" d="M483.05,-275.29C422.05,-272.59 151.45,-259.12 127.21,-231.81 114.7,-217.7 117.84,-205.74 127.21,-189.38 141.27,-164.86 170.63,-150 193.2,-141.78"/>
<polygon fill="red" stroke="red" stroke-width="0.1" points="194.36,-145.08 202.7,-138.55 192.11,-138.45 194.36,-145.08"/>
</g>
<!-- 114 -->
<g id="node17" class="node">
<title>114</title>
<ellipse fill="white" stroke="black" cx="283.21" cy="-132.17" rx="21.43" ry="21.43"/>
<text text-anchor="middle" x="283.21" y="-129.97" font-family="Times New Roman,serif" font-size="9.00">114</text>
</g>
<!-- &#45;1&#45;&gt;114 -->
<g id="edge3" class="edge">
<title>&#45;1&#45;&gt;114</title>
<path fill="none" stroke="red" stroke-width="0.12" d="M487.68,-267.73C471.97,-251.24 434.02,-213.26 396.21,-189.38 362.22,-167.9 348.48,-172.7 313.21,-153.38 311.7,-152.55 310.16,-151.67 308.63,-150.75"/>
<polygon fill="red" stroke="red" stroke-width="0.12" points="310.32,-147.68 300.01,-145.27 306.57,-153.59 310.32,-147.68"/>
</g>
<!-- 215 -->
<g id="node18" class="node">
<title>215</title>
<ellipse fill="white" stroke="black" cx="603.21" cy="-210.59" rx="21.43" ry="21.43"/>
<text text-anchor="middle" x="603.21" y="-208.39" font-family="Times New Roman,serif" font-size="9.00">215</text>
</g>
<!-- &#45;1&#45;&gt;215 -->
<g id="edge39" class="edge">
<title>&#45;1&#45;&gt;215</title>
<path fill="none" stroke="red" stroke-width="0.13" d="M507.6,-268.44C524.28,-258.52 554.39,-240.62 576.38,-227.55"/>
<polygon fill="red" stroke="red" stroke-width="0.13" points="578.44,-230.4 585.24,-222.28 574.86,-224.38 578.44,-230.4"/>
</g>
<!-- &#45;2 -->
<g id="node2" class="node">
<title>&#45;2</title>
<polygon fill="lightgray" stroke="black" points="488.21,-219.59 464.21,-219.59 464.21,-201.59 488.21,-201.59 488.21,-219.59"/>
<text text-anchor="middle" x="476.21" y="-208.39" font-family="Times New Roman,serif" font-size="9.00">&#45;2</text>
</g>
<!-- &#45;2&#45;&gt;112 -->
<g id="edge4" class="edge">
<title>&#45;2&#45;&gt;112</title>
<path fill="none" stroke="green" stroke-width="0.16" stroke-dasharray="1,5" d="M466.39,-201.29C461.65,-197.46 455.79,-192.97 450.21,-189.38 424.55,-172.85 393.5,-156.95 371.48,-146.31"/>
<polygon fill="green" stroke="green" stroke-width="0.16" points="372.87,-143.1 362.34,-141.94 369.85,-149.41 372.87,-143.1"/>
</g>
<!-- &#45;2&#45;&gt;113 -->
<g id="edge5" class="edge">
<title>&#45;2&#45;&gt;113</title>
<path fill="none" stroke="red" stroke-width="0.14" d="M464.18,-207.13C423.67,-198.76 292.5,-170.92 253.21,-153.38 251.64,-152.68 250.05,-151.89 248.48,-151.05"/>
<polygon fill="red" stroke="red" stroke-width="0.14" points="250.12,-147.95 239.75,-145.79 246.51,-153.95 250.12,-147.95"/>
</g>
<!-- &#45;2&#45;&gt;114 -->
<g id="edge6" class="edge">
<title>&#45;2&#45;&gt;114</title>
<path fill="none" stroke="green" stroke-width="0.11" d="M467.67,-201.52C462.87,-197.36 456.57,-192.52 450.21,-189.38 393.77,-161.49 370.57,-179.33 313.21,-153.38 311.64,-152.67 310.06,-151.88 308.49,-151.03"/>
<polygon fill="green" stroke="green" stroke-width="0.11" points="310.13,-147.93 299.76,-145.75 306.51,-153.92 310.13,-147.93"/>
</g>
<!-- &#45;3 -->
<g id="node3" class="node">
<title>&#45;3</title>
<polygon fill="lightgray" stroke="black" points="202.21,-219.59 178.21,-219.59 178.21,-201.59 202.21,-201.59 202.21,-219.59"/>
<text text-anchor="middle" x="190.21" y="-208.39" font-family="Times New Roman,serif" font-size="9.00">&#45;3</text>
</g>
<!-- &#45;3&#45;&gt;112 -->
<g id="edge7" class="edge">
<title>&#45;3&#45;&gt;112</title>
<path fill="none" stroke="red" stroke-width="0.19" d="M197.32,-201.24C201.11,-197.21 206.05,-192.57 211.21,-189.38 252.13,-164.14 270.27,-174.98 313.21,-153.38 314.76,-152.6 316.31,-151.76 317.86,-150.88"/>
<polygon fill="red" stroke="red" stroke-width="0.19" points="319.89,-153.74 326.54,-145.49 316.19,-147.79 319.89,-153.74"/>
</g>
<!-- &#45;3&#45;&gt;113 -->
<g id="edge8" class="edge">
<title>&#45;3&#45;&gt;113</title>
<path fill="none" stroke="red" stroke-width="0.19" d="M193.74,-201.41C197.85,-191.9 204.85,-175.68 211,-161.45"/>
<polygon fill="red" stroke="red" stroke-width="0.19" points="214.33,-162.58 215.08,-152.01 207.9,-159.8 214.33,-162.58"/>
</g>
<!-- &#45;3&#45;&gt;114 -->
<g id="edge9" class="edge">
<title>&#45;3&#45;&gt;114</title>
<path fill="none" stroke="green" stroke-width="0.17" d="M198.21,-201.52C202.05,-197.74 206.78,-193.23 211.21,-189.38 226.39,-176.21 244.18,-162.31 258.28,-151.62"/>
<polygon fill="green" stroke="green" stroke-width="0.17" points="260.64,-154.23 266.53,-145.42 256.43,-148.64 260.64,-154.23"/>
</g>
<!-- &#45;4 -->
<g id="node4" class="node">
<title>&#45;4</title>
<polygon fill="lightgray" stroke="black" points="244.21,-219.59 220.21,-219.59 220.21,-201.59 244.21,-201.59 244.21,-219.59"/>
<text text-anchor="middle" x="232.21" y="-208.39" font-family="Times New Roman,serif" font-size="9.00">&#45;4</text>
</g>
<!-- &#45;4&#45;&gt;112 -->
<g id="edge10" class="edge">
<title>&#45;4&#45;&gt;112</title>
<path fill="none" stroke="green" stroke-width="0.17" d="M240,-201.27C243.8,-197.43 248.55,-192.95 253.21,-189.38 277.91,-170.48 286.98,-170.07 313.21,-153.38 314.67,-152.45 316.16,-151.49 317.66,-150.51"/>
<polygon fill="green" stroke="green" stroke-width="0.17" points="319.78,-153.31 326.18,-144.87 315.91,-147.47 319.78,-153.31"/>
</g>
<!-- &#45;4&#45;&gt;113 -->
<g id="edge11" class="edge">
<title>&#45;4&#45;&gt;113</title>
<path fill="none" stroke="red" stroke-width="0.23" d="M231.25,-201.41C230.18,-192.33 228.39,-177.13 226.77,-163.38"/>
<polygon fill="red" stroke="red" stroke-width="0.23" points="230.23,-162.79 225.58,-153.27 223.27,-163.61 230.23,-162.79"/>
</g>
<!-- &#45;4&#45;&gt;114 -->
<g id="edge12" class="edge">
<title>&#45;4&#45;&gt;114</title>
<path fill="none" stroke="green" stroke-width="0.13" d="M237.67,-201.41C244.46,-191.24 256.37,-173.4 266.3,-158.51"/>
<polygon fill="green" stroke="green" stroke-width="0.13" points="269.23,-160.42 271.87,-150.16 263.41,-156.54 269.23,-160.42"/>
</g>
<!-- &#45;5 -->
<g id="node5" class="node">
<title>&#45;5</title>
<polygon fill="lightgray" stroke="black" points="286.21,-219.59 262.21,-219.59 262.21,-201.59 286.21,-201.59 286.21,-219.59"/>
<text text-anchor="middle" x="274.21" y="-208.39" font-family="Times New Roman,serif" font-size="9.00">&#45;5</text>
</g>
<!-- &#45;5&#45;&gt;112 -->
<g id="edge13" class="edge">
<title>&#45;5&#45;&gt;112</title>
<path fill="none" stroke="green" stroke-width="0.16" d="M281.6,-201.41C291.31,-190.66 308.76,-171.33 322.62,-155.98"/>
<polygon fill="green" stroke="green" stroke-width="0.16" points="325.37,-158.15 329.48,-148.38 320.18,-153.46 325.37,-158.15"/>
</g>
<!-- &#45;5&#45;&gt;113 -->
<g id="edge14" class="edge">
<title>&#45;5&#45;&gt;113</title>
<path fill="none" stroke="green" stroke-width="0.17" d="M268.76,-201.41C261.97,-191.24 250.06,-173.4 240.12,-158.51"/>
<polygon fill="green" stroke="green" stroke-width="0.17" points="243.02,-156.54 234.56,-150.16 237.19,-160.42 243.02,-156.54"/>
</g>
<!-- &#45;5&#45;&gt;114 -->
<g id="edge15" class="edge">
<title>&#45;5&#45;&gt;114</title>
<path fill="none" stroke="red" stroke-width="0.13" d="M275.18,-201.41C276.25,-192.33 278.04,-177.13 279.66,-163.38"/>
<polygon fill="red" stroke="red" stroke-width="0.13" points="283.15,-163.61 280.85,-153.27 276.2,-162.79 283.15,-163.61"/>
</g>
<!-- &#45;6 -->
<g id="node6" class="node">
<title>&#45;6</title>
<polygon fill="lightgray" stroke="black" points="303.21,-285.81 279.21,-285.81 279.21,-267.81 303.21,-267.81 303.21,-285.81"/>
<text text-anchor="middle" x="291.21" y="-274.61" font-family="Times New Roman,serif" font-size="9.00">&#45;6</text>
</g>
<!-- 233 -->
<g id="node14" class="node">
<title>233</title>
<ellipse fill="white" stroke="black" cx="21.21" cy="-210.59" rx="21.43" ry="21.43"/>
<text text-anchor="middle" x="21.21" y="-208.39" font-family="Times New Roman,serif" font-size="9.00">233</text>
</g>
<!-- &#45;6&#45;&gt;233 -->
<g id="edge41" class="edge">
<title>&#45;6&#45;&gt;233</title>
<path fill="none" stroke="green" stroke-width="0.32" d="M279.1,-274.98C243.73,-272.29 137.96,-262.06 56.21,-231.81 53.28,-230.72 50.31,-229.4 47.4,-227.96"/>
<polygon fill="green" stroke="green" stroke-width="0.32" points="48.9,-224.8 38.45,-223.09 45.56,-230.94 48.9,-224.8"/>
</g>
<!-- &#45;6&#45;&gt;112 -->
<g id="edge16" class="edge">
<title>&#45;6&#45;&gt;112</title>
<path fill="none" stroke="green" stroke-width="0.16" d="M303.47,-275.13C343.99,-272.63 472.49,-262.37 497.21,-231.81 509.07,-217.15 508.02,-204.83 497.21,-189.38 469.52,-149.79 410.85,-137.99 374.45,-134.53"/>
<polygon fill="green" stroke="green" stroke-width="0.16" points="374.62,-131.03 364.37,-133.73 374.07,-138.01 374.62,-131.03"/>
</g>
<!-- &#45;6&#45;&gt;113 -->
<g id="edge17" class="edge">
<title>&#45;6&#45;&gt;113</title>
<path fill="none" stroke="red" stroke-width="0.17" stroke-dasharray="1,5" d="M278.94,-275C239.57,-272.15 117.66,-261.07 94.21,-231.81 82.42,-217.09 83.88,-205.15 94.21,-189.38 115.77,-156.48 161.24,-142.72 192.02,-137.05"/>
<polygon fill="red" stroke="red" stroke-width="0.17" points="192.93,-140.45 202.23,-135.36 191.79,-133.54 192.93,-140.45"/>
</g>
<!-- &#45;6&#45;&gt;114 -->
<g id="edge18" class="edge">
<title>&#45;6&#45;&gt;114</title>
<path fill="none" stroke="red" stroke-width="0.17" d="M303.29,-273.86C323.21,-269.93 362.42,-258.98 379.21,-231.81 389.13,-215.77 388.84,-205.59 379.21,-189.38 362.16,-160.65 341.77,-170.73 313.21,-153.38 311.74,-152.48 310.23,-151.55 308.72,-150.59"/>
<polygon fill="red" stroke="red" stroke-width="0.17" points="310.45,-147.54 300.17,-144.99 306.62,-153.39 310.45,-147.54"/>
</g>
<!-- &#45;7 -->
<g id="node7" class="node">
<title>&#45;7</title>
<polygon fill="lightgray" stroke="black" points="370.21,-219.59 346.21,-219.59 346.21,-201.59 370.21,-201.59 370.21,-219.59"/>
<text text-anchor="middle" x="358.21" y="-208.39" font-family="Times New Roman,serif" font-size="9.00">&#45;7</text>
</g>
<!-- &#45;7&#45;&gt;112 -->
<g id="edge19" class="edge">
<title>&#45;7&#45;&gt;112</title>
<path fill="none" stroke="red" stroke-width="0.15" d="M356.61,-201.41C354.83,-192.33 351.84,-177.13 349.14,-163.38"/>
<polygon fill="red" stroke="red" stroke-width="0.15" points="352.52,-162.41 347.16,-153.27 345.65,-163.76 352.52,-162.41"/>
</g>
<!-- &#45;7&#45;&gt;113 -->
<g id="edge20" class="edge">
<title>&#45;7&#45;&gt;113</title>
<path fill="none" stroke="green" stroke-width="0.23" d="M351.01,-201.38C347.2,-197.39 342.27,-192.74 337.21,-189.38 303.36,-166.93 288.88,-172.81 253.21,-153.38 251.7,-152.55 250.16,-151.67 248.62,-150.76"/>
<polygon fill="green" stroke="green" stroke-width="0.23" points="250.32,-147.68 240,-145.28 246.57,-153.6 250.32,-147.68"/>
</g>
<!-- &#45;7&#45;&gt;114 -->
<g id="edge21" class="edge">
<title>&#45;7&#45;&gt;114</title>
<path fill="none" stroke="green" stroke-width="0.14" d="M350.19,-201.41C339.41,-190.43 319.84,-170.49 304.63,-154.99"/>
<polygon fill="green" stroke="green" stroke-width="0.14" points="307.08,-152.49 297.57,-147.8 302.08,-157.39 307.08,-152.49"/>
</g>
<!-- &#45;8 -->
<g id="node8" class="node">
<title>&#45;8</title>
<polygon fill="lightgray" stroke="black" points="328.21,-219.59 304.21,-219.59 304.21,-201.59 328.21,-201.59 328.21,-219.59"/>
<text text-anchor="middle" x="316.21" y="-208.39" font-family="Times New Roman,serif" font-size="9.00">&#45;8</text>
</g>
<!-- &#45;8&#45;&gt;112 -->
<g id="edge22" class="edge">
<title>&#45;8&#45;&gt;112</title>
<path fill="none" stroke="red" stroke-width="0.2" d="M319.1,-201.41C322.41,-192.06 328.01,-176.21 332.98,-162.14"/>
<polygon fill="red" stroke="red" stroke-width="0.2" points="336.41,-162.92 336.45,-152.32 329.81,-160.59 336.41,-162.92"/>
</g>
<!-- &#45;8&#45;&gt;113 -->
<g id="edge23" class="edge">
<title>&#45;8&#45;&gt;113</title>
<path fill="none" stroke="green" stroke-width="0.24" stroke-dasharray="1,5" d="M308.22,-201.52C304.37,-197.74 299.65,-193.23 295.21,-189.38 280.04,-176.21 262.24,-162.31 248.15,-151.62"/>
<polygon fill="green" stroke="green" stroke-width="0.24" points="250,-148.64 239.9,-145.42 245.79,-154.23 250,-148.64"/>
</g>
<!-- &#45;8&#45;&gt;114 -->
<g id="edge24" class="edge">
<title>&#45;8&#45;&gt;114</title>
<path fill="none" stroke="green" stroke-width="0.12" d="M312.68,-201.41C308.57,-191.9 301.57,-175.68 295.42,-161.45"/>
<polygon fill="green" stroke="green" stroke-width="0.12" points="298.53,-159.8 291.35,-152.01 292.1,-162.58 298.53,-159.8"/>
</g>
<!-- &#45;9 -->
<g id="node9" class="node">
<title>&#45;9</title>
<polygon fill="lightgray" stroke="black" points="160.21,-219.59 136.21,-219.59 136.21,-201.59 160.21,-201.59 160.21,-219.59"/>
<text text-anchor="middle" x="148.21" y="-208.39" font-family="Times New Roman,serif" font-size="9.00">&#45;9</text>
</g>
<!-- Forward -->
<g id="node10" class="node">
<title>Forward</title>
<ellipse fill="lightblue" stroke="black" cx="179.21" cy="-37.48" rx="33.47" ry="33.47"/>
<text text-anchor="middle" x="179.21" y="-35.28" font-family="Times New Roman,serif" font-size="9.00">Forward</text>
</g>
<!-- &#45;9&#45;&gt;Forward -->
<g id="edge43" class="edge">
<title>&#45;9&#45;&gt;Forward</title>
<path fill="none" stroke="green" stroke-width="0.18" d="M149.71,-201.34C153.6,-179.86 164.25,-121.07 171.63,-80.33"/>
<polygon fill="green" stroke="green" stroke-width="0.18" points="175.09,-80.87 173.43,-70.4 168.2,-79.62 175.09,-80.87"/>
</g>
<!-- &#45;9&#45;&gt;112 -->
<g id="edge25" class="edge">
<title>&#45;9&#45;&gt;112</title>
<path fill="none" stroke="green" stroke-width="0.17" d="M154.83,-201.44C158.63,-197.26 163.72,-192.42 169.21,-189.38 226.93,-157.43 252.95,-180.22 313.21,-153.38 314.79,-152.68 316.38,-151.89 317.95,-151.05"/>
<polygon fill="green" stroke="green" stroke-width="0.17" points="319.92,-153.95 326.68,-145.79 316.31,-147.95 319.92,-153.95"/>
</g>
<!-- &#45;9&#45;&gt;113 -->
<g id="edge26" class="edge">
<title>&#45;9&#45;&gt;113</title>
<path fill="none" stroke="red" stroke-width="0.17" d="M156.24,-201.41C167.02,-190.43 186.58,-170.49 201.79,-154.99"/>
<polygon fill="red" stroke="red" stroke-width="0.17" points="204.35,-157.39 208.85,-147.8 199.35,-152.49 204.35,-157.39"/>
</g>
<!-- &#45;9&#45;&gt;114 -->
<g id="edge27" class="edge">
<title>&#45;9&#45;&gt;114</title>
<path fill="none" stroke="green" stroke-width="0.17" d="M155.41,-201.38C159.22,-197.39 164.15,-192.74 169.21,-189.38 203.06,-166.93 217.55,-172.81 253.21,-153.38 254.73,-152.55 256.27,-151.67 257.8,-150.76"/>
<polygon fill="green" stroke="green" stroke-width="0.17" points="259.86,-153.6 266.43,-145.28 256.11,-147.68 259.86,-153.6"/>
</g>
<!-- Backward -->
<g id="node11" class="node">
<title>Backward</title>
<ellipse fill="lightblue" stroke="black" cx="400.21" cy="-37.48" rx="37.45" ry="37.45"/>
<text text-anchor="middle" x="400.21" y="-35.28" font-family="Times New Roman,serif" font-size="9.00">Backward</text>
</g>
<!-- Left -->
<g id="node12" class="node">
<title>Left</title>
<ellipse fill="lightblue" stroke="black" cx="322.21" cy="-37.48" rx="22.76" ry="22.76"/>
<text text-anchor="middle" x="322.21" y="-35.28" font-family="Times New Roman,serif" font-size="9.00">Left</text>
</g>
<!-- Right -->
<g id="node13" class="node">
<title>Right</title>
<ellipse fill="lightblue" stroke="black" cx="256.21" cy="-37.48" rx="25.41" ry="25.41"/>
<text text-anchor="middle" x="256.21" y="-35.28" font-family="Times New Roman,serif" font-size="9.00">Right</text>
</g>
<!-- 233&#45;&gt;113 -->
<g id="edge42" class="edge">
<title>233&#45;&gt;113</title>
<path fill="none" stroke="green" stroke-width="0.12" d="M39.02,-198.4C44.42,-195.25 50.46,-191.98 56.21,-189.38 102.58,-168.44 159.18,-150.98 193.15,-141.32"/>
<polygon fill="green" stroke="green" stroke-width="0.12" points="194.24,-144.65 202.93,-138.58 192.35,-137.91 194.24,-144.65"/>
</g>
<!-- 112&#45;&gt;Forward -->
<g id="edge28" class="edge">
<title>112&#45;&gt;Forward</title>
<path fill="none" stroke="green" stroke-width="0.17" d="M326.47,-118.96C322.26,-116.15 317.66,-113.29 313.21,-110.95 274.73,-90.68 259.52,-97.32 222.21,-74.95 218.53,-72.74 214.85,-70.22 211.27,-67.56"/>
<polygon fill="green" stroke="green" stroke-width="0.17" points="213.19,-64.61 203.17,-61.16 208.85,-70.11 213.19,-64.61"/>
</g>
<!-- 112&#45;&gt;Backward -->
<g id="edge29" class="edge">
<title>112&#45;&gt;Backward</title>
<path fill="none" stroke="red" stroke-width="0.17" d="M353.93,-113.73C360.06,-103.77 368.01,-90.85 375.58,-78.53"/>
<polygon fill="red" stroke="red" stroke-width="0.17" points="378.75,-80.07 381,-69.72 372.78,-76.4 378.75,-80.07"/>
</g>
<!-- 112&#45;&gt;Left -->
<g id="edge30" class="edge">
<title>112&#45;&gt;Left</title>
<path fill="none" stroke="red" stroke-width="0.26" d="M338.66,-111.05C335.93,-99 332.4,-83.43 329.31,-69.79"/>
<polygon fill="red" stroke="red" stroke-width="0.26" points="332.68,-68.82 327.05,-59.84 325.85,-70.37 332.68,-68.82"/>
</g>
<!-- 112&#45;&gt;Right -->
<g id="edge31" class="edge">
<title>112&#45;&gt;Right</title>
<path fill="none" stroke="red" stroke-width="0.14" d="M328.79,-115.92C318.12,-104.62 303.24,-88.85 290.21,-74.95 286.91,-71.43 283.43,-67.71 280.01,-64.04"/>
<polygon fill="red" stroke="red" stroke-width="0.14" points="282.52,-61.6 273.14,-56.68 277.4,-66.38 282.52,-61.6"/>
</g>
<!-- 113&#45;&gt;Forward -->
<g id="edge32" class="edge">
<title>113&#45;&gt;Forward</title>
<path fill="none" stroke="red" stroke-width="0.24" d="M214.31,-112.41C209.47,-102.21 203.29,-89.2 197.48,-76.95"/>
<polygon fill="red" stroke="red" stroke-width="0.24" points="200.58,-75.33 193.13,-67.79 194.26,-78.33 200.58,-75.33"/>
</g>
<!-- 113&#45;&gt;Left -->
<g id="edge33" class="edge">
<title>113&#45;&gt;Left</title>
<path fill="none" stroke="red" stroke-width="0.17" d="M239.79,-118.43C253.73,-107.44 273.93,-90.88 290.21,-74.95 293.96,-71.29 297.77,-67.26 301.39,-63.25"/>
<polygon fill="red" stroke="red" stroke-width="0.17" points="304.09,-65.49 308.07,-55.67 298.84,-60.86 304.09,-65.49"/>
</g>
<!-- 113&#45;&gt;Right -->
<g id="edge34" class="edge">
<title>113&#45;&gt;Right</title>
<path fill="none" stroke="green" stroke-width="0.12" d="M230.05,-111.96C234.24,-100.18 239.72,-84.8 244.58,-71.15"/>
<polygon fill="green" stroke="green" stroke-width="0.12" points="247.93,-72.19 247.98,-61.59 241.33,-69.84 247.93,-72.19"/>
</g>
<!-- 114&#45;&gt;Forward -->
<g id="edge35" class="edge">
<title>114&#45;&gt;Forward</title>
<path fill="none" stroke="green" stroke-width="0.11" d="M267.87,-117.49C253.13,-104.36 230.41,-84.11 211.66,-67.4"/>
<polygon fill="green" stroke="green" stroke-width="0.11" points="213.7,-64.52 203.91,-60.48 209.04,-69.75 213.7,-64.52"/>
</g>
<!-- 114&#45;&gt;Backward -->
<g id="edge36" class="edge">
<title>114&#45;&gt;Backward</title>
<path fill="none" stroke="green" stroke-width="0.26" d="M299.57,-118.22C313.96,-106.83 335.48,-89.79 354.21,-74.95 357.1,-72.67 360.09,-70.3 363.09,-67.92"/>
<polygon fill="green" stroke="green" stroke-width="0.26" points="365.35,-70.59 371.01,-61.64 361,-65.11 365.35,-70.59"/>
</g>
<!-- 114&#45;&gt;Left -->
<g id="edge37" class="edge">
<title>114&#45;&gt;Left</title>
<path fill="none" stroke="green" stroke-width="0.11" d="M291.11,-112.41C296.46,-99.69 303.65,-82.6 309.76,-68.06"/>
<polygon fill="green" stroke="green" stroke-width="0.11" points="313.14,-69.06 313.79,-58.49 306.69,-66.35 313.14,-69.06"/>
</g>
<!-- 114&#45;&gt;Right -->
<g id="edge38" class="edge">
<title>114&#45;&gt;Right</title>
<path fill="none" stroke="red" stroke-width="0.15" d="M277.49,-111.51C274.13,-99.99 269.8,-85.14 265.93,-71.83"/>
<polygon fill="red" stroke="red" stroke-width="0.15" points="269.24,-70.67 263.08,-62.05 262.52,-72.63 269.24,-70.67"/>
</g>
<!-- 215&#45;&gt;112 -->
<g id="edge40" class="edge">
<title>215&#45;&gt;112</title>
<path fill="none" stroke="green" stroke-width="0.1" d="M585.89,-198.31C580.4,-195.09 574.2,-191.8 568.21,-189.38 501.66,-162.47 418.67,-145.77 374.42,-138.12"/>
<polygon fill="green" stroke="green" stroke-width="0.1" points="374.74,-134.63 364.3,-136.41 373.57,-141.53 374.74,-134.63"/>
</g>
</g>
</svg>
