<?xml version="1.0" encoding="UTF-8" standalone="no"?>
<!DOCTYPE svg PUBLIC "-//W3C//DTD SVG 1.1//EN"
 "http://www.w3.org/Graphics/SVG/1.1/DTD/svg11.dtd">
<!-- Generated by graphviz version 4.0.0 (20220529.0937)
 -->
<!-- Pages: 1 -->
<svg width="520pt" height="288pt"
 viewBox="0.00 0.00 520.10 288.15" xmlns="http://www.w3.org/2000/svg" xmlns:xlink="http://www.w3.org/1999/xlink">
<g id="graph0" class="graph" transform="scale(1 1) rotate(0) translate(4 284.15)">
<polygon fill="white" stroke="transparent" points="-4,4 -4,-284.15 516.1,-284.15 516.1,4 -4,4"/>
<!-- &#45;1 -->
<g id="node1" class="node">
<title>&#45;1</title>
<polygon fill="lightgray" stroke="black" points="398.92,-280.15 374.92,-280.15 374.92,-262.15 398.92,-262.15 398.92,-280.15"/>
<text text-anchor="middle" x="386.92" y="-268.95" font-family="Times New Roman,serif" font-size="9.00">&#45;1</text>
</g>
<!-- 239 -->
<g id="node15" class="node">
<title>239</title>
<ellipse fill="white" stroke="black" cx="473.92" cy="-204.94" rx="21.43" ry="21.43"/>
<text text-anchor="middle" x="473.92" y="-202.74" font-family="Times New Roman,serif" font-size="9.00">239</text>
</g>
<!-- &#45;1&#45;&gt;239 -->
<g id="edge85" class="edge">
<title>&#45;1&#45;&gt;239</title>
<path fill="none" stroke="green" stroke-width="0.3" d="M397.94,-262.02C410.63,-252.65 431.9,-236.95 448.71,-224.54"/>
<polygon fill="green" stroke="green" stroke-width="0.3" points="451.06,-227.16 457.03,-218.41 446.9,-221.53 451.06,-227.16"/>
</g>
<!-- 83 -->
<g id="node16" class="node">
<title>83</title>
<ellipse fill="white" stroke="black" cx="123.92" cy="-129.34" rx="18.27" ry="18.27"/>
<text text-anchor="middle" x="123.92" y="-127.14" font-family="Times New Roman,serif" font-size="9.00">83</text>
</g>
<!-- &#45;1&#45;&gt;83 -->
<g id="edge1" class="edge">
<title>&#45;1&#45;&gt;83</title>
<path fill="none" stroke="red" stroke-width="0.53" d="M374.79,-269.63C313.96,-266.92 44.09,-253.39 19.92,-226.15 7.41,-212.04 9.84,-199.66 19.92,-183.72 39.91,-152.14 63.1,-165.61 95.92,-147.72 97.24,-147 98.58,-146.25 99.93,-145.48"/>
<polygon fill="red" stroke="red" stroke-width="0.53" points="101.92,-148.36 108.7,-140.22 98.32,-142.36 101.92,-148.36"/>
</g>
<!-- 84 -->
<g id="node17" class="node">
<title>84</title>
<ellipse fill="white" stroke="black" cx="233.92" cy="-129.34" rx="18.27" ry="18.27"/>
<text text-anchor="middle" x="233.92" y="-127.14" font-family="Times New Roman,serif" font-size="9.00">84</text>
</g>
<!-- &#45;1&#45;&gt;84 -->
<g id="edge2" class="edge">
<title>&#45;1&#45;&gt;84</title>
<path fill="none" stroke="green" stroke-width="0.21" d="M387.57,-262.09C388.47,-245.3 388.1,-206.28 367.92,-183.72 334.75,-146.64 306.9,-168.98 261.92,-147.72 260.53,-147.07 259.12,-146.36 257.72,-145.61"/>
<polygon fill="green" stroke="green" stroke-width="0.21" points="259.09,-142.36 248.68,-140.37 255.58,-148.41 259.09,-142.36"/>
</g>
<!-- 85 -->
<g id="node18" class="node">
<title>85</title>
<ellipse fill="white" stroke="black" cx="343.92" cy="-129.34" rx="18.27" ry="18.27"/>
<text text-anchor="middle" x="343.92" y="-127.14" font-family="Times New Roman,serif" font-size="9.00">85</text>
</g>
<!-- &#45;1&#45;&gt;85 -->
<g id="edge3" class="edge">
<title>&#45;1&#45;&gt;85</title>
<path fill="none" stroke="green" stroke-width="0.19" d="M399.2,-269.79C423.99,-268.33 479.71,-261.12 503.92,-226.15 514.65,-210.65 514.94,-199.02 503.92,-183.72 473.93,-142.1 410.05,-132.44 372.71,-130.5"/>
<polygon fill="green" stroke="green" stroke-width="0.19" points="372.61,-126.99 362.49,-130.12 372.35,-133.98 372.61,-126.99"/>
</g>
<!-- 86 -->
<g id="node19" class="node">
<title>86</title>
<ellipse fill="white" stroke="black" cx="178.92" cy="-129.34" rx="18.27" ry="18.27"/>
<text text-anchor="middle" x="178.92" y="-127.14" font-family="Times New Roman,serif" font-size="9.00">86</text>
</g>
<!-- &#45;1&#45;&gt;86 -->
<g id="edge4" class="edge">
<title>&#45;1&#45;&gt;86</title>
<path fill="none" stroke="green" stroke-width="0.19" d="M374.79,-269.58C315.19,-266.67 55.21,-252.5 31.92,-226.15 19.43,-212.02 20.68,-198.86 31.92,-183.72 64.85,-139.35 100.57,-170.49 150.92,-147.72 152.32,-147.09 153.74,-146.4 155.15,-145.67"/>
<polygon fill="green" stroke="green" stroke-width="0.19" points="157.27,-148.48 164.21,-140.47 153.79,-142.41 157.27,-148.48"/>
</g>
<!-- 87 -->
<g id="node20" class="node">
<title>87</title>
<ellipse fill="white" stroke="black" cx="288.92" cy="-129.34" rx="18.27" ry="18.27"/>
<text text-anchor="middle" x="288.92" y="-127.14" font-family="Times New Roman,serif" font-size="9.00">87</text>
</g>
<!-- &#45;1&#45;&gt;87 -->
<g id="edge5" class="edge">
<title>&#45;1&#45;&gt;87</title>
<path fill="none" stroke="green" stroke-width="0.12" d="M391.71,-261.98C400.57,-245.66 417.24,-208.47 400.92,-183.72 378.56,-149.81 352.94,-166.49 316.92,-147.72 315.59,-147.03 314.24,-146.29 312.88,-145.54"/>
<polygon fill="green" stroke="green" stroke-width="0.12" points="314.47,-142.41 304.08,-140.33 310.91,-148.43 314.47,-142.41"/>
</g>
<!-- 88 -->
<g id="node21" class="node">
<title>88</title>
<ellipse fill="white" stroke="black" cx="68.92" cy="-129.34" rx="18.27" ry="18.27"/>
<text text-anchor="middle" x="68.92" y="-127.14" font-family="Times New Roman,serif" font-size="9.00">88</text>
</g>
<!-- &#45;1&#45;&gt;88 -->
<g id="edge6" class="edge">
<title>&#45;1&#45;&gt;88</title>
<path fill="none" stroke="green" stroke-width="0.38" d="M374.81,-269.68C312.81,-267.16 32.98,-254.28 7.92,-226.15 -4.62,-212.07 0.13,-200.89 7.92,-183.72 15.46,-167.11 31,-153.64 44.51,-144.38"/>
<polygon fill="green" stroke="green" stroke-width="0.38" points="46.48,-147.28 52.99,-138.92 42.69,-141.39 46.48,-147.28"/>
</g>
<!-- &#45;2 -->
<g id="node2" class="node">
<title>&#45;2</title>
<polygon fill="lightgray" stroke="black" points="274.92,-213.94 250.92,-213.94 250.92,-195.94 274.92,-195.94 274.92,-213.94"/>
<text text-anchor="middle" x="262.92" y="-202.74" font-family="Times New Roman,serif" font-size="9.00">&#45;2</text>
</g>
<!-- &#45;2&#45;&gt;83 -->
<g id="edge7" class="edge">
<title>&#45;2&#45;&gt;83</title>
<path fill="none" stroke="red" stroke-width="0.28" d="M255.76,-195.67C251.96,-191.66 247.02,-187.02 241.92,-183.72 205.73,-160.35 190.37,-167.16 151.92,-147.72 150.55,-147.03 149.16,-146.29 147.76,-145.52"/>
<polygon fill="red" stroke="red" stroke-width="0.28" points="149.15,-142.28 138.75,-140.22 145.6,-148.31 149.15,-142.28"/>
</g>
<!-- &#45;2&#45;&gt;84 -->
<g id="edge8" class="edge">
<title>&#45;2&#45;&gt;84</title>
<path fill="none" stroke="red" stroke-width="0.15" d="M259.71,-195.78C255.98,-186.32 249.65,-170.26 244.2,-156.42"/>
<polygon fill="red" stroke="red" stroke-width="0.15" points="247.35,-154.88 240.43,-146.86 240.84,-157.44 247.35,-154.88"/>
</g>
<!-- &#45;2&#45;&gt;85 -->
<g id="edge9" class="edge">
<title>&#45;2&#45;&gt;85</title>
<path fill="none" stroke="green" stroke-width="0.19" d="M271.43,-195.6C275.22,-191.92 279.76,-187.57 283.92,-183.72 296.6,-171.99 311.07,-159.1 322.61,-148.93"/>
<polygon fill="green" stroke="green" stroke-width="0.19" points="325.24,-151.29 330.44,-142.06 320.62,-146.03 325.24,-151.29"/>
</g>
<!-- &#45;2&#45;&gt;86 -->
<g id="edge10" class="edge">
<title>&#45;2&#45;&gt;86</title>
<path fill="none" stroke="red" stroke-width="0.12" d="M254.46,-195.55C250.67,-191.87 246.13,-187.52 241.92,-183.72 228.61,-171.7 213.26,-158.68 201.05,-148.5"/>
<polygon fill="red" stroke="red" stroke-width="0.12" points="203.09,-145.65 193.15,-141.96 198.62,-151.04 203.09,-145.65"/>
</g>
<!-- &#45;2&#45;&gt;87 -->
<g id="edge11" class="edge">
<title>&#45;2&#45;&gt;87</title>
<path fill="none" stroke="green" stroke-width="0.21" d="M265.8,-195.78C269.14,-186.32 274.82,-170.26 279.71,-156.42"/>
<polygon fill="green" stroke="green" stroke-width="0.21" points="283.06,-157.45 283.09,-146.86 276.45,-155.12 283.06,-157.45"/>
</g>
<!-- &#45;2&#45;&gt;88 -->
<g id="edge12" class="edge">
<title>&#45;2&#45;&gt;88</title>
<path fill="none" stroke="red" stroke-width="0.46" d="M256.31,-195.78C252.51,-191.59 247.41,-186.76 241.92,-183.72 183.8,-151.61 158.09,-173.55 96.92,-147.72 95.5,-147.12 94.08,-146.46 92.66,-145.75"/>
<polygon fill="red" stroke="red" stroke-width="0.46" points="94,-142.49 83.57,-140.62 90.56,-148.59 94,-142.49"/>
</g>
<!-- &#45;3 -->
<g id="node3" class="node">
<title>&#45;3</title>
<polygon fill="lightgray" stroke="black" points="316.92,-213.94 292.92,-213.94 292.92,-195.94 316.92,-195.94 316.92,-213.94"/>
<text text-anchor="middle" x="304.92" y="-202.74" font-family="Times New Roman,serif" font-size="9.00">&#45;3</text>
</g>
<!-- &#45;3&#45;&gt;83 -->
<g id="edge13" class="edge">
<title>&#45;3&#45;&gt;83</title>
<path fill="none" stroke="green" stroke-width="0.41" d="M298.28,-195.83C294.48,-191.66 289.38,-186.82 283.92,-183.72 231.04,-153.7 207.67,-172.01 151.92,-147.72 150.51,-147.11 149.09,-146.43 147.67,-145.71"/>
<polygon fill="green" stroke="green" stroke-width="0.41" points="149.02,-142.45 138.6,-140.55 145.56,-148.54 149.02,-142.45"/>
</g>
<!-- &#45;3&#45;&gt;84 -->
<g id="edge14" class="edge">
<title>&#45;3&#45;&gt;84</title>
<path fill="none" stroke="green" stroke-width="0.26" d="M297.05,-195.78C286.6,-184.94 267.78,-165.44 253.4,-150.53"/>
<polygon fill="green" stroke="green" stroke-width="0.26" points="255.81,-147.99 246.35,-143.22 250.78,-152.85 255.81,-147.99"/>
</g>
<!-- &#45;3&#45;&gt;85 -->
<g id="edge15" class="edge">
<title>&#45;3&#45;&gt;85</title>
<path fill="none" stroke="green" stroke-width="0.29" d="M309.24,-195.78C314.4,-186.05 323.26,-169.32 330.74,-155.22"/>
<polygon fill="green" stroke="green" stroke-width="0.29" points="334.04,-156.47 335.63,-145.99 327.85,-153.19 334.04,-156.47"/>
</g>
<!-- &#45;3&#45;&gt;86 -->
<g id="edge16" class="edge">
<title>&#45;3&#45;&gt;86</title>
<path fill="none" stroke="green" stroke-width="0.47" d="M297.68,-195.79C293.85,-191.82 288.93,-187.16 283.92,-183.72 252.78,-162.34 240.14,-165.72 206.92,-147.72 205.6,-147.01 204.26,-146.26 202.91,-145.48"/>
<polygon fill="green" stroke="green" stroke-width="0.47" points="204.51,-142.36 194.13,-140.24 200.92,-148.37 204.51,-142.36"/>
</g>
<!-- &#45;3&#45;&gt;87 -->
<g id="edge17" class="edge">
<title>&#45;3&#45;&gt;87</title>
<path fill="none" stroke="red" stroke-width="0.1" d="M303.15,-195.78C301.14,-186.53 297.76,-170.98 294.79,-157.35"/>
<polygon fill="red" stroke="red" stroke-width="0.1" points="298.18,-156.47 292.64,-147.44 291.34,-157.96 298.18,-156.47"/>
</g>
<!-- &#45;3&#45;&gt;88 -->
<g id="edge18" class="edge">
<title>&#45;3&#45;&gt;88</title>
<path fill="none" stroke="green" stroke-width="0.22" d="M298.37,-195.66C294.59,-191.44 289.49,-186.61 283.92,-183.72 208.78,-144.77 175.74,-178.56 96.92,-147.72 95.49,-147.16 94.05,-146.53 92.62,-145.84"/>
<polygon fill="green" stroke="green" stroke-width="0.22" points="93.94,-142.57 83.5,-140.78 90.55,-148.7 93.94,-142.57"/>
</g>
<!-- &#45;4 -->
<g id="node4" class="node">
<title>&#45;4</title>
<polygon fill="lightgray" stroke="black" points="358.92,-213.94 334.92,-213.94 334.92,-195.94 358.92,-195.94 358.92,-213.94"/>
<text text-anchor="middle" x="346.92" y="-202.74" font-family="Times New Roman,serif" font-size="9.00">&#45;4</text>
</g>
<!-- &#45;4&#45;&gt;83 -->
<g id="edge19" class="edge">
<title>&#45;4&#45;&gt;83</title>
<path fill="none" stroke="red" stroke-width="0.21" d="M340.36,-195.69C336.57,-191.48 331.47,-186.65 325.92,-183.72 256.06,-146.89 225.26,-177 151.92,-147.72 150.49,-147.15 149.06,-146.51 147.63,-145.82"/>
<polygon fill="red" stroke="red" stroke-width="0.21" points="148.96,-142.55 138.52,-140.74 145.55,-148.67 148.96,-142.55"/>
</g>
<!-- &#45;4&#45;&gt;84 -->
<g id="edge20" class="edge">
<title>&#45;4&#45;&gt;84</title>
<path fill="none" stroke="red" stroke-width="0.37" d="M339.18,-195.55C335.39,-191.7 330.63,-187.23 325.92,-183.72 299.73,-164.25 290.01,-164.33 261.92,-147.72 260.63,-146.96 259.31,-146.17 257.97,-145.36"/>
<polygon fill="red" stroke="red" stroke-width="0.37" points="259.61,-142.26 249.25,-140.02 255.95,-148.23 259.61,-142.26"/>
</g>
<!-- &#45;4&#45;&gt;85 -->
<g id="edge21" class="edge">
<title>&#45;4&#45;&gt;85</title>
<path fill="none" stroke="green" stroke-width="0.14" d="M346.59,-195.78C346.22,-186.68 345.6,-171.48 345.05,-158.01"/>
<polygon fill="green" stroke="green" stroke-width="0.14" points="348.53,-157.59 344.63,-147.74 341.54,-157.87 348.53,-157.59"/>
</g>
<!-- &#45;4&#45;&gt;86 -->
<g id="edge22" class="edge">
<title>&#45;4&#45;&gt;86</title>
<path fill="none" stroke="red" stroke-width="0.56" d="M340.25,-195.89C336.43,-191.74 331.34,-186.9 325.92,-183.72 278.25,-155.79 257.27,-170.49 206.92,-147.72 205.52,-147.09 204.1,-146.4 202.69,-145.67"/>
<polygon fill="red" stroke="red" stroke-width="0.56" points="204.05,-142.41 193.63,-140.47 200.57,-148.48 204.05,-142.41"/>
</g>
<!-- &#45;4&#45;&gt;87 -->
<g id="edge23" class="edge">
<title>&#45;4&#45;&gt;87</title>
<path fill="none" stroke="green" stroke-width="0.25" d="M340.49,-195.78C332.31,-185.39 317.84,-167.04 306.31,-152.41"/>
<polygon fill="green" stroke="green" stroke-width="0.25" points="308.87,-150 299.93,-144.31 303.37,-154.33 308.87,-150"/>
</g>
<!-- &#45;4&#45;&gt;88 -->
<g id="edge24" class="edge">
<title>&#45;4&#45;&gt;88</title>
<path fill="none" stroke="red" stroke-width="0.19" d="M340.41,-195.58C336.64,-191.34 331.54,-186.51 325.92,-183.72 233.65,-137.88 193.5,-183.61 96.92,-147.72 95.48,-147.19 94.03,-146.57 92.6,-145.9"/>
<polygon fill="red" stroke="red" stroke-width="0.19" points="93.91,-142.63 83.46,-140.89 90.54,-148.77 93.91,-142.63"/>
</g>
<!-- &#45;5 -->
<g id="node5" class="node">
<title>&#45;5</title>
<polygon fill="lightgray" stroke="black" points="64.92,-213.94 40.92,-213.94 40.92,-195.94 64.92,-195.94 64.92,-213.94"/>
<text text-anchor="middle" x="52.92" y="-202.74" font-family="Times New Roman,serif" font-size="9.00">&#45;5</text>
</g>
<!-- &#45;5&#45;&gt;83 -->
<g id="edge25" class="edge">
<title>&#45;5&#45;&gt;83</title>
<path fill="none" stroke="green" stroke-width="0.5" d="M60.79,-195.78C71.24,-184.94 90.06,-165.44 104.44,-150.53"/>
<polygon fill="green" stroke="green" stroke-width="0.5" points="107.07,-152.85 111.49,-143.22 102.03,-147.99 107.07,-152.85"/>
</g>
<!-- &#45;5&#45;&gt;84 -->
<g id="edge26" class="edge">
<title>&#45;5&#45;&gt;84</title>
<path fill="none" stroke="red" stroke-width="0.58" d="M59.56,-195.83C63.37,-191.66 68.46,-186.82 73.92,-183.72 126.8,-153.7 150.17,-172.01 205.92,-147.72 207.33,-147.11 208.75,-146.43 210.17,-145.71"/>
<polygon fill="red" stroke="red" stroke-width="0.58" points="212.28,-148.54 219.25,-140.55 208.82,-142.45 212.28,-148.54"/>
</g>
<!-- &#45;5&#45;&gt;85 -->
<g id="edge27" class="edge">
<title>&#45;5&#45;&gt;85</title>
<path fill="none" stroke="red" stroke-width="0.56" d="M59.42,-195.56C63.19,-191.32 68.29,-186.49 73.92,-183.72 171.5,-135.74 213.84,-185.18 315.92,-147.72 317.36,-147.19 318.81,-146.58 320.25,-145.92"/>
<polygon fill="red" stroke="red" stroke-width="0.56" points="322.3,-148.78 329.39,-140.91 318.94,-142.64 322.3,-148.78"/>
</g>
<!-- &#45;5&#45;&gt;86 -->
<g id="edge28" class="edge">
<title>&#45;5&#45;&gt;86</title>
<path fill="none" stroke="green" stroke-width="0.24" d="M60.17,-195.79C63.99,-191.82 68.92,-187.16 73.92,-183.72 105.06,-162.34 117.7,-165.72 150.92,-147.72 152.24,-147.01 153.59,-146.26 154.94,-145.48"/>
<polygon fill="green" stroke="green" stroke-width="0.24" points="156.92,-148.37 163.71,-140.24 153.33,-142.36 156.92,-148.37"/>
</g>
<!-- &#45;5&#45;&gt;87 -->
<g id="edge29" class="edge">
<title>&#45;5&#45;&gt;87</title>
<path fill="none" stroke="red" stroke-width="0.25" d="M59.47,-195.66C63.25,-191.44 68.35,-186.61 73.92,-183.72 149.06,-144.77 182.1,-178.56 260.92,-147.72 262.35,-147.16 263.79,-146.53 265.22,-145.84"/>
<polygon fill="red" stroke="red" stroke-width="0.25" points="267.29,-148.7 274.34,-140.78 263.9,-142.57 267.29,-148.7"/>
</g>
<!-- &#45;5&#45;&gt;88 -->
<g id="edge30" class="edge">
<title>&#45;5&#45;&gt;88</title>
<path fill="none" stroke="red" stroke-width="0.24" d="M54.69,-195.78C56.7,-186.53 60.09,-170.98 63.05,-157.35"/>
<polygon fill="red" stroke="red" stroke-width="0.24" points="66.5,-157.96 65.2,-147.44 59.66,-156.47 66.5,-157.96"/>
</g>
<!-- &#45;6 -->
<g id="node6" class="node">
<title>&#45;6</title>
<polygon fill="lightgray" stroke="black" points="106.92,-213.94 82.92,-213.94 82.92,-195.94 106.92,-195.94 106.92,-213.94"/>
<text text-anchor="middle" x="94.92" y="-202.74" font-family="Times New Roman,serif" font-size="9.00">&#45;6</text>
</g>
<!-- &#45;6&#45;&gt;83 -->
<g id="edge31" class="edge">
<title>&#45;6&#45;&gt;83</title>
<path fill="none" stroke="red" stroke-width="0.14" d="M98.14,-195.78C101.86,-186.32 108.19,-170.26 113.64,-156.42"/>
<polygon fill="red" stroke="red" stroke-width="0.14" points="117,-157.44 117.41,-146.86 110.49,-154.88 117,-157.44"/>
</g>
<!-- &#45;6&#45;&gt;84 -->
<g id="edge32" class="edge">
<title>&#45;6&#45;&gt;84</title>
<path fill="none" stroke="green" stroke-width="0.34" d="M102.09,-195.67C105.89,-191.66 110.82,-187.02 115.92,-183.72 152.11,-160.35 167.47,-167.16 205.92,-147.72 207.29,-147.03 208.69,-146.29 210.08,-145.52"/>
<polygon fill="green" stroke="green" stroke-width="0.34" points="212.25,-148.31 219.09,-140.22 208.69,-142.28 212.25,-148.31"/>
</g>
<!-- &#45;6&#45;&gt;85 -->
<g id="edge33" class="edge">
<title>&#45;6&#45;&gt;85</title>
<path fill="none" stroke="red" stroke-width="0.11" d="M101.46,-195.63C105.23,-191.41 110.33,-186.58 115.92,-183.72 196.36,-142.64 231.61,-180.12 315.92,-147.72 317.36,-147.17 318.8,-146.54 320.23,-145.86"/>
<polygon fill="red" stroke="red" stroke-width="0.11" points="322.3,-148.72 329.35,-140.82 318.91,-142.59 322.3,-148.72"/>
</g>
<!-- &#45;6&#45;&gt;86 -->
<g id="edge34" class="edge">
<title>&#45;6&#45;&gt;86</title>
<path fill="none" stroke="red" stroke-width="0.24" d="M103.39,-195.55C107.17,-191.87 111.72,-187.52 115.92,-183.72 129.23,-171.7 144.58,-158.68 156.8,-148.5"/>
<polygon fill="red" stroke="red" stroke-width="0.24" points="159.22,-151.04 164.69,-141.96 154.76,-145.65 159.22,-151.04"/>
</g>
<!-- &#45;6&#45;&gt;87 -->
<g id="edge35" class="edge">
<title>&#45;6&#45;&gt;87</title>
<path fill="none" stroke="red" stroke-width="0.26" d="M101.53,-195.78C105.33,-191.59 110.43,-186.76 115.92,-183.72 174.04,-151.61 199.75,-173.55 260.92,-147.72 262.34,-147.12 263.77,-146.46 265.19,-145.75"/>
<polygon fill="red" stroke="red" stroke-width="0.26" points="267.29,-148.59 274.28,-140.62 263.85,-142.49 267.29,-148.59"/>
</g>
<!-- &#45;6&#45;&gt;88 -->
<g id="edge36" class="edge">
<title>&#45;6&#45;&gt;88</title>
<path fill="none" stroke="green" stroke-width="0.34" d="M92.04,-195.78C88.7,-186.32 83.03,-170.26 78.13,-156.42"/>
<polygon fill="green" stroke="green" stroke-width="0.34" points="81.39,-155.12 74.76,-146.86 74.79,-157.45 81.39,-155.12"/>
</g>
<!-- &#45;7 -->
<g id="node7" class="node">
<title>&#45;7</title>
<polygon fill="lightgray" stroke="black" points="148.92,-213.94 124.92,-213.94 124.92,-195.94 148.92,-195.94 148.92,-213.94"/>
<text text-anchor="middle" x="136.92" y="-202.74" font-family="Times New Roman,serif" font-size="9.00">&#45;7</text>
</g>
<!-- &#45;7&#45;&gt;83 -->
<g id="edge37" class="edge">
<title>&#45;7&#45;&gt;83</title>
<path fill="none" stroke="red" stroke-width="0.25" d="M135.48,-195.78C133.86,-186.59 131.13,-171.18 128.74,-157.61"/>
<polygon fill="red" stroke="red" stroke-width="0.25" points="132.18,-156.97 126.99,-147.74 125.29,-158.19 132.18,-156.97"/>
</g>
<!-- &#45;7&#45;&gt;84 -->
<g id="edge38" class="edge">
<title>&#45;7&#45;&gt;84</title>
<path fill="none" stroke="green" stroke-width="0.51" d="M144.83,-195.76C148.66,-191.96 153.39,-187.46 157.92,-183.72 174.77,-169.83 195.06,-155.7 210.44,-145.47"/>
<polygon fill="green" stroke="green" stroke-width="0.51" points="212.43,-148.35 218.86,-139.93 208.58,-142.5 212.43,-148.35"/>
</g>
<!-- &#45;7&#45;&gt;85 -->
<g id="edge39" class="edge">
<title>&#45;7&#45;&gt;85</title>
<path fill="none" stroke="green" stroke-width="0.16" d="M143.51,-195.73C147.3,-191.54 152.4,-186.7 157.92,-183.72 221.29,-149.5 249.3,-175.09 315.92,-147.72 317.34,-147.14 318.78,-146.49 320.2,-145.78"/>
<polygon fill="green" stroke="green" stroke-width="0.16" points="322.29,-148.63 329.3,-140.68 318.87,-142.52 322.29,-148.63"/>
</g>
<!-- &#45;7&#45;&gt;86 -->
<g id="edge40" class="edge">
<title>&#45;7&#45;&gt;86</title>
<path fill="none" stroke="red" stroke-width="0.15" d="M141.58,-195.78C147.22,-185.89 156.98,-168.79 165.11,-154.55"/>
<polygon fill="red" stroke="red" stroke-width="0.15" points="168.23,-156.13 170.15,-145.71 162.15,-152.66 168.23,-156.13"/>
</g>
<!-- &#45;7&#45;&gt;87 -->
<g id="edge41" class="edge">
<title>&#45;7&#45;&gt;87</title>
<path fill="none" stroke="green" stroke-width="0.13" d="M144.02,-195.58C147.81,-191.54 152.75,-186.9 157.92,-183.72 199.23,-158.32 217.17,-168.64 260.92,-147.72 262.31,-147.06 263.71,-146.34 265.12,-145.59"/>
<polygon fill="green" stroke="green" stroke-width="0.13" points="267.26,-148.4 274.15,-140.35 263.75,-142.34 267.26,-148.4"/>
</g>
<!-- &#45;7&#45;&gt;88 -->
<g id="edge42" class="edge">
<title>&#45;7&#45;&gt;88</title>
<path fill="none" stroke="green" stroke-width="0.18" d="M129.38,-195.78C119.52,-185.11 101.89,-166.02 88.2,-151.2"/>
<polygon fill="green" stroke="green" stroke-width="0.18" points="90.43,-148.46 81.07,-143.49 85.29,-153.21 90.43,-148.46"/>
</g>
<!-- &#45;8 -->
<g id="node8" class="node">
<title>&#45;8</title>
<polygon fill="lightgray" stroke="black" points="190.92,-213.94 166.92,-213.94 166.92,-195.94 190.92,-195.94 190.92,-213.94"/>
<text text-anchor="middle" x="178.92" y="-202.74" font-family="Times New Roman,serif" font-size="9.00">&#45;8</text>
</g>
<!-- &#45;8&#45;&gt;83 -->
<g id="edge43" class="edge">
<title>&#45;8&#45;&gt;83</title>
<path fill="none" stroke="green" stroke-width="0.57" d="M172.83,-195.78C165.11,-185.45 151.51,-167.26 140.61,-152.67"/>
<polygon fill="green" stroke="green" stroke-width="0.57" points="143.36,-150.5 134.57,-144.58 137.75,-154.69 143.36,-150.5"/>
</g>
<!-- &#45;8&#45;&gt;84 -->
<g id="edge44" class="edge">
<title>&#45;8&#45;&gt;84</title>
<path fill="none" stroke="green" stroke-width="0.21" d="M185.02,-195.78C192.73,-185.45 206.33,-167.26 217.23,-152.67"/>
<polygon fill="green" stroke="green" stroke-width="0.21" points="220.09,-154.69 223.28,-144.58 214.49,-150.5 220.09,-154.69"/>
</g>
<!-- &#45;8&#45;&gt;85 -->
<g id="edge45" class="edge">
<title>&#45;8&#45;&gt;85</title>
<path fill="none" stroke="green" stroke-width="0.47" d="M185.6,-195.9C189.42,-191.76 194.52,-186.91 199.92,-183.72 246.4,-156.27 266.82,-170.14 315.92,-147.72 317.32,-147.08 318.73,-146.39 320.14,-145.65"/>
<polygon fill="green" stroke="green" stroke-width="0.47" points="322.27,-148.47 329.2,-140.45 318.79,-142.4 322.27,-148.47"/>
</g>
<!-- &#45;8&#45;&gt;86 -->
<g id="edge46" class="edge">
<title>&#45;8&#45;&gt;86</title>
<path fill="none" stroke="red" stroke-width="0.43" d="M178.92,-195.78C178.92,-186.68 178.92,-171.48 178.92,-158.01"/>
<polygon fill="red" stroke="red" stroke-width="0.43" points="182.42,-157.74 178.92,-147.74 175.42,-157.74 182.42,-157.74"/>
</g>
<!-- &#45;8&#45;&gt;87 -->
<g id="edge47" class="edge">
<title>&#45;8&#45;&gt;87</title>
<path fill="none" stroke="green" stroke-width="0.31" d="M186.7,-195.6C190.5,-191.76 195.25,-187.27 199.92,-183.72 224.99,-164.68 233.99,-164.03 260.92,-147.72 262.21,-146.94 263.52,-146.14 264.85,-145.33"/>
<polygon fill="green" stroke="green" stroke-width="0.31" points="266.88,-148.19 273.56,-139.96 263.21,-142.23 266.88,-148.19"/>
</g>
<!-- &#45;8&#45;&gt;88 -->
<g id="edge48" class="edge">
<title>&#45;8&#45;&gt;88</title>
<path fill="none" stroke="green" stroke-width="0.38" d="M171.14,-195.6C167.35,-191.76 162.6,-187.27 157.92,-183.72 132.86,-164.68 123.85,-164.03 96.92,-147.72 95.64,-146.94 94.32,-146.14 92.99,-145.33"/>
<polygon fill="green" stroke="green" stroke-width="0.38" points="94.64,-142.23 84.29,-139.96 90.96,-148.19 94.64,-142.23"/>
</g>
<!-- &#45;9 -->
<g id="node9" class="node">
<title>&#45;9</title>
<polygon fill="lightgray" stroke="black" points="232.92,-213.94 208.92,-213.94 208.92,-195.94 232.92,-195.94 232.92,-213.94"/>
<text text-anchor="middle" x="220.92" y="-202.74" font-family="Times New Roman,serif" font-size="9.00">&#45;9</text>
</g>
<!-- &#45;9&#45;&gt;83 -->
<g id="edge49" class="edge">
<title>&#45;9&#45;&gt;83</title>
<path fill="none" stroke="green" stroke-width="0.28" d="M213.01,-195.76C209.19,-191.96 204.45,-187.46 199.92,-183.72 183.07,-169.83 162.78,-155.7 147.41,-145.47"/>
<polygon fill="green" stroke="green" stroke-width="0.28" points="149.26,-142.5 138.98,-139.93 145.41,-148.35 149.26,-142.5"/>
</g>
<!-- &#45;9&#45;&gt;84 -->
<g id="edge50" class="edge">
<title>&#45;9&#45;&gt;84</title>
<path fill="none" stroke="red" stroke-width="0.37" d="M222.36,-195.78C223.98,-186.59 226.71,-171.18 229.1,-157.61"/>
<polygon fill="red" stroke="red" stroke-width="0.37" points="232.56,-158.19 230.85,-147.74 225.66,-156.97 232.56,-158.19"/>
</g>
<!-- &#45;9&#45;&gt;85 -->
<g id="edge51" class="edge">
<title>&#45;9&#45;&gt;85</title>
<path fill="none" stroke="green" stroke-width="0.45" d="M228.19,-195.83C232.02,-191.86 236.94,-187.2 241.92,-183.72 271.91,-162.78 283.9,-165.39 315.92,-147.72 317.24,-147 318.58,-146.24 319.92,-145.46"/>
<polygon fill="green" stroke="green" stroke-width="0.45" points="321.92,-148.34 328.69,-140.19 318.31,-142.34 321.92,-148.34"/>
</g>
<!-- &#45;9&#45;&gt;86 -->
<g id="edge52" class="edge">
<title>&#45;9&#45;&gt;86</title>
<path fill="none" stroke="green" stroke-width="0.19" d="M216.27,-195.78C210.62,-185.89 200.86,-168.79 192.74,-154.55"/>
<polygon fill="green" stroke="green" stroke-width="0.19" points="195.69,-152.66 187.69,-145.71 189.61,-156.13 195.69,-152.66"/>
</g>
<!-- &#45;9&#45;&gt;87 -->
<g id="edge53" class="edge">
<title>&#45;9&#45;&gt;87</title>
<path fill="none" stroke="red" stroke-width="0.35" d="M228.46,-195.78C238.32,-185.11 255.95,-166.02 269.64,-151.2"/>
<polygon fill="red" stroke="red" stroke-width="0.35" points="272.55,-153.21 276.77,-143.49 267.41,-148.46 272.55,-153.21"/>
</g>
<!-- &#45;9&#45;&gt;88 -->
<g id="edge54" class="edge">
<title>&#45;9&#45;&gt;88</title>
<path fill="none" stroke="red" stroke-width="0.34" d="M213.82,-195.58C210.03,-191.54 205.09,-186.9 199.92,-183.72 158.61,-158.32 140.67,-168.64 96.92,-147.72 95.53,-147.06 94.13,-146.34 92.73,-145.59"/>
<polygon fill="red" stroke="red" stroke-width="0.34" points="94.1,-142.34 83.69,-140.35 90.58,-148.4 94.1,-142.34"/>
</g>
<!-- Forward -->
<g id="node10" class="node">
<title>Forward</title>
<ellipse fill="lightblue" stroke="black" cx="339.92" cy="-37.48" rx="33.47" ry="33.47"/>
<text text-anchor="middle" x="339.92" y="-35.28" font-family="Times New Roman,serif" font-size="9.00">Forward</text>
</g>
<!-- Backward -->
<g id="node11" class="node">
<title>Backward</title>
<ellipse fill="lightblue" stroke="black" cx="71.92" cy="-37.48" rx="37.45" ry="37.45"/>
<text text-anchor="middle" x="71.92" y="-35.28" font-family="Times New Roman,serif" font-size="9.00">Backward</text>
</g>
<!-- Left -->
<g id="node12" class="node">
<title>Left</title>
<ellipse fill="lightblue" stroke="black" cx="149.92" cy="-37.48" rx="22.76" ry="22.76"/>
<text text-anchor="middle" x="149.92" y="-35.28" font-family="Times New Roman,serif" font-size="9.00">Left</text>
</g>
<!-- Right -->
<g id="node13" class="node">
<title>Right</title>
<ellipse fill="lightblue" stroke="black" cx="215.92" cy="-37.48" rx="25.41" ry="25.41"/>
<text text-anchor="middle" x="215.92" y="-35.28" font-family="Times New Roman,serif" font-size="9.00">Right</text>
</g>
<!-- 4 -->
<g id="node14" class="node">
<title>4</title>
<ellipse fill="lightblue" stroke="black" cx="273.92" cy="-37.48" rx="14.7" ry="14.7"/>
<text text-anchor="middle" x="273.92" y="-35.28" font-family="Times New Roman,serif" font-size="9.00">4</text>
</g>
<!-- 239&#45;&gt;85 -->
<g id="edge86" class="edge">
<title>239&#45;&gt;85</title>
<path fill="none" stroke="green" stroke-width="0.18" d="M455.78,-193.4C450.36,-190.28 444.41,-186.85 438.92,-183.72 415.16,-170.18 387.93,-154.91 368.74,-144.18"/>
<polygon fill="green" stroke="green" stroke-width="0.18" points="370.19,-140.98 359.75,-139.16 366.78,-147.09 370.19,-140.98"/>
</g>
<!-- 83&#45;&gt;Forward -->
<g id="edge55" class="edge">
<title>83&#45;&gt;Forward</title>
<path fill="none" stroke="green" stroke-width="0.43" d="M138.57,-118.05C142.74,-115.45 147.39,-112.86 151.92,-110.95 213.51,-85.01 238.59,-105.72 297.92,-74.95 301.68,-73 305.39,-70.65 308.95,-68.09"/>
<polygon fill="green" stroke="green" stroke-width="0.43" points="311.23,-70.75 316.94,-61.83 306.91,-65.24 311.23,-70.75"/>
</g>
<!-- 83&#45;&gt;Backward -->
<g id="edge56" class="edge">
<title>83&#45;&gt;Backward</title>
<path fill="none" stroke="red" stroke-width="0.47" d="M115.1,-113.09C109.64,-103.67 102.36,-91.08 95.33,-78.93"/>
<polygon fill="red" stroke="red" stroke-width="0.47" points="98.33,-77.12 90.29,-70.22 92.27,-80.63 98.33,-77.12"/>
</g>
<!-- 83&#45;&gt;Left -->
<g id="edge57" class="edge">
<title>83&#45;&gt;Left</title>
<path fill="none" stroke="red" stroke-width="0.11" d="M128.81,-111.44C132.24,-99.57 136.93,-83.37 141.02,-69.24"/>
<polygon fill="red" stroke="red" stroke-width="0.11" points="144.45,-69.99 143.86,-59.42 137.72,-68.05 144.45,-69.99"/>
</g>
<!-- 83&#45;&gt;Right -->
<g id="edge58" class="edge">
<title>83&#45;&gt;Right</title>
<path fill="none" stroke="red" stroke-width="0.35" d="M137.56,-116.32C149.49,-105.69 167.17,-89.62 181.92,-74.95 185.35,-71.55 188.9,-67.89 192.35,-64.26"/>
<polygon fill="red" stroke="red" stroke-width="0.35" points="194.95,-66.61 199.24,-56.92 189.85,-61.82 194.95,-66.61"/>
</g>
<!-- 83&#45;&gt;4 -->
<g id="edge59" class="edge">
<title>83&#45;&gt;4</title>
<path fill="none" stroke="green" stroke-width="0.12" d="M138.71,-118.38C142.89,-115.78 147.5,-113.11 151.92,-110.95 193.63,-90.61 213.56,-103.78 249.92,-74.95 254.94,-70.97 259.27,-65.64 262.81,-60.28"/>
<polygon fill="green" stroke="green" stroke-width="0.12" points="265.93,-61.87 268,-51.48 259.9,-58.31 265.93,-61.87"/>
</g>
<!-- 84&#45;&gt;Forward -->
<g id="edge60" class="edge">
<title>84&#45;&gt;Forward</title>
<path fill="none" stroke="red" stroke-width="0.14" d="M247.72,-116.96C260.73,-106.21 280.73,-89.58 297.92,-74.95 300.98,-72.35 304.15,-69.63 307.32,-66.9"/>
<polygon fill="red" stroke="red" stroke-width="0.14" points="309.84,-69.35 315.12,-60.16 305.26,-64.05 309.84,-69.35"/>
</g>
<!-- 84&#45;&gt;Backward -->
<g id="edge61" class="edge">
<title>84&#45;&gt;Backward</title>
<path fill="none" stroke="red" stroke-width="0.27" d="M219.08,-118.48C214.9,-115.89 210.3,-113.19 205.92,-110.95 168.28,-91.74 154.39,-96.29 117.92,-74.95 114.74,-73.09 111.55,-71.03 108.4,-68.86"/>
<polygon fill="red" stroke="red" stroke-width="0.27" points="110.38,-65.98 100.23,-62.94 106.27,-71.64 110.38,-65.98"/>
</g>
<!-- 84&#45;&gt;Left -->
<g id="edge62" class="edge">
<title>84&#45;&gt;Left</title>
<path fill="none" stroke="green" stroke-width="0.25" d="M221.33,-115.79C210.68,-105.08 195.1,-89.2 181.92,-74.95 178.37,-71.11 174.65,-66.98 171.06,-62.93"/>
<polygon fill="green" stroke="green" stroke-width="0.25" points="173.63,-60.55 164.4,-55.35 168.37,-65.17 173.63,-60.55"/>
</g>
<!-- 84&#45;&gt;Right -->
<g id="edge63" class="edge">
<title>84&#45;&gt;Right</title>
<path fill="none" stroke="green" stroke-width="0.15" d="M230.45,-111.01C228.27,-100.15 225.39,-85.76 222.77,-72.67"/>
<polygon fill="green" stroke="green" stroke-width="0.15" points="226.14,-71.66 220.74,-62.54 219.27,-73.04 226.14,-71.66"/>
</g>
<!-- 84&#45;&gt;4 -->
<g id="edge64" class="edge">
<title>84&#45;&gt;4</title>
<path fill="none" stroke="green" stroke-width="0.36" d="M241.07,-112.27C247.51,-97.81 257.03,-76.42 264.17,-60.39"/>
<polygon fill="green" stroke="green" stroke-width="0.36" points="267.38,-61.77 268.25,-51.21 260.99,-58.92 267.38,-61.77"/>
</g>
<!-- 85&#45;&gt;Forward -->
<g id="edge65" class="edge">
<title>85&#45;&gt;Forward</title>
<path fill="none" stroke="red" stroke-width="0.17" d="M343.13,-110.58C342.75,-102.07 342.28,-91.47 341.82,-81.03"/>
<polygon fill="red" stroke="red" stroke-width="0.17" points="345.3,-80.58 341.36,-70.74 338.31,-80.89 345.3,-80.58"/>
</g>
<!-- 85&#45;&gt;Backward -->
<g id="edge66" class="edge">
<title>85&#45;&gt;Backward</title>
<path fill="none" stroke="green" stroke-width="0.15" d="M329.35,-117.86C325.18,-115.26 320.51,-112.72 315.92,-110.95 232.46,-78.8 199.4,-111.84 117.92,-74.95 114.47,-73.39 111.05,-71.51 107.72,-69.44"/>
<polygon fill="green" stroke="green" stroke-width="0.15" points="109.42,-66.36 99.19,-63.6 105.47,-72.14 109.42,-66.36"/>
</g>
<!-- 85&#45;&gt;Left -->
<g id="edge67" class="edge">
<title>85&#45;&gt;Left</title>
<path fill="none" stroke="red" stroke-width="0.28" d="M329.25,-118.11C325.08,-115.51 320.44,-112.91 315.92,-110.95 259.34,-86.43 234.28,-107.53 181.92,-74.95 177.18,-72 172.75,-68.14 168.79,-64.03"/>
<polygon fill="red" stroke="red" stroke-width="0.28" points="171.42,-61.72 162.2,-56.51 166.16,-66.34 171.42,-61.72"/>
</g>
<!-- 85&#45;&gt;Right -->
<g id="edge68" class="edge">
<title>85&#45;&gt;Right</title>
<path fill="none" stroke="green" stroke-width="0.26" d="M328.61,-118.62C324.52,-116.08 320.07,-113.37 315.92,-110.95 287.05,-94.13 276.32,-95.44 249.92,-74.95 246.1,-71.99 242.34,-68.59 238.78,-65.07"/>
<polygon fill="green" stroke="green" stroke-width="0.26" points="241.26,-62.61 231.81,-57.82 236.21,-67.46 241.26,-62.61"/>
</g>
<!-- 85&#45;&gt;4 -->
<g id="edge69" class="edge">
<title>85&#45;&gt;4</title>
<path fill="none" stroke="green" stroke-width="0.25" d="M331.7,-115.14C322.13,-104.57 308.68,-89.21 297.92,-74.95 294.12,-69.91 290.25,-64.29 286.76,-59"/>
<polygon fill="green" stroke="green" stroke-width="0.25" points="289.68,-57.08 281.33,-50.57 283.8,-60.87 289.68,-57.08"/>
</g>
<!-- 86&#45;&gt;Forward -->
<g id="edge70" class="edge">
<title>86&#45;&gt;Forward</title>
<path fill="none" stroke="green" stroke-width="0.12" d="M193.75,-118.45C197.92,-115.85 202.53,-113.17 206.92,-110.95 245.77,-91.4 260.75,-97.54 297.92,-74.95 301.54,-72.75 305.16,-70.24 308.66,-67.57"/>
<polygon fill="green" stroke="green" stroke-width="0.12" points="310.99,-70.19 316.58,-61.19 306.6,-64.74 310.99,-70.19"/>
</g>
<!-- 86&#45;&gt;Backward -->
<g id="edge71" class="edge">
<title>86&#45;&gt;Backward</title>
<path fill="none" stroke="red" stroke-width="0.5" d="M164.93,-116.59C150.59,-104.55 127.7,-85.32 108.21,-68.96"/>
<polygon fill="red" stroke="red" stroke-width="0.5" points="110.29,-66.13 100.38,-62.38 105.79,-71.49 110.29,-66.13"/>
</g>
<!-- 86&#45;&gt;Left -->
<g id="edge72" class="edge">
<title>86&#45;&gt;Left</title>
<path fill="none" stroke="red" stroke-width="0.1" d="M173.47,-111.44C169.64,-99.57 164.41,-83.37 159.85,-69.24"/>
<polygon fill="red" stroke="red" stroke-width="0.1" points="163.08,-67.86 156.68,-59.42 156.42,-70.01 163.08,-67.86"/>
</g>
<!-- 86&#45;&gt;Right -->
<g id="edge73" class="edge">
<title>86&#45;&gt;Right</title>
<path fill="none" stroke="red" stroke-width="0.22" d="M185.71,-111.86C190.45,-100.33 196.95,-84.56 202.7,-70.59"/>
<polygon fill="red" stroke="red" stroke-width="0.22" points="205.96,-71.86 206.53,-61.28 199.49,-69.2 205.96,-71.86"/>
</g>
<!-- 86&#45;&gt;4 -->
<g id="edge74" class="edge">
<title>86&#45;&gt;4</title>
<path fill="none" stroke="red" stroke-width="0.33" d="M194.26,-119.04C209.52,-109.3 233.03,-92.94 249.92,-74.95 254.24,-70.35 258.29,-64.88 261.79,-59.6"/>
<polygon fill="red" stroke="red" stroke-width="0.33" points="264.79,-61.41 267.11,-51.07 258.85,-57.7 264.79,-61.41"/>
</g>
<!-- 87&#45;&gt;Forward -->
<g id="edge75" class="edge">
<title>87&#45;&gt;Forward</title>
<path fill="none" stroke="red" stroke-width="0.27" d="M297.57,-113.09C303.39,-102.84 311.33,-88.86 318.76,-75.76"/>
<polygon fill="red" stroke="red" stroke-width="0.27" points="321.9,-77.32 323.79,-66.9 315.81,-73.87 321.9,-77.32"/>
</g>
<!-- 87&#45;&gt;Backward -->
<g id="edge76" class="edge">
<title>87&#45;&gt;Backward</title>
<path fill="none" stroke="green" stroke-width="0.5" d="M274.27,-118.06C270.1,-115.47 265.45,-112.87 260.92,-110.95 200.59,-85.36 176.69,-103.96 117.92,-74.95 114.42,-73.23 110.94,-71.2 107.55,-69"/>
<polygon fill="green" stroke="green" stroke-width="0.5" points="109.55,-66.13 99.35,-63.26 105.54,-71.86 109.55,-66.13"/>
</g>
<!-- 87&#45;&gt;Left -->
<g id="edge77" class="edge">
<title>87&#45;&gt;Left</title>
<path fill="none" stroke="green" stroke-width="0.12" d="M273.73,-118.41C269.63,-115.87 265.16,-113.22 260.92,-110.95 226.91,-92.74 212.89,-97.97 181.92,-74.95 177.64,-71.77 173.51,-67.93 169.73,-63.94"/>
<polygon fill="green" stroke="green" stroke-width="0.12" points="172.18,-61.43 162.93,-56.26 166.94,-66.07 172.18,-61.43"/>
</g>
<!-- 87&#45;&gt;Right -->
<g id="edge78" class="edge">
<title>87&#45;&gt;Right</title>
<path fill="none" stroke="red" stroke-width="0.14" d="M277.52,-114.3C267,-101.35 251.09,-81.77 238.08,-65.75"/>
<polygon fill="red" stroke="red" stroke-width="0.14" points="240.6,-63.31 231.58,-57.75 235.17,-67.72 240.6,-63.31"/>
</g>
<!-- 87&#45;&gt;4 -->
<g id="edge79" class="edge">
<title>87&#45;&gt;4</title>
<path fill="none" stroke="red" stroke-width="0.3" d="M286.03,-111.01C283.73,-97.22 280.48,-77.77 277.93,-62.48"/>
<polygon fill="red" stroke="red" stroke-width="0.3" points="281.31,-61.51 276.22,-52.22 274.41,-62.66 281.31,-61.51"/>
</g>
<!-- 88&#45;&gt;Forward -->
<g id="edge80" class="edge">
<title>88&#45;&gt;Forward</title>
<path fill="none" stroke="red" stroke-width="0.21" d="M83.49,-117.85C87.66,-115.26 92.33,-112.72 96.92,-110.95 181.65,-78.44 216.05,-114.12 297.92,-74.95 301.74,-73.12 305.49,-70.85 309.07,-68.34"/>
<polygon fill="red" stroke="red" stroke-width="0.21" points="311.32,-71.03 317.1,-62.14 307.04,-65.48 311.32,-71.03"/>
</g>
<!-- 88&#45;&gt;Backward -->
<g id="edge81" class="edge">
<title>88&#45;&gt;Backward</title>
<path fill="none" stroke="red" stroke-width="0.48" d="M69.51,-110.58C69.76,-103.23 70.06,-94.31 70.36,-85.29"/>
<polygon fill="red" stroke="red" stroke-width="0.48" points="73.86,-85.26 70.7,-75.15 66.87,-85.02 73.86,-85.26"/>
</g>
<!-- 88&#45;&gt;Left -->
<g id="edge82" class="edge">
<title>88&#45;&gt;Left</title>
<path fill="none" stroke="green" stroke-width="0.61" d="M81.09,-115.25C91.05,-104.49 105.49,-88.81 117.92,-74.95 121.42,-71.06 125.1,-66.9 128.68,-62.84"/>
<polygon fill="green" stroke="green" stroke-width="0.61" points="131.38,-65.08 135.34,-55.25 126.12,-60.46 131.38,-65.08"/>
</g>
<!-- 88&#45;&gt;Right -->
<g id="edge83" class="edge">
<title>88&#45;&gt;Right</title>
<path fill="none" stroke="green" stroke-width="0.17" d="M83.78,-118.52C87.96,-115.92 92.55,-113.22 96.92,-110.95 133.35,-92.08 148.31,-98.48 181.92,-74.95 185.88,-72.18 189.73,-68.89 193.33,-65.43"/>
<polygon fill="green" stroke="green" stroke-width="0.17" points="195.88,-67.82 200.32,-58.21 190.85,-62.96 195.88,-67.82"/>
</g>
<!-- 88&#45;&gt;4 -->
<g id="edge84" class="edge">
<title>88&#45;&gt;4</title>
<path fill="none" stroke="red" stroke-width="0.33" d="M83.55,-118.02C87.73,-115.42 92.38,-112.84 96.92,-110.95 161.44,-84.18 192.66,-114.97 249.92,-74.95 255.26,-71.23 259.71,-65.9 263.28,-60.46"/>
<polygon fill="red" stroke="red" stroke-width="0.33" points="266.49,-61.88 268.44,-51.47 260.42,-58.4 266.49,-61.88"/>
</g>
</g>
</svg>
