<?xml version="1.0" encoding="utf-8" standalone="no"?>
<!DOCTYPE svg PUBLIC "-//W3C//DTD SVG 1.1//EN"
  "http://www.w3.org/Graphics/SVG/1.1/DTD/svg11.dtd">
<svg height="345.6pt" version="1.1" viewBox="0 0 460.8 345.6" width="460.8pt" xmlns="http://www.w3.org/2000/svg" xmlns:xlink="http://www.w3.org/1999/xlink">
 <metadata>
  <rdf:RDF xmlns:cc="http://creativecommons.org/ns#" xmlns:dc="http://purl.org/dc/elements/1.1/" xmlns:rdf="http://www.w3.org/1999/02/22-rdf-syntax-ns#">
   <cc:Work>
    <dc:type rdf:resource="http://purl.org/dc/dcmitype/StillImage"/>
    <dc:date>2022-07-31T10:27:38.081531</dc:date>
    <dc:format>image/svg+xml</dc:format>
    <dc:creator>
     <cc:Agent>
      <dc:title>Matplotlib v3.4.3, https://matplotlib.org/</dc:title>
     </cc:Agent>
    </dc:creator>
   </cc:Work>
  </rdf:RDF>
 </metadata>
 <defs>
  <style type="text/css">*{stroke-linecap:butt;stroke-linejoin:round;}</style>
 </defs>
 <g id="figure_1">
  <g id="patch_1">
   <path d="M 0 345.6 
L 460.8 345.6 
L 460.8 0 
L 0 0 
z
" style="fill:#ffffff;"/>
  </g>
  <g id="axes_1">
   <g id="patch_2">
    <path d="M 57.6 307.584 
L 414.72 307.584 
L 414.72 41.472 
L 57.6 41.472 
z
" style="fill:#ffffff;"/>
   </g>
   <g id="PolyCollection_1">
    <path clip-path="url(#p4cea050b36)" d="M 73.832727 54.144 
L 73.832727 307.584 
L 74.646398 307.584 
L 75.460068 307.584 
L 76.273739 307.584 
L 77.087409 307.584 
L 77.90108 307.584 
L 78.714751 307.584 
L 79.528421 307.584 
L 80.342092 307.584 
L 81.155762 307.584 
L 81.969433 307.584 
L 82.783103 307.584 
L 83.596774 307.584 
L 84.410444 307.584 
L 85.224115 307.584 
L 86.037785 307.584 
L 86.851456 307.584 
L 87.665126 307.584 
L 88.478797 307.584 
L 89.292468 307.584 
L 90.106138 307.584 
L 90.919809 307.584 
L 91.733479 307.584 
L 92.54715 307.584 
L 93.36082 307.584 
L 94.174491 307.584 
L 94.988161 307.584 
L 95.801832 307.584 
L 96.615502 307.584 
L 97.429173 307.584 
L 98.242843 307.584 
L 99.056514 307.584 
L 99.870185 307.584 
L 100.683855 307.584 
L 101.497526 307.584 
L 102.311196 307.584 
L 103.124867 307.584 
L 103.938537 307.584 
L 104.752208 307.584 
L 105.565878 307.584 
L 106.379549 307.584 
L 107.193219 307.584 
L 108.00689 307.584 
L 108.82056 307.584 
L 109.634231 307.584 
L 110.447902 307.584 
L 111.261572 307.584 
L 112.075243 307.584 
L 112.888913 307.584 
L 113.702584 307.584 
L 114.516254 307.584 
L 115.329925 307.584 
L 116.143595 307.584 
L 116.957266 307.584 
L 117.770936 307.584 
L 118.584607 307.584 
L 119.398278 307.584 
L 120.211948 307.584 
L 121.025619 307.584 
L 121.839289 307.584 
L 122.65296 307.584 
L 123.46663 307.584 
L 124.280301 307.584 
L 125.093971 307.584 
L 125.907642 307.584 
L 126.721312 307.584 
L 127.534983 307.584 
L 128.348653 307.584 
L 129.162324 307.584 
L 129.975995 307.584 
L 130.789665 307.584 
L 131.603336 307.584 
L 132.417006 307.584 
L 133.230677 307.584 
L 134.044347 307.584 
L 134.858018 307.584 
L 135.671688 307.584 
L 136.485359 307.584 
L 137.299029 307.584 
L 138.1127 307.584 
L 138.92637 307.584 
L 139.740041 307.584 
L 140.553712 307.584 
L 141.367382 307.584 
L 142.181053 307.584 
L 142.994723 307.584 
L 143.808394 307.584 
L 144.622064 307.584 
L 145.435735 307.584 
L 146.249405 307.584 
L 147.063076 307.584 
L 147.876746 307.584 
L 148.690417 307.584 
L 149.504087 307.584 
L 150.317758 307.584 
L 151.131429 307.584 
L 151.945099 307.584 
L 152.75877 307.584 
L 153.57244 307.584 
L 154.386111 307.584 
L 155.199781 307.584 
L 156.013452 307.584 
L 156.827122 307.584 
L 157.640793 307.584 
L 158.454463 307.584 
L 159.268134 307.584 
L 160.081805 307.584 
L 160.895475 307.584 
L 161.709146 307.584 
L 162.522816 307.584 
L 163.336487 307.584 
L 164.150157 307.584 
L 164.963828 307.584 
L 165.777498 307.584 
L 166.591169 307.584 
L 167.404839 307.584 
L 168.21851 307.584 
L 169.03218 307.584 
L 169.845851 307.584 
L 170.659522 307.584 
L 171.473192 307.584 
L 172.286863 307.584 
L 173.100533 307.584 
L 173.914204 307.584 
L 174.727874 307.584 
L 175.541545 307.584 
L 176.355215 307.584 
L 177.168886 307.584 
L 177.982556 307.584 
L 178.796227 307.584 
L 179.609897 307.584 
L 180.423568 307.584 
L 181.237239 307.584 
L 182.050909 307.584 
L 182.86458 307.584 
L 183.67825 307.584 
L 184.491921 307.584 
L 185.305591 307.584 
L 186.119262 307.584 
L 186.932932 307.584 
L 187.746603 307.584 
L 188.560273 307.584 
L 189.373944 307.584 
L 190.187614 307.584 
L 191.001285 307.584 
L 191.814956 307.584 
L 192.628626 307.584 
L 193.442297 307.584 
L 194.255967 307.584 
L 195.069638 307.584 
L 195.883308 307.584 
L 196.696979 307.584 
L 197.510649 307.584 
L 198.32432 307.584 
L 199.13799 307.584 
L 199.951661 307.584 
L 200.765332 307.584 
L 201.579002 307.584 
L 202.392673 307.584 
L 203.206343 307.584 
L 204.020014 307.584 
L 204.833684 307.584 
L 205.647355 307.584 
L 206.461025 307.584 
L 207.274696 307.584 
L 208.088366 307.584 
L 208.902037 307.584 
L 209.715707 307.584 
L 210.529378 307.584 
L 211.343049 307.584 
L 212.156719 307.584 
L 212.97039 307.584 
L 213.78406 307.584 
L 214.597731 307.584 
L 215.411401 307.584 
L 216.225072 307.584 
L 217.038742 307.584 
L 217.852413 307.584 
L 218.666083 307.584 
L 219.479754 307.584 
L 220.293424 307.584 
L 221.107095 307.584 
L 221.920766 307.584 
L 222.734436 307.584 
L 223.548107 307.584 
L 224.361777 307.584 
L 225.175448 307.584 
L 225.989118 307.584 
L 226.802789 307.584 
L 227.616459 307.584 
L 228.43013 307.584 
L 229.2438 307.584 
L 230.057471 307.584 
L 230.871141 307.584 
L 231.684812 307.584 
L 232.498483 307.584 
L 233.312153 307.584 
L 234.125824 307.584 
L 234.939494 307.584 
L 235.753165 307.584 
L 236.566835 307.584 
L 237.380506 307.584 
L 238.194176 307.584 
L 239.007847 307.584 
L 239.821517 307.584 
L 240.635188 307.584 
L 241.448859 307.584 
L 242.262529 307.584 
L 243.0762 307.584 
L 243.88987 307.584 
L 244.703541 307.584 
L 245.517211 307.584 
L 246.330882 307.584 
L 247.144552 307.584 
L 247.958223 307.584 
L 248.771893 307.584 
L 249.585564 307.584 
L 250.399234 307.584 
L 251.212905 307.584 
L 252.026576 307.584 
L 252.840246 307.584 
L 253.653917 307.584 
L 254.467587 307.584 
L 255.281258 307.584 
L 256.094928 307.584 
L 256.908599 307.584 
L 257.722269 307.584 
L 258.53594 307.584 
L 259.34961 307.584 
L 260.163281 307.584 
L 260.976951 307.584 
L 261.790622 307.584 
L 262.604293 307.584 
L 263.417963 307.584 
L 264.231634 307.584 
L 265.045304 307.584 
L 265.858975 307.584 
L 266.672645 307.584 
L 267.486316 307.584 
L 268.299986 307.584 
L 269.113657 307.584 
L 269.927327 307.584 
L 270.740998 307.584 
L 271.554668 307.584 
L 272.368339 307.584 
L 273.18201 307.584 
L 273.99568 307.584 
L 274.809351 307.584 
L 275.623021 307.584 
L 276.436692 307.584 
L 277.250362 307.584 
L 278.064033 307.584 
L 278.877703 307.584 
L 279.691374 307.584 
L 280.505044 307.584 
L 281.318715 307.584 
L 282.132386 307.584 
L 282.946056 307.584 
L 283.759727 307.584 
L 284.573397 307.584 
L 285.387068 307.584 
L 286.200738 307.584 
L 287.014409 307.584 
L 287.828079 307.584 
L 288.64175 307.584 
L 289.45542 307.584 
L 290.269091 307.584 
L 291.082761 307.584 
L 291.896432 307.584 
L 292.710103 307.584 
L 293.523773 307.584 
L 294.337444 307.584 
L 295.151114 307.584 
L 295.964785 307.584 
L 296.778455 307.584 
L 297.592126 307.584 
L 298.405796 307.584 
L 299.219467 307.584 
L 300.033137 307.584 
L 300.846808 307.584 
L 301.660478 307.584 
L 302.474149 307.584 
L 303.28782 307.584 
L 304.10149 307.584 
L 304.915161 307.584 
L 305.728831 307.584 
L 306.542502 307.584 
L 307.356172 307.584 
L 308.169843 307.584 
L 308.983513 307.584 
L 309.797184 307.584 
L 310.610854 307.584 
L 311.424525 307.584 
L 312.238195 307.584 
L 313.051866 307.584 
L 313.865537 307.584 
L 314.679207 307.584 
L 315.492878 307.584 
L 316.306548 307.584 
L 317.120219 307.584 
L 317.933889 307.584 
L 318.74756 307.584 
L 319.56123 307.584 
L 320.374901 307.584 
L 321.188571 307.584 
L 322.002242 307.584 
L 322.815913 307.584 
L 323.629583 307.584 
L 324.443254 307.584 
L 325.256924 307.584 
L 326.070595 307.584 
L 326.884265 307.584 
L 327.697936 307.584 
L 328.511606 307.584 
L 329.325277 307.584 
L 330.138947 307.584 
L 330.952618 307.584 
L 331.766288 307.584 
L 332.579959 307.584 
L 333.39363 307.584 
L 334.2073 307.584 
L 335.020971 307.584 
L 335.834641 307.584 
L 336.648312 307.584 
L 337.461982 307.584 
L 338.275653 307.584 
L 339.089323 307.584 
L 339.902994 307.584 
L 340.716664 307.584 
L 341.530335 307.584 
L 342.344005 307.584 
L 343.157676 307.584 
L 343.971347 307.584 
L 344.785017 307.584 
L 345.598688 307.584 
L 346.412358 307.584 
L 347.226029 307.584 
L 348.039699 307.584 
L 348.85337 307.584 
L 349.66704 307.584 
L 350.480711 307.584 
L 351.294381 307.584 
L 352.108052 307.584 
L 352.921722 307.584 
L 353.735393 307.584 
L 354.549064 307.584 
L 355.362734 307.584 
L 356.176405 307.584 
L 356.990075 307.584 
L 357.803746 307.584 
L 358.617416 307.584 
L 359.431087 307.584 
L 360.244757 307.584 
L 361.058428 307.584 
L 361.872098 307.584 
L 362.685769 307.584 
L 363.49944 307.584 
L 364.31311 307.584 
L 365.126781 307.584 
L 365.940451 307.584 
L 366.754122 307.584 
L 367.567792 307.584 
L 368.381463 307.584 
L 369.195133 307.584 
L 370.008804 307.584 
L 370.822474 307.584 
L 371.636145 307.584 
L 372.449815 307.584 
L 373.263486 307.584 
L 374.077157 307.584 
L 374.890827 307.584 
L 375.704498 307.584 
L 376.518168 307.584 
L 377.331839 307.584 
L 378.145509 307.584 
L 378.95918 307.584 
L 379.77285 307.584 
L 380.586521 307.584 
L 381.400191 307.584 
L 382.213862 307.584 
L 383.027532 307.584 
L 383.841203 307.584 
L 384.654874 307.584 
L 385.468544 307.584 
L 386.282215 307.584 
L 387.095885 307.584 
L 387.909556 307.584 
L 388.723226 307.584 
L 389.536897 307.584 
L 390.350567 307.584 
L 391.164238 307.584 
L 391.977908 307.584 
L 392.791579 307.584 
L 393.605249 307.584 
L 394.41892 307.584 
L 395.232591 307.584 
L 396.046261 307.584 
L 396.859932 307.584 
L 397.673602 307.584 
L 398.487273 307.584 
L 398.487273 54.144 
L 398.487273 54.144 
L 397.673602 54.144 
L 396.859932 54.144 
L 396.046261 54.144 
L 395.232591 54.144 
L 394.41892 54.144 
L 393.605249 54.144 
L 392.791579 54.144 
L 391.977908 54.144 
L 391.164238 54.144 
L 390.350567 54.144 
L 389.536897 54.144 
L 388.723226 54.144 
L 387.909556 54.144 
L 387.095885 54.144 
L 386.282215 54.144 
L 385.468544 54.144 
L 384.654874 54.144 
L 383.841203 54.144 
L 383.027532 54.144 
L 382.213862 54.144 
L 381.400191 54.144 
L 380.586521 54.144 
L 379.77285 54.144 
L 378.95918 54.144 
L 378.145509 54.144 
L 377.331839 54.144 
L 376.518168 54.144 
L 375.704498 54.144 
L 374.890827 54.144 
L 374.077157 54.144 
L 373.263486 54.144 
L 372.449815 54.144 
L 371.636145 54.144 
L 370.822474 54.144 
L 370.008804 54.144 
L 369.195133 54.144 
L 368.381463 54.144 
L 367.567792 54.144 
L 366.754122 54.144 
L 365.940451 54.144 
L 365.126781 54.144 
L 364.31311 54.144 
L 363.49944 54.144 
L 362.685769 54.144 
L 361.872098 54.144 
L 361.058428 54.144 
L 360.244757 54.144 
L 359.431087 54.144 
L 358.617416 54.144 
L 357.803746 54.144 
L 356.990075 54.144 
L 356.176405 54.144 
L 355.362734 54.144 
L 354.549064 54.144 
L 353.735393 54.144 
L 352.921722 54.144 
L 352.108052 54.144 
L 351.294381 54.144 
L 350.480711 54.144 
L 349.66704 54.144 
L 348.85337 54.144 
L 348.039699 54.144 
L 347.226029 54.144 
L 346.412358 54.144 
L 345.598688 54.144 
L 344.785017 54.144 
L 343.971347 54.144 
L 343.157676 54.144 
L 342.344005 54.144 
L 341.530335 54.144 
L 340.716664 54.144 
L 339.902994 54.144 
L 339.089323 54.144 
L 338.275653 54.144 
L 337.461982 54.144 
L 336.648312 54.144 
L 335.834641 54.144 
L 335.020971 54.144 
L 334.2073 54.144 
L 333.39363 54.144 
L 332.579959 54.144 
L 331.766288 54.144 
L 330.952618 54.144 
L 330.138947 54.144 
L 329.325277 54.144 
L 328.511606 54.144 
L 327.697936 54.144 
L 326.884265 54.144 
L 326.070595 54.144 
L 325.256924 54.144 
L 324.443254 54.144 
L 323.629583 54.144 
L 322.815913 54.144 
L 322.002242 54.144 
L 321.188571 54.144 
L 320.374901 54.144 
L 319.56123 54.144 
L 318.74756 54.144 
L 317.933889 54.144 
L 317.120219 54.144 
L 316.306548 54.144 
L 315.492878 54.144 
L 314.679207 54.144 
L 313.865537 54.144 
L 313.051866 54.144 
L 312.238195 54.144 
L 311.424525 54.144 
L 310.610854 54.144 
L 309.797184 54.144 
L 308.983513 54.144 
L 308.169843 54.144 
L 307.356172 54.144 
L 306.542502 54.144 
L 305.728831 54.144 
L 304.915161 54.144 
L 304.10149 54.144 
L 303.28782 54.144 
L 302.474149 54.144 
L 301.660478 54.144 
L 300.846808 54.144 
L 300.033137 54.144 
L 299.219467 54.144 
L 298.405796 54.144 
L 297.592126 54.144 
L 296.778455 54.144 
L 295.964785 54.144 
L 295.151114 54.144 
L 294.337444 54.144 
L 293.523773 54.144 
L 292.710103 54.144 
L 291.896432 54.144 
L 291.082761 54.144 
L 290.269091 54.144 
L 289.45542 54.144 
L 288.64175 54.144 
L 287.828079 54.144 
L 287.014409 54.144 
L 286.200738 54.144 
L 285.387068 54.144 
L 284.573397 54.144 
L 283.759727 54.144 
L 282.946056 54.144 
L 282.132386 54.144 
L 281.318715 54.144 
L 280.505044 54.144 
L 279.691374 54.144 
L 278.877703 54.144 
L 278.064033 54.144 
L 277.250362 54.144 
L 276.436692 54.144 
L 275.623021 54.144 
L 274.809351 54.144 
L 273.99568 54.144 
L 273.18201 54.144 
L 272.368339 54.144 
L 271.554668 54.144 
L 270.740998 54.144 
L 269.927327 54.144 
L 269.113657 54.144 
L 268.299986 54.144 
L 267.486316 54.144 
L 266.672645 54.144 
L 265.858975 54.144 
L 265.045304 54.144 
L 264.231634 54.144 
L 263.417963 54.144 
L 262.604293 54.144 
L 261.790622 54.144 
L 260.976951 54.144 
L 260.163281 54.144 
L 259.34961 54.144 
L 258.53594 54.144 
L 257.722269 54.144 
L 256.908599 54.144 
L 256.094928 54.144 
L 255.281258 54.144 
L 254.467587 54.144 
L 253.653917 54.144 
L 252.840246 54.144 
L 252.026576 54.144 
L 251.212905 54.144 
L 250.399234 54.144 
L 249.585564 54.144 
L 248.771893 54.144 
L 247.958223 54.144 
L 247.144552 54.144 
L 246.330882 54.144 
L 245.517211 54.144 
L 244.703541 54.144 
L 243.88987 54.144 
L 243.0762 54.144 
L 242.262529 54.144 
L 241.448859 54.144 
L 240.635188 54.144 
L 239.821517 54.144 
L 239.007847 54.144 
L 238.194176 54.144 
L 237.380506 54.144 
L 236.566835 54.144 
L 235.753165 54.144 
L 234.939494 54.144 
L 234.125824 54.144 
L 233.312153 54.144 
L 232.498483 54.144 
L 231.684812 54.144 
L 230.871141 54.144 
L 230.057471 54.144 
L 229.2438 54.144 
L 228.43013 54.144 
L 227.616459 54.144 
L 226.802789 54.144 
L 225.989118 54.144 
L 225.175448 54.144 
L 224.361777 54.144 
L 223.548107 54.144 
L 222.734436 54.144 
L 221.920766 54.144 
L 221.107095 54.144 
L 220.293424 54.144 
L 219.479754 54.144 
L 218.666083 54.144 
L 217.852413 54.144 
L 217.038742 54.144 
L 216.225072 54.144 
L 215.411401 54.144 
L 214.597731 54.144 
L 213.78406 54.144 
L 212.97039 54.144 
L 212.156719 54.144 
L 211.343049 54.144 
L 210.529378 54.144 
L 209.715707 54.144 
L 208.902037 54.144 
L 208.088366 54.144 
L 207.274696 54.144 
L 206.461025 54.144 
L 205.647355 54.144 
L 204.833684 54.144 
L 204.020014 54.144 
L 203.206343 54.144 
L 202.392673 54.144 
L 201.579002 54.144 
L 200.765332 54.144 
L 199.951661 54.144 
L 199.13799 54.144 
L 198.32432 54.144 
L 197.510649 54.144 
L 196.696979 54.144 
L 195.883308 54.144 
L 195.069638 54.144 
L 194.255967 54.144 
L 193.442297 54.144 
L 192.628626 54.144 
L 191.814956 54.144 
L 191.001285 54.144 
L 190.187614 54.144 
L 189.373944 54.144 
L 188.560273 54.144 
L 187.746603 54.144 
L 186.932932 54.144 
L 186.119262 54.144 
L 185.305591 54.144 
L 184.491921 54.144 
L 183.67825 54.144 
L 182.86458 54.144 
L 182.050909 54.144 
L 181.237239 54.144 
L 180.423568 54.144 
L 179.609897 54.144 
L 178.796227 54.144 
L 177.982556 54.144 
L 177.168886 54.144 
L 176.355215 54.144 
L 175.541545 54.144 
L 174.727874 54.144 
L 173.914204 54.144 
L 173.100533 54.144 
L 172.286863 54.144 
L 171.473192 54.144 
L 170.659522 54.144 
L 169.845851 54.144 
L 169.03218 54.144 
L 168.21851 54.144 
L 167.404839 54.144 
L 166.591169 54.144 
L 165.777498 54.144 
L 164.963828 54.144 
L 164.150157 54.144 
L 163.336487 54.144 
L 162.522816 54.144 
L 161.709146 54.144 
L 160.895475 54.144 
L 160.081805 54.144 
L 159.268134 54.144 
L 158.454463 54.144 
L 157.640793 54.144 
L 156.827122 54.144 
L 156.013452 54.144 
L 155.199781 54.144 
L 154.386111 54.144 
L 153.57244 54.144 
L 152.75877 54.144 
L 151.945099 54.144 
L 151.131429 54.144 
L 150.317758 54.144 
L 149.504087 54.144 
L 148.690417 54.144 
L 147.876746 54.144 
L 147.063076 54.144 
L 146.249405 54.144 
L 145.435735 54.144 
L 144.622064 54.144 
L 143.808394 54.144 
L 142.994723 54.144 
L 142.181053 54.144 
L 141.367382 54.144 
L 140.553712 54.144 
L 139.740041 54.144 
L 138.92637 54.144 
L 138.1127 54.144 
L 137.299029 54.144 
L 136.485359 54.144 
L 135.671688 54.144 
L 134.858018 54.144 
L 134.044347 54.144 
L 133.230677 54.144 
L 132.417006 54.144 
L 131.603336 54.144 
L 130.789665 54.144 
L 129.975995 54.144 
L 129.162324 54.144 
L 128.348653 54.144 
L 127.534983 54.144 
L 126.721312 54.144 
L 125.907642 54.144 
L 125.093971 54.144 
L 124.280301 54.144 
L 123.46663 54.144 
L 122.65296 54.144 
L 121.839289 54.144 
L 121.025619 54.144 
L 120.211948 54.144 
L 119.398278 54.144 
L 118.584607 54.144 
L 117.770936 54.144 
L 116.957266 54.144 
L 116.143595 54.144 
L 115.329925 54.144 
L 114.516254 54.144 
L 113.702584 54.144 
L 112.888913 54.144 
L 112.075243 54.144 
L 111.261572 54.144 
L 110.447902 54.144 
L 109.634231 54.144 
L 108.82056 54.144 
L 108.00689 54.144 
L 107.193219 54.144 
L 106.379549 54.144 
L 105.565878 54.144 
L 104.752208 54.144 
L 103.938537 54.144 
L 103.124867 54.144 
L 102.311196 54.144 
L 101.497526 54.144 
L 100.683855 54.144 
L 99.870185 54.144 
L 99.056514 54.144 
L 98.242843 54.144 
L 97.429173 54.144 
L 96.615502 54.144 
L 95.801832 54.144 
L 94.988161 54.144 
L 94.174491 54.144 
L 93.36082 54.144 
L 92.54715 54.144 
L 91.733479 54.144 
L 90.919809 54.144 
L 90.106138 54.144 
L 89.292468 54.144 
L 88.478797 54.144 
L 87.665126 54.144 
L 86.851456 54.144 
L 86.037785 54.144 
L 85.224115 54.144 
L 84.410444 54.144 
L 83.596774 54.144 
L 82.783103 54.144 
L 81.969433 54.144 
L 81.155762 54.144 
L 80.342092 54.144 
L 79.528421 54.144 
L 78.714751 54.144 
L 77.90108 54.144 
L 77.087409 54.144 
L 76.273739 54.144 
L 75.460068 54.144 
L 74.646398 54.144 
L 73.832727 54.144 
z
" style="fill:#1f77b4;"/>
   </g>
   <g id="matplotlib.axis_1">
    <g id="xtick_1">
     <g id="line2d_1">
      <defs>
       <path d="M 0 0 
L 0 3.5 
" id="mc882063d21" style="stroke:#000000;stroke-width:0.8;"/>
      </defs>
      <g>
       <use style="stroke:#000000;stroke-width:0.8;" x="73.832727" xlink:href="#mc882063d21" y="307.584"/>
      </g>
     </g>
     <g id="text_1">
      <!-- 0 -->
      <g transform="translate(70.651477 322.182437)scale(0.1 -0.1)">
       <defs>
        <path d="M 2034 4250 
Q 1547 4250 1301 3770 
Q 1056 3291 1056 2328 
Q 1056 1369 1301 889 
Q 1547 409 2034 409 
Q 2525 409 2770 889 
Q 3016 1369 3016 2328 
Q 3016 3291 2770 3770 
Q 2525 4250 2034 4250 
z
M 2034 4750 
Q 2819 4750 3233 4129 
Q 3647 3509 3647 2328 
Q 3647 1150 3233 529 
Q 2819 -91 2034 -91 
Q 1250 -91 836 529 
Q 422 1150 422 2328 
Q 422 3509 836 4129 
Q 1250 4750 2034 4750 
z
" id="DejaVuSans-30" transform="scale(0.015625)"/>
       </defs>
       <use xlink:href="#DejaVuSans-30"/>
      </g>
     </g>
    </g>
    <g id="xtick_2">
     <g id="line2d_2">
      <g>
       <use style="stroke:#000000;stroke-width:0.8;" x="114.516254" xlink:href="#mc882063d21" y="307.584"/>
      </g>
     </g>
     <g id="text_2">
      <!-- 50 -->
      <g transform="translate(108.153754 322.182437)scale(0.1 -0.1)">
       <defs>
        <path d="M 691 4666 
L 3169 4666 
L 3169 4134 
L 1269 4134 
L 1269 2991 
Q 1406 3038 1543 3061 
Q 1681 3084 1819 3084 
Q 2600 3084 3056 2656 
Q 3513 2228 3513 1497 
Q 3513 744 3044 326 
Q 2575 -91 1722 -91 
Q 1428 -91 1123 -41 
Q 819 9 494 109 
L 494 744 
Q 775 591 1075 516 
Q 1375 441 1709 441 
Q 2250 441 2565 725 
Q 2881 1009 2881 1497 
Q 2881 1984 2565 2268 
Q 2250 2553 1709 2553 
Q 1456 2553 1204 2497 
Q 953 2441 691 2322 
L 691 4666 
z
" id="DejaVuSans-35" transform="scale(0.015625)"/>
       </defs>
       <use xlink:href="#DejaVuSans-35"/>
       <use x="63.623047" xlink:href="#DejaVuSans-30"/>
      </g>
     </g>
    </g>
    <g id="xtick_3">
     <g id="line2d_3">
      <g>
       <use style="stroke:#000000;stroke-width:0.8;" x="155.199781" xlink:href="#mc882063d21" y="307.584"/>
      </g>
     </g>
     <g id="text_3">
      <!-- 100 -->
      <g transform="translate(145.656031 322.182437)scale(0.1 -0.1)">
       <defs>
        <path d="M 794 531 
L 1825 531 
L 1825 4091 
L 703 3866 
L 703 4441 
L 1819 4666 
L 2450 4666 
L 2450 531 
L 3481 531 
L 3481 0 
L 794 0 
L 794 531 
z
" id="DejaVuSans-31" transform="scale(0.015625)"/>
       </defs>
       <use xlink:href="#DejaVuSans-31"/>
       <use x="63.623047" xlink:href="#DejaVuSans-30"/>
       <use x="127.246094" xlink:href="#DejaVuSans-30"/>
      </g>
     </g>
    </g>
    <g id="xtick_4">
     <g id="line2d_4">
      <g>
       <use style="stroke:#000000;stroke-width:0.8;" x="195.883308" xlink:href="#mc882063d21" y="307.584"/>
      </g>
     </g>
     <g id="text_4">
      <!-- 150 -->
      <g transform="translate(186.339558 322.182437)scale(0.1 -0.1)">
       <use xlink:href="#DejaVuSans-31"/>
       <use x="63.623047" xlink:href="#DejaVuSans-35"/>
       <use x="127.246094" xlink:href="#DejaVuSans-30"/>
      </g>
     </g>
    </g>
    <g id="xtick_5">
     <g id="line2d_5">
      <g>
       <use style="stroke:#000000;stroke-width:0.8;" x="236.566835" xlink:href="#mc882063d21" y="307.584"/>
      </g>
     </g>
     <g id="text_5">
      <!-- 200 -->
      <g transform="translate(227.023085 322.182437)scale(0.1 -0.1)">
       <defs>
        <path d="M 1228 531 
L 3431 531 
L 3431 0 
L 469 0 
L 469 531 
Q 828 903 1448 1529 
Q 2069 2156 2228 2338 
Q 2531 2678 2651 2914 
Q 2772 3150 2772 3378 
Q 2772 3750 2511 3984 
Q 2250 4219 1831 4219 
Q 1534 4219 1204 4116 
Q 875 4013 500 3803 
L 500 4441 
Q 881 4594 1212 4672 
Q 1544 4750 1819 4750 
Q 2544 4750 2975 4387 
Q 3406 4025 3406 3419 
Q 3406 3131 3298 2873 
Q 3191 2616 2906 2266 
Q 2828 2175 2409 1742 
Q 1991 1309 1228 531 
z
" id="DejaVuSans-32" transform="scale(0.015625)"/>
       </defs>
       <use xlink:href="#DejaVuSans-32"/>
       <use x="63.623047" xlink:href="#DejaVuSans-30"/>
       <use x="127.246094" xlink:href="#DejaVuSans-30"/>
      </g>
     </g>
    </g>
    <g id="xtick_6">
     <g id="line2d_6">
      <g>
       <use style="stroke:#000000;stroke-width:0.8;" x="277.250362" xlink:href="#mc882063d21" y="307.584"/>
      </g>
     </g>
     <g id="text_6">
      <!-- 250 -->
      <g transform="translate(267.706612 322.182437)scale(0.1 -0.1)">
       <use xlink:href="#DejaVuSans-32"/>
       <use x="63.623047" xlink:href="#DejaVuSans-35"/>
       <use x="127.246094" xlink:href="#DejaVuSans-30"/>
      </g>
     </g>
    </g>
    <g id="xtick_7">
     <g id="line2d_7">
      <g>
       <use style="stroke:#000000;stroke-width:0.8;" x="317.933889" xlink:href="#mc882063d21" y="307.584"/>
      </g>
     </g>
     <g id="text_7">
      <!-- 300 -->
      <g transform="translate(308.390139 322.182437)scale(0.1 -0.1)">
       <defs>
        <path d="M 2597 2516 
Q 3050 2419 3304 2112 
Q 3559 1806 3559 1356 
Q 3559 666 3084 287 
Q 2609 -91 1734 -91 
Q 1441 -91 1130 -33 
Q 819 25 488 141 
L 488 750 
Q 750 597 1062 519 
Q 1375 441 1716 441 
Q 2309 441 2620 675 
Q 2931 909 2931 1356 
Q 2931 1769 2642 2001 
Q 2353 2234 1838 2234 
L 1294 2234 
L 1294 2753 
L 1863 2753 
Q 2328 2753 2575 2939 
Q 2822 3125 2822 3475 
Q 2822 3834 2567 4026 
Q 2313 4219 1838 4219 
Q 1578 4219 1281 4162 
Q 984 4106 628 3988 
L 628 4550 
Q 988 4650 1302 4700 
Q 1616 4750 1894 4750 
Q 2613 4750 3031 4423 
Q 3450 4097 3450 3541 
Q 3450 3153 3228 2886 
Q 3006 2619 2597 2516 
z
" id="DejaVuSans-33" transform="scale(0.015625)"/>
       </defs>
       <use xlink:href="#DejaVuSans-33"/>
       <use x="63.623047" xlink:href="#DejaVuSans-30"/>
       <use x="127.246094" xlink:href="#DejaVuSans-30"/>
      </g>
     </g>
    </g>
    <g id="xtick_8">
     <g id="line2d_8">
      <g>
       <use style="stroke:#000000;stroke-width:0.8;" x="358.617416" xlink:href="#mc882063d21" y="307.584"/>
      </g>
     </g>
     <g id="text_8">
      <!-- 350 -->
      <g transform="translate(349.073666 322.182437)scale(0.1 -0.1)">
       <use xlink:href="#DejaVuSans-33"/>
       <use x="63.623047" xlink:href="#DejaVuSans-35"/>
       <use x="127.246094" xlink:href="#DejaVuSans-30"/>
      </g>
     </g>
    </g>
    <g id="xtick_9">
     <g id="line2d_9">
      <g>
       <use style="stroke:#000000;stroke-width:0.8;" x="399.300943" xlink:href="#mc882063d21" y="307.584"/>
      </g>
     </g>
     <g id="text_9">
      <!-- 400 -->
      <g transform="translate(389.757193 322.182437)scale(0.1 -0.1)">
       <defs>
        <path d="M 2419 4116 
L 825 1625 
L 2419 1625 
L 2419 4116 
z
M 2253 4666 
L 3047 4666 
L 3047 1625 
L 3713 1625 
L 3713 1100 
L 3047 1100 
L 3047 0 
L 2419 0 
L 2419 1100 
L 313 1100 
L 313 1709 
L 2253 4666 
z
" id="DejaVuSans-34" transform="scale(0.015625)"/>
       </defs>
       <use xlink:href="#DejaVuSans-34"/>
       <use x="63.623047" xlink:href="#DejaVuSans-30"/>
       <use x="127.246094" xlink:href="#DejaVuSans-30"/>
      </g>
     </g>
    </g>
    <g id="text_10">
     <!-- Generations -->
     <g transform="translate(205.662344 335.860562)scale(0.1 -0.1)">
      <defs>
       <path d="M 3809 666 
L 3809 1919 
L 2778 1919 
L 2778 2438 
L 4434 2438 
L 4434 434 
Q 4069 175 3628 42 
Q 3188 -91 2688 -91 
Q 1594 -91 976 548 
Q 359 1188 359 2328 
Q 359 3472 976 4111 
Q 1594 4750 2688 4750 
Q 3144 4750 3555 4637 
Q 3966 4525 4313 4306 
L 4313 3634 
Q 3963 3931 3569 4081 
Q 3175 4231 2741 4231 
Q 1884 4231 1454 3753 
Q 1025 3275 1025 2328 
Q 1025 1384 1454 906 
Q 1884 428 2741 428 
Q 3075 428 3337 486 
Q 3600 544 3809 666 
z
" id="DejaVuSans-47" transform="scale(0.015625)"/>
       <path d="M 3597 1894 
L 3597 1613 
L 953 1613 
Q 991 1019 1311 708 
Q 1631 397 2203 397 
Q 2534 397 2845 478 
Q 3156 559 3463 722 
L 3463 178 
Q 3153 47 2828 -22 
Q 2503 -91 2169 -91 
Q 1331 -91 842 396 
Q 353 884 353 1716 
Q 353 2575 817 3079 
Q 1281 3584 2069 3584 
Q 2775 3584 3186 3129 
Q 3597 2675 3597 1894 
z
M 3022 2063 
Q 3016 2534 2758 2815 
Q 2500 3097 2075 3097 
Q 1594 3097 1305 2825 
Q 1016 2553 972 2059 
L 3022 2063 
z
" id="DejaVuSans-65" transform="scale(0.015625)"/>
       <path d="M 3513 2113 
L 3513 0 
L 2938 0 
L 2938 2094 
Q 2938 2591 2744 2837 
Q 2550 3084 2163 3084 
Q 1697 3084 1428 2787 
Q 1159 2491 1159 1978 
L 1159 0 
L 581 0 
L 581 3500 
L 1159 3500 
L 1159 2956 
Q 1366 3272 1645 3428 
Q 1925 3584 2291 3584 
Q 2894 3584 3203 3211 
Q 3513 2838 3513 2113 
z
" id="DejaVuSans-6e" transform="scale(0.015625)"/>
       <path d="M 2631 2963 
Q 2534 3019 2420 3045 
Q 2306 3072 2169 3072 
Q 1681 3072 1420 2755 
Q 1159 2438 1159 1844 
L 1159 0 
L 581 0 
L 581 3500 
L 1159 3500 
L 1159 2956 
Q 1341 3275 1631 3429 
Q 1922 3584 2338 3584 
Q 2397 3584 2469 3576 
Q 2541 3569 2628 3553 
L 2631 2963 
z
" id="DejaVuSans-72" transform="scale(0.015625)"/>
       <path d="M 2194 1759 
Q 1497 1759 1228 1600 
Q 959 1441 959 1056 
Q 959 750 1161 570 
Q 1363 391 1709 391 
Q 2188 391 2477 730 
Q 2766 1069 2766 1631 
L 2766 1759 
L 2194 1759 
z
M 3341 1997 
L 3341 0 
L 2766 0 
L 2766 531 
Q 2569 213 2275 61 
Q 1981 -91 1556 -91 
Q 1019 -91 701 211 
Q 384 513 384 1019 
Q 384 1609 779 1909 
Q 1175 2209 1959 2209 
L 2766 2209 
L 2766 2266 
Q 2766 2663 2505 2880 
Q 2244 3097 1772 3097 
Q 1472 3097 1187 3025 
Q 903 2953 641 2809 
L 641 3341 
Q 956 3463 1253 3523 
Q 1550 3584 1831 3584 
Q 2591 3584 2966 3190 
Q 3341 2797 3341 1997 
z
" id="DejaVuSans-61" transform="scale(0.015625)"/>
       <path d="M 1172 4494 
L 1172 3500 
L 2356 3500 
L 2356 3053 
L 1172 3053 
L 1172 1153 
Q 1172 725 1289 603 
Q 1406 481 1766 481 
L 2356 481 
L 2356 0 
L 1766 0 
Q 1100 0 847 248 
Q 594 497 594 1153 
L 594 3053 
L 172 3053 
L 172 3500 
L 594 3500 
L 594 4494 
L 1172 4494 
z
" id="DejaVuSans-74" transform="scale(0.015625)"/>
       <path d="M 603 3500 
L 1178 3500 
L 1178 0 
L 603 0 
L 603 3500 
z
M 603 4863 
L 1178 4863 
L 1178 4134 
L 603 4134 
L 603 4863 
z
" id="DejaVuSans-69" transform="scale(0.015625)"/>
       <path d="M 1959 3097 
Q 1497 3097 1228 2736 
Q 959 2375 959 1747 
Q 959 1119 1226 758 
Q 1494 397 1959 397 
Q 2419 397 2687 759 
Q 2956 1122 2956 1747 
Q 2956 2369 2687 2733 
Q 2419 3097 1959 3097 
z
M 1959 3584 
Q 2709 3584 3137 3096 
Q 3566 2609 3566 1747 
Q 3566 888 3137 398 
Q 2709 -91 1959 -91 
Q 1206 -91 779 398 
Q 353 888 353 1747 
Q 353 2609 779 3096 
Q 1206 3584 1959 3584 
z
" id="DejaVuSans-6f" transform="scale(0.015625)"/>
       <path d="M 2834 3397 
L 2834 2853 
Q 2591 2978 2328 3040 
Q 2066 3103 1784 3103 
Q 1356 3103 1142 2972 
Q 928 2841 928 2578 
Q 928 2378 1081 2264 
Q 1234 2150 1697 2047 
L 1894 2003 
Q 2506 1872 2764 1633 
Q 3022 1394 3022 966 
Q 3022 478 2636 193 
Q 2250 -91 1575 -91 
Q 1294 -91 989 -36 
Q 684 19 347 128 
L 347 722 
Q 666 556 975 473 
Q 1284 391 1588 391 
Q 1994 391 2212 530 
Q 2431 669 2431 922 
Q 2431 1156 2273 1281 
Q 2116 1406 1581 1522 
L 1381 1569 
Q 847 1681 609 1914 
Q 372 2147 372 2553 
Q 372 3047 722 3315 
Q 1072 3584 1716 3584 
Q 2034 3584 2315 3537 
Q 2597 3491 2834 3397 
z
" id="DejaVuSans-73" transform="scale(0.015625)"/>
      </defs>
      <use xlink:href="#DejaVuSans-47"/>
      <use x="77.490234" xlink:href="#DejaVuSans-65"/>
      <use x="139.013672" xlink:href="#DejaVuSans-6e"/>
      <use x="202.392578" xlink:href="#DejaVuSans-65"/>
      <use x="263.916016" xlink:href="#DejaVuSans-72"/>
      <use x="305.029297" xlink:href="#DejaVuSans-61"/>
      <use x="366.308594" xlink:href="#DejaVuSans-74"/>
      <use x="405.517578" xlink:href="#DejaVuSans-69"/>
      <use x="433.300781" xlink:href="#DejaVuSans-6f"/>
      <use x="494.482422" xlink:href="#DejaVuSans-6e"/>
      <use x="557.861328" xlink:href="#DejaVuSans-73"/>
     </g>
    </g>
   </g>
   <g id="matplotlib.axis_2">
    <g id="ytick_1">
     <g id="line2d_10">
      <defs>
       <path d="M 0 0 
L -3.5 0 
" id="mf784b29e79" style="stroke:#000000;stroke-width:0.8;"/>
      </defs>
      <g>
       <use style="stroke:#000000;stroke-width:0.8;" x="57.6" xlink:href="#mf784b29e79" y="307.584"/>
      </g>
     </g>
     <g id="text_11">
      <!-- 0 -->
      <g transform="translate(44.2375 311.383219)scale(0.1 -0.1)">
       <use xlink:href="#DejaVuSans-30"/>
      </g>
     </g>
    </g>
    <g id="ytick_2">
     <g id="line2d_11">
      <g>
       <use style="stroke:#000000;stroke-width:0.8;" x="57.6" xlink:href="#mf784b29e79" y="272.384"/>
      </g>
     </g>
     <g id="text_12">
      <!-- 5 -->
      <g transform="translate(44.2375 276.183219)scale(0.1 -0.1)">
       <use xlink:href="#DejaVuSans-35"/>
      </g>
     </g>
    </g>
    <g id="ytick_3">
     <g id="line2d_12">
      <g>
       <use style="stroke:#000000;stroke-width:0.8;" x="57.6" xlink:href="#mf784b29e79" y="237.184"/>
      </g>
     </g>
     <g id="text_13">
      <!-- 10 -->
      <g transform="translate(37.875 240.983219)scale(0.1 -0.1)">
       <use xlink:href="#DejaVuSans-31"/>
       <use x="63.623047" xlink:href="#DejaVuSans-30"/>
      </g>
     </g>
    </g>
    <g id="ytick_4">
     <g id="line2d_13">
      <g>
       <use style="stroke:#000000;stroke-width:0.8;" x="57.6" xlink:href="#mf784b29e79" y="201.984"/>
      </g>
     </g>
     <g id="text_14">
      <!-- 15 -->
      <g transform="translate(37.875 205.783219)scale(0.1 -0.1)">
       <use xlink:href="#DejaVuSans-31"/>
       <use x="63.623047" xlink:href="#DejaVuSans-35"/>
      </g>
     </g>
    </g>
    <g id="ytick_5">
     <g id="line2d_14">
      <g>
       <use style="stroke:#000000;stroke-width:0.8;" x="57.6" xlink:href="#mf784b29e79" y="166.784"/>
      </g>
     </g>
     <g id="text_15">
      <!-- 20 -->
      <g transform="translate(37.875 170.583219)scale(0.1 -0.1)">
       <use xlink:href="#DejaVuSans-32"/>
       <use x="63.623047" xlink:href="#DejaVuSans-30"/>
      </g>
     </g>
    </g>
    <g id="ytick_6">
     <g id="line2d_15">
      <g>
       <use style="stroke:#000000;stroke-width:0.8;" x="57.6" xlink:href="#mf784b29e79" y="131.584"/>
      </g>
     </g>
     <g id="text_16">
      <!-- 25 -->
      <g transform="translate(37.875 135.383219)scale(0.1 -0.1)">
       <use xlink:href="#DejaVuSans-32"/>
       <use x="63.623047" xlink:href="#DejaVuSans-35"/>
      </g>
     </g>
    </g>
    <g id="ytick_7">
     <g id="line2d_16">
      <g>
       <use style="stroke:#000000;stroke-width:0.8;" x="57.6" xlink:href="#mf784b29e79" y="96.384"/>
      </g>
     </g>
     <g id="text_17">
      <!-- 30 -->
      <g transform="translate(37.875 100.183219)scale(0.1 -0.1)">
       <use xlink:href="#DejaVuSans-33"/>
       <use x="63.623047" xlink:href="#DejaVuSans-30"/>
      </g>
     </g>
    </g>
    <g id="ytick_8">
     <g id="line2d_17">
      <g>
       <use style="stroke:#000000;stroke-width:0.8;" x="57.6" xlink:href="#mf784b29e79" y="61.184"/>
      </g>
     </g>
     <g id="text_18">
      <!-- 35 -->
      <g transform="translate(37.875 64.983219)scale(0.1 -0.1)">
       <use xlink:href="#DejaVuSans-33"/>
       <use x="63.623047" xlink:href="#DejaVuSans-35"/>
      </g>
     </g>
    </g>
    <g id="text_19">
     <!-- Size per Species -->
     <g transform="translate(31.795312 215.520969)rotate(-90)scale(0.1 -0.1)">
      <defs>
       <path d="M 3425 4513 
L 3425 3897 
Q 3066 4069 2747 4153 
Q 2428 4238 2131 4238 
Q 1616 4238 1336 4038 
Q 1056 3838 1056 3469 
Q 1056 3159 1242 3001 
Q 1428 2844 1947 2747 
L 2328 2669 
Q 3034 2534 3370 2195 
Q 3706 1856 3706 1288 
Q 3706 609 3251 259 
Q 2797 -91 1919 -91 
Q 1588 -91 1214 -16 
Q 841 59 441 206 
L 441 856 
Q 825 641 1194 531 
Q 1563 422 1919 422 
Q 2459 422 2753 634 
Q 3047 847 3047 1241 
Q 3047 1584 2836 1778 
Q 2625 1972 2144 2069 
L 1759 2144 
Q 1053 2284 737 2584 
Q 422 2884 422 3419 
Q 422 4038 858 4394 
Q 1294 4750 2059 4750 
Q 2388 4750 2728 4690 
Q 3069 4631 3425 4513 
z
" id="DejaVuSans-53" transform="scale(0.015625)"/>
       <path d="M 353 3500 
L 3084 3500 
L 3084 2975 
L 922 459 
L 3084 459 
L 3084 0 
L 275 0 
L 275 525 
L 2438 3041 
L 353 3041 
L 353 3500 
z
" id="DejaVuSans-7a" transform="scale(0.015625)"/>
       <path id="DejaVuSans-20" transform="scale(0.015625)"/>
       <path d="M 1159 525 
L 1159 -1331 
L 581 -1331 
L 581 3500 
L 1159 3500 
L 1159 2969 
Q 1341 3281 1617 3432 
Q 1894 3584 2278 3584 
Q 2916 3584 3314 3078 
Q 3713 2572 3713 1747 
Q 3713 922 3314 415 
Q 2916 -91 2278 -91 
Q 1894 -91 1617 61 
Q 1341 213 1159 525 
z
M 3116 1747 
Q 3116 2381 2855 2742 
Q 2594 3103 2138 3103 
Q 1681 3103 1420 2742 
Q 1159 2381 1159 1747 
Q 1159 1113 1420 752 
Q 1681 391 2138 391 
Q 2594 391 2855 752 
Q 3116 1113 3116 1747 
z
" id="DejaVuSans-70" transform="scale(0.015625)"/>
       <path d="M 3122 3366 
L 3122 2828 
Q 2878 2963 2633 3030 
Q 2388 3097 2138 3097 
Q 1578 3097 1268 2742 
Q 959 2388 959 1747 
Q 959 1106 1268 751 
Q 1578 397 2138 397 
Q 2388 397 2633 464 
Q 2878 531 3122 666 
L 3122 134 
Q 2881 22 2623 -34 
Q 2366 -91 2075 -91 
Q 1284 -91 818 406 
Q 353 903 353 1747 
Q 353 2603 823 3093 
Q 1294 3584 2113 3584 
Q 2378 3584 2631 3529 
Q 2884 3475 3122 3366 
z
" id="DejaVuSans-63" transform="scale(0.015625)"/>
      </defs>
      <use xlink:href="#DejaVuSans-53"/>
      <use x="63.476562" xlink:href="#DejaVuSans-69"/>
      <use x="91.259766" xlink:href="#DejaVuSans-7a"/>
      <use x="143.75" xlink:href="#DejaVuSans-65"/>
      <use x="205.273438" xlink:href="#DejaVuSans-20"/>
      <use x="237.060547" xlink:href="#DejaVuSans-70"/>
      <use x="300.537109" xlink:href="#DejaVuSans-65"/>
      <use x="362.060547" xlink:href="#DejaVuSans-72"/>
      <use x="403.173828" xlink:href="#DejaVuSans-20"/>
      <use x="434.960938" xlink:href="#DejaVuSans-53"/>
      <use x="498.4375" xlink:href="#DejaVuSans-70"/>
      <use x="561.914062" xlink:href="#DejaVuSans-65"/>
      <use x="623.4375" xlink:href="#DejaVuSans-63"/>
      <use x="678.417969" xlink:href="#DejaVuSans-69"/>
      <use x="706.201172" xlink:href="#DejaVuSans-65"/>
      <use x="767.724609" xlink:href="#DejaVuSans-73"/>
     </g>
    </g>
   </g>
   <g id="patch_3">
    <path d="M 57.6 307.584 
L 57.6 41.472 
" style="fill:none;stroke:#000000;stroke-linecap:square;stroke-linejoin:miter;stroke-width:0.8;"/>
   </g>
   <g id="patch_4">
    <path d="M 414.72 307.584 
L 414.72 41.472 
" style="fill:none;stroke:#000000;stroke-linecap:square;stroke-linejoin:miter;stroke-width:0.8;"/>
   </g>
   <g id="patch_5">
    <path d="M 57.6 307.584 
L 414.72 307.584 
" style="fill:none;stroke:#000000;stroke-linecap:square;stroke-linejoin:miter;stroke-width:0.8;"/>
   </g>
   <g id="patch_6">
    <path d="M 57.6 41.472 
L 414.72 41.472 
" style="fill:none;stroke:#000000;stroke-linecap:square;stroke-linejoin:miter;stroke-width:0.8;"/>
   </g>
   <g id="text_20">
    <!-- Speciation -->
    <g transform="translate(204.714375 35.472)scale(0.12 -0.12)">
     <use xlink:href="#DejaVuSans-53"/>
     <use x="63.476562" xlink:href="#DejaVuSans-70"/>
     <use x="126.953125" xlink:href="#DejaVuSans-65"/>
     <use x="188.476562" xlink:href="#DejaVuSans-63"/>
     <use x="243.457031" xlink:href="#DejaVuSans-69"/>
     <use x="271.240234" xlink:href="#DejaVuSans-61"/>
     <use x="332.519531" xlink:href="#DejaVuSans-74"/>
     <use x="371.728516" xlink:href="#DejaVuSans-69"/>
     <use x="399.511719" xlink:href="#DejaVuSans-6f"/>
     <use x="460.693359" xlink:href="#DejaVuSans-6e"/>
    </g>
   </g>
  </g>
 </g>
 <defs>
  <clipPath id="p4cea050b36">
   <rect height="266.112" width="357.12" x="57.6" y="41.472"/>
  </clipPath>
 </defs>
</svg>
